  0
SECTION
  2
HEADER
  9
$ANGBASE
  50
0.0
  9
$ANGDIR
  70
1
  9
$MEASUREMENT
  70
0
  0
ENDSEC
  0
SECTION
  2
TABLES
  0
TABLE
  2
LTYPE
  70
4
  0
LTYPE
  5
40F
  2
CONTINUOUS
  70
0
  3
Solid line
  72
65
  73
0
  40
0.0
  0
LTYPE
  5
410
  2
DASHDOT
 70
0
  3
Dash Dot ____ _ ____ _
 72
65
 73
4
 40
2.0
 49
1.25
 49
-0.25
 49
0.25
 49
-0.25
  0
LTYPE
  5
411
  2
DASHED
 70
0
  3
Dashed __ __ __ __ __
 72
65
 73
2
 40
0.75
 49
0.5
 49
-0.25
  0
LTYPE
  5
43B
  2
DOTTED
 70
0
  3
Dotted .  .  .  .
 72
65
 73
2
 40
0.2
 49
0.0
 49
-0.2
  0
ENDTAB
  0
TABLE
  2
STYLE
  70
4
  0
STYLE
  2
KICAD
  70
0
  40
0
  41
1
  42
1
  50
0
  71
0
  3
isocp.shx
  0
STYLE
  2
KICADB
  70
0
  40
0
  41
1
  42
1
  50
0
  71
0
  3
isocp.shx
  0
STYLE
  2
KICADI
  70
0
  40
0
  41
1
  42
1
  50
15
  71
0
  3
isocp.shx
  0
STYLE
  2
KICADBI
  70
0
  40
0
  41
1
  42
1
  50
15
  71
0
  3
isocp.shx
  0
ENDTAB
  0
TABLE
  2
LAYER
  70
1
  0
LAYER
  2
BLACK
  70
0
  62
7
  6
CONTINUOUS
  0
ENDTAB
  0
ENDSEC
  0
SECTION
  2
ENTITIES
0
LINE
8
BLACK
6
CONTINUOUS
10
3.11585
20
-2.58955
11
3.11585
21
-2.58955
0
LINE
8
BLACK
6
CONTINUOUS
10
3.11585
20
-2.58955
11
3.10056
21
-2.58805
0
LINE
8
BLACK
6
CONTINUOUS
10
3.10056
20
-2.58805
11
3.10052
21
-2.58805
0
LINE
8
BLACK
6
CONTINUOUS
10
3.10052
20
-2.58805
11
3.10026
21
-2.58799
0
LINE
8
BLACK
6
CONTINUOUS
10
3.10026
20
-2.58799
11
3.09999
21
-2.58794
0
LINE
8
BLACK
6
CONTINUOUS
10
3.09999
20
-2.58794
11
3.08528
21
-2.5835
0
LINE
8
BLACK
6
CONTINUOUS
10
3.08528
20
-2.5835
11
3.08528
21
-2.5835
0
LINE
8
BLACK
6
CONTINUOUS
10
3.08528
20
-2.5835
11
3.08524
21
-2.58349
0
LINE
8
BLACK
6
CONTINUOUS
10
3.08524
20
-2.58349
11
3.085
21
-2.58338
0
LINE
8
BLACK
6
CONTINUOUS
10
3.085
20
-2.58338
11
3.08475
21
-2.58328
0
LINE
8
BLACK
6
CONTINUOUS
10
3.08475
20
-2.58328
11
3.07118
21
-2.57607
0
LINE
8
BLACK
6
CONTINUOUS
10
3.07118
20
-2.57607
11
3.07118
21
-2.57607
0
LINE
8
BLACK
6
CONTINUOUS
10
3.07118
20
-2.57607
11
3.07118
21
-2.57607
0
LINE
8
BLACK
6
CONTINUOUS
10
3.07118
20
-2.57607
11
3.07115
21
-2.57605
0
LINE
8
BLACK
6
CONTINUOUS
10
3.07115
20
-2.57605
11
3.07092
21
-2.57589
0
LINE
8
BLACK
6
CONTINUOUS
10
3.07092
20
-2.57589
11
3.0707
21
-2.57575
0
LINE
8
BLACK
6
CONTINUOUS
10
3.0707
20
-2.57575
11
3.05879
21
-2.56603
0
LINE
8
BLACK
6
CONTINUOUS
10
3.05879
20
-2.56603
11
3.05876
21
-2.56601
0
LINE
8
BLACK
6
CONTINUOUS
10
3.05876
20
-2.56601
11
3.05857
21
-2.56582
0
LINE
8
BLACK
6
CONTINUOUS
10
3.05857
20
-2.56582
11
3.05838
21
-2.56563
0
LINE
8
BLACK
6
CONTINUOUS
10
3.05838
20
-2.56563
11
3.04859
21
-2.55379
0
LINE
8
BLACK
6
CONTINUOUS
10
3.04859
20
-2.55379
11
3.04859
21
-2.55379
0
LINE
8
BLACK
6
CONTINUOUS
10
3.04859
20
-2.55379
11
3.04859
21
-2.55379
0
LINE
8
BLACK
6
CONTINUOUS
10
3.04859
20
-2.55379
11
3.04856
21
-2.55376
0
LINE
8
BLACK
6
CONTINUOUS
10
3.04856
20
-2.55376
11
3.04842
21
-2.55353
0
LINE
8
BLACK
6
CONTINUOUS
10
3.04842
20
-2.55353
11
3.04827
21
-2.55331
0
LINE
8
BLACK
6
CONTINUOUS
10
3.04827
20
-2.55331
11
3.04096
21
-2.53979
0
LINE
8
BLACK
6
CONTINUOUS
10
3.04096
20
-2.53979
11
3.04094
21
-2.53976
0
LINE
8
BLACK
6
CONTINUOUS
10
3.04094
20
-2.53976
11
3.04084
21
-2.53951
0
LINE
8
BLACK
6
CONTINUOUS
10
3.04084
20
-2.53951
11
3.04073
21
-2.53926
0
LINE
8
BLACK
6
CONTINUOUS
10
3.04073
20
-2.53926
11
3.03619
21
-2.52458
0
LINE
8
BLACK
6
CONTINUOUS
10
3.03619
20
-2.52458
11
3.03618
21
-2.52454
0
LINE
8
BLACK
6
CONTINUOUS
10
3.03618
20
-2.52454
11
3.03613
21
-2.52428
0
LINE
8
BLACK
6
CONTINUOUS
10
3.03613
20
-2.52428
11
3.03607
21
-2.52402
0
LINE
8
BLACK
6
CONTINUOUS
10
3.03607
20
-2.52402
11
3.03447
21
-2.50873
0
LINE
8
BLACK
6
CONTINUOUS
10
3.03447
20
-2.50873
11
3.03446
21
-2.50869
0
LINE
8
BLACK
6
CONTINUOUS
10
3.03446
20
-2.50869
11
3.03446
21
-2.50856
0
LINE
8
BLACK
6
CONTINUOUS
10
3.03446
20
-2.50856
11
3.03445
21
-2.50843
0
LINE
8
BLACK
6
CONTINUOUS
10
3.03445
20
-2.50843
11
3.03445
21
-2.50802
0
LINE
8
BLACK
6
CONTINUOUS
10
3.03445
20
-2.50802
11
3.03445
21
-2.50802
0
LINE
8
BLACK
6
CONTINUOUS
10
3.03445
20
-2.50802
11
3.03445
21
-1.4882
0
LINE
8
BLACK
6
CONTINUOUS
10
3.03445
20
-1.4882
11
3.03445
21
-1.4882
0
LINE
8
BLACK
6
CONTINUOUS
10
3.03445
20
-1.4882
11
3.03445
21
-1.4878
0
LINE
8
BLACK
6
CONTINUOUS
10
3.03445
20
-1.4878
11
3.03289
21
-1.47295
0
LINE
8
BLACK
6
CONTINUOUS
10
3.03289
20
-1.47295
11
3.02851
21
-1.45883
0
LINE
8
BLACK
6
CONTINUOUS
10
3.02851
20
-1.45883
11
3.02148
21
-1.44582
0
LINE
8
BLACK
6
CONTINUOUS
10
3.02148
20
-1.44582
11
3.01205
21
-1.43442
0
LINE
8
BLACK
6
CONTINUOUS
10
3.01205
20
-1.43442
11
3.00059
21
-1.42508
0
LINE
8
BLACK
6
CONTINUOUS
10
3.00059
20
-1.42508
11
2.98754
21
-1.41813
0
LINE
8
BLACK
6
CONTINUOUS
10
2.98754
20
-1.41813
11
2.97338
21
-1.41386
0
LINE
8
BLACK
6
CONTINUOUS
10
2.97338
20
-1.41386
11
2.95852
21
-1.4124
0
LINE
8
BLACK
6
CONTINUOUS
10
2.95852
20
-1.4124
11
2.28726
21
-1.4124
0
LINE
8
BLACK
6
CONTINUOUS
10
2.28726
20
-1.4124
11
2.28711
21
-1.41239
0
LINE
8
BLACK
6
CONTINUOUS
10
2.28711
20
-1.41239
11
2.28711
21
-1.41239
0
LINE
8
BLACK
6
CONTINUOUS
10
2.28711
20
-1.41239
11
2.27182
21
-1.41089
0
LINE
8
BLACK
6
CONTINUOUS
10
2.27182
20
-1.41089
11
2.27178
21
-1.41088
0
LINE
8
BLACK
6
CONTINUOUS
10
2.27178
20
-1.41088
11
2.27152
21
-1.41083
0
LINE
8
BLACK
6
CONTINUOUS
10
2.27152
20
-1.41083
11
2.27125
21
-1.41078
0
LINE
8
BLACK
6
CONTINUOUS
10
2.27125
20
-1.41078
11
2.25654
21
-1.40633
0
LINE
8
BLACK
6
CONTINUOUS
10
2.25654
20
-1.40633
11
2.25654
21
-1.40633
0
LINE
8
BLACK
6
CONTINUOUS
10
2.25654
20
-1.40633
11
2.2565
21
-1.40632
0
LINE
8
BLACK
6
CONTINUOUS
10
2.2565
20
-1.40632
11
2.25626
21
-1.40622
0
LINE
8
BLACK
6
CONTINUOUS
10
2.25626
20
-1.40622
11
2.25601
21
-1.40611
0
LINE
8
BLACK
6
CONTINUOUS
10
2.25601
20
-1.40611
11
2.24244
21
-1.3989
0
LINE
8
BLACK
6
CONTINUOUS
10
2.24244
20
-1.3989
11
2.24244
21
-1.3989
0
LINE
8
BLACK
6
CONTINUOUS
10
2.24244
20
-1.3989
11
2.24244
21
-1.3989
0
LINE
8
BLACK
6
CONTINUOUS
10
2.24244
20
-1.3989
11
2.2424
21
-1.39888
0
LINE
8
BLACK
6
CONTINUOUS
10
2.2424
20
-1.39888
11
2.24218
21
-1.39873
0
LINE
8
BLACK
6
CONTINUOUS
10
2.24218
20
-1.39873
11
2.24196
21
-1.39858
0
LINE
8
BLACK
6
CONTINUOUS
10
2.24196
20
-1.39858
11
2.23005
21
-1.38887
0
LINE
8
BLACK
6
CONTINUOUS
10
2.23005
20
-1.38887
11
2.23002
21
-1.38884
0
LINE
8
BLACK
6
CONTINUOUS
10
2.23002
20
-1.38884
11
2.22983
21
-1.38865
0
LINE
8
BLACK
6
CONTINUOUS
10
2.22983
20
-1.38865
11
2.22964
21
-1.38846
0
LINE
8
BLACK
6
CONTINUOUS
10
2.22964
20
-1.38846
11
2.21985
21
-1.37662
0
LINE
8
BLACK
6
CONTINUOUS
10
2.21985
20
-1.37662
11
2.21985
21
-1.37662
0
LINE
8
BLACK
6
CONTINUOUS
10
2.21985
20
-1.37662
11
2.21985
21
-1.37662
0
LINE
8
BLACK
6
CONTINUOUS
10
2.21985
20
-1.37662
11
2.21982
21
-1.37659
0
LINE
8
BLACK
6
CONTINUOUS
10
2.21982
20
-1.37659
11
2.21968
21
-1.37637
0
LINE
8
BLACK
6
CONTINUOUS
10
2.21968
20
-1.37637
11
2.21953
21
-1.37614
0
LINE
8
BLACK
6
CONTINUOUS
10
2.21953
20
-1.37614
11
2.21222
21
-1.36263
0
LINE
8
BLACK
6
CONTINUOUS
10
2.21222
20
-1.36263
11
2.2122
21
-1.36259
0
LINE
8
BLACK
6
CONTINUOUS
10
2.2122
20
-1.36259
11
2.2121
21
-1.36234
0
LINE
8
BLACK
6
CONTINUOUS
10
2.2121
20
-1.36234
11
2.21199
21
-1.36209
0
LINE
8
BLACK
6
CONTINUOUS
10
2.21199
20
-1.36209
11
2.20745
21
-1.34741
0
LINE
8
BLACK
6
CONTINUOUS
10
2.20745
20
-1.34741
11
2.20744
21
-1.34738
0
LINE
8
BLACK
6
CONTINUOUS
10
2.20744
20
-1.34738
11
2.20739
21
-1.34711
0
LINE
8
BLACK
6
CONTINUOUS
10
2.20739
20
-1.34711
11
2.20733
21
-1.34685
0
LINE
8
BLACK
6
CONTINUOUS
10
2.20733
20
-1.34685
11
2.20573
21
-1.33157
0
LINE
8
BLACK
6
CONTINUOUS
10
2.20573
20
-1.33157
11
2.20572
21
-1.33153
0
LINE
8
BLACK
6
CONTINUOUS
10
2.20572
20
-1.33153
11
2.20572
21
-1.3314
0
LINE
8
BLACK
6
CONTINUOUS
10
2.20572
20
-1.3314
11
2.20571
21
-1.33127
0
LINE
8
BLACK
6
CONTINUOUS
10
2.20571
20
-1.33127
11
2.20571
21
-1.33086
0
LINE
8
BLACK
6
CONTINUOUS
10
2.20571
20
-1.33086
11
2.20571
21
-1.33085
0
LINE
8
BLACK
6
CONTINUOUS
10
2.20571
20
-1.33085
11
2.20571
21
-1.33073
0
LINE
8
BLACK
6
CONTINUOUS
10
2.20571
20
-1.33073
11
2.20571
21
-1.33072
0
LINE
8
BLACK
6
CONTINUOUS
10
2.20571
20
-1.33072
11
2.20571
21
-1.33071
0
LINE
8
BLACK
6
CONTINUOUS
10
2.20571
20
-1.33071
11
2.20571
21
-1.11261
0
LINE
8
BLACK
6
CONTINUOUS
10
2.20571
20
-1.11261
11
2.20571
21
-1.11221
0
LINE
8
BLACK
6
CONTINUOUS
10
2.20571
20
-1.11221
11
2.20415
21
-1.09736
0
LINE
8
BLACK
6
CONTINUOUS
10
2.20415
20
-1.09736
11
2.19977
21
-1.08324
0
LINE
8
BLACK
6
CONTINUOUS
10
2.19977
20
-1.08324
11
2.19274
21
-1.07023
0
LINE
8
BLACK
6
CONTINUOUS
10
2.19274
20
-1.07023
11
2.18331
21
-1.05883
0
LINE
8
BLACK
6
CONTINUOUS
10
2.18331
20
-1.05883
11
2.17185
21
-1.04949
0
LINE
8
BLACK
6
CONTINUOUS
10
2.17185
20
-1.04949
11
2.1588
21
-1.04254
0
LINE
8
BLACK
6
CONTINUOUS
10
2.1588
20
-1.04254
11
2.14464
21
-1.03827
0
LINE
8
BLACK
6
CONTINUOUS
10
2.14464
20
-1.03827
11
2.12978
21
-1.03681
0
LINE
8
BLACK
6
CONTINUOUS
10
2.12978
20
-1.03681
11
1.57875
21
-1.03681
0
LINE
8
BLACK
6
CONTINUOUS
10
1.57875
20
-1.03681
11
1.57835
21
-1.03681
0
LINE
8
BLACK
6
CONTINUOUS
10
1.57835
20
-1.03681
11
1.5635
21
-1.03837
0
LINE
8
BLACK
6
CONTINUOUS
10
1.5635
20
-1.03837
11
1.54938
21
-1.04275
0
LINE
8
BLACK
6
CONTINUOUS
10
1.54938
20
-1.04275
11
1.53637
21
-1.04978
0
LINE
8
BLACK
6
CONTINUOUS
10
1.53637
20
-1.04978
11
1.52497
21
-1.05921
0
LINE
8
BLACK
6
CONTINUOUS
10
1.52497
20
-1.05921
11
1.51563
21
-1.07067
0
LINE
8
BLACK
6
CONTINUOUS
10
1.51563
20
-1.07067
11
1.50868
21
-1.08372
0
LINE
8
BLACK
6
CONTINUOUS
10
1.50868
20
-1.08372
11
1.50441
21
-1.09788
0
LINE
8
BLACK
6
CONTINUOUS
10
1.50441
20
-1.09788
11
1.50295
21
-1.11274
0
LINE
8
BLACK
6
CONTINUOUS
10
1.50295
20
-1.11274
11
1.50295
21
-1.14306
0
LINE
8
BLACK
6
CONTINUOUS
10
1.50295
20
-1.14306
11
1.50294
21
-1.1432
0
LINE
8
BLACK
6
CONTINUOUS
10
1.50294
20
-1.1432
11
1.50294
21
-1.1432
0
LINE
8
BLACK
6
CONTINUOUS
10
1.50294
20
-1.1432
11
1.50144
21
-1.1585
0
LINE
8
BLACK
6
CONTINUOUS
10
1.50144
20
-1.1585
11
1.50143
21
-1.15854
0
LINE
8
BLACK
6
CONTINUOUS
10
1.50143
20
-1.15854
11
1.50138
21
-1.1588
0
LINE
8
BLACK
6
CONTINUOUS
10
1.50138
20
-1.1588
11
1.50133
21
-1.15906
0
LINE
8
BLACK
6
CONTINUOUS
10
1.50133
20
-1.15906
11
1.49689
21
-1.17377
0
LINE
8
BLACK
6
CONTINUOUS
10
1.49689
20
-1.17377
11
1.49687
21
-1.17381
0
LINE
8
BLACK
6
CONTINUOUS
10
1.49687
20
-1.17381
11
1.49677
21
-1.17406
0
LINE
8
BLACK
6
CONTINUOUS
10
1.49677
20
-1.17406
11
1.49667
21
-1.17431
0
LINE
8
BLACK
6
CONTINUOUS
10
1.49667
20
-1.17431
11
1.48945
21
-1.18787
0
LINE
8
BLACK
6
CONTINUOUS
10
1.48945
20
-1.18787
11
1.48945
21
-1.18787
0
LINE
8
BLACK
6
CONTINUOUS
10
1.48945
20
-1.18787
11
1.48945
21
-1.18787
0
LINE
8
BLACK
6
CONTINUOUS
10
1.48945
20
-1.18787
11
1.48943
21
-1.18791
0
LINE
8
BLACK
6
CONTINUOUS
10
1.48943
20
-1.18791
11
1.48928
21
-1.18813
0
LINE
8
BLACK
6
CONTINUOUS
10
1.48928
20
-1.18813
11
1.48913
21
-1.18835
0
LINE
8
BLACK
6
CONTINUOUS
10
1.48913
20
-1.18835
11
1.47942
21
-1.20026
0
LINE
8
BLACK
6
CONTINUOUS
10
1.47942
20
-1.20026
11
1.47939
21
-1.20029
0
LINE
8
BLACK
6
CONTINUOUS
10
1.47939
20
-1.20029
11
1.4792
21
-1.20048
0
LINE
8
BLACK
6
CONTINUOUS
10
1.4792
20
-1.20048
11
1.47901
21
-1.20067
0
LINE
8
BLACK
6
CONTINUOUS
10
1.47901
20
-1.20067
11
1.46717
21
-1.21047
0
LINE
8
BLACK
6
CONTINUOUS
10
1.46717
20
-1.21047
11
1.46717
21
-1.21047
0
LINE
8
BLACK
6
CONTINUOUS
10
1.46717
20
-1.21047
11
1.46717
21
-1.21047
0
LINE
8
BLACK
6
CONTINUOUS
10
1.46717
20
-1.21047
11
1.46714
21
-1.21049
0
LINE
8
BLACK
6
CONTINUOUS
10
1.46714
20
-1.21049
11
1.46692
21
-1.21064
0
LINE
8
BLACK
6
CONTINUOUS
10
1.46692
20
-1.21064
11
1.4667
21
-1.21079
0
LINE
8
BLACK
6
CONTINUOUS
10
1.4667
20
-1.21079
11
1.45318
21
-1.2181
0
LINE
8
BLACK
6
CONTINUOUS
10
1.45318
20
-1.2181
11
1.45314
21
-1.21812
0
LINE
8
BLACK
6
CONTINUOUS
10
1.45314
20
-1.21812
11
1.45289
21
-1.21822
0
LINE
8
BLACK
6
CONTINUOUS
10
1.45289
20
-1.21822
11
1.45265
21
-1.21832
0
LINE
8
BLACK
6
CONTINUOUS
10
1.45265
20
-1.21832
11
1.43797
21
-1.22287
0
LINE
8
BLACK
6
CONTINUOUS
10
1.43797
20
-1.22287
11
1.43793
21
-1.22288
0
LINE
8
BLACK
6
CONTINUOUS
10
1.43793
20
-1.22288
11
1.43766
21
-1.22293
0
LINE
8
BLACK
6
CONTINUOUS
10
1.43766
20
-1.22293
11
1.4374
21
-1.22298
0
LINE
8
BLACK
6
CONTINUOUS
10
1.4374
20
-1.22298
11
1.42212
21
-1.22459
0
LINE
8
BLACK
6
CONTINUOUS
10
1.42212
20
-1.22459
11
1.42208
21
-1.22459
0
LINE
8
BLACK
6
CONTINUOUS
10
1.42208
20
-1.22459
11
1.42195
21
-1.22459
0
LINE
8
BLACK
6
CONTINUOUS
10
1.42195
20
-1.22459
11
1.42182
21
-1.2246
0
LINE
8
BLACK
6
CONTINUOUS
10
1.42182
20
-1.2246
11
1.42141
21
-1.22461
0
LINE
8
BLACK
6
CONTINUOUS
10
1.42141
20
-1.22461
11
1.4214
21
-1.22461
0
LINE
8
BLACK
6
CONTINUOUS
10
1.4214
20
-1.22461
11
0.828751
21
-1.22461
0
LINE
8
BLACK
6
CONTINUOUS
10
0.828751
20
-1.22461
11
0.82835
21
-1.22461
0
LINE
8
BLACK
6
CONTINUOUS
10
0.82835
20
-1.22461
11
0.813504
21
-1.22617
0
LINE
8
BLACK
6
CONTINUOUS
10
0.813504
20
-1.22617
11
0.799377
21
-1.23054
0
LINE
8
BLACK
6
CONTINUOUS
10
0.799377
20
-1.23054
11
0.786368
21
-1.23757
0
LINE
8
BLACK
6
CONTINUOUS
10
0.786368
20
-1.23757
11
0.774974
21
-1.247
0
LINE
8
BLACK
6
CONTINUOUS
10
0.774974
20
-1.247
11
0.765627
21
-1.25846
0
LINE
8
BLACK
6
CONTINUOUS
10
0.765627
20
-1.25846
11
0.758684
21
-1.27152
0
LINE
8
BLACK
6
CONTINUOUS
10
0.758684
20
-1.27152
11
0.75441
21
-1.28568
0
LINE
8
BLACK
6
CONTINUOUS
10
0.75441
20
-1.28568
11
0.752953
21
-1.30054
0
LINE
8
BLACK
6
CONTINUOUS
10
0.752953
20
-1.30054
11
0.752953
21
-1.51786
0
LINE
8
BLACK
6
CONTINUOUS
10
0.752953
20
-1.51786
11
0.752939
21
-1.518
0
LINE
8
BLACK
6
CONTINUOUS
10
0.752939
20
-1.518
11
0.752939
21
-1.518
0
LINE
8
BLACK
6
CONTINUOUS
10
0.752939
20
-1.518
11
0.751439
21
-1.5333
0
LINE
8
BLACK
6
CONTINUOUS
10
0.751439
20
-1.5333
11
0.751435
21
-1.53334
0
LINE
8
BLACK
6
CONTINUOUS
10
0.751435
20
-1.53334
11
0.751379
21
-1.5336
0
LINE
8
BLACK
6
CONTINUOUS
10
0.751379
20
-1.5336
11
0.751327
21
-1.53386
0
LINE
8
BLACK
6
CONTINUOUS
10
0.751327
20
-1.53386
11
0.746885
21
-1.54858
0
LINE
8
BLACK
6
CONTINUOUS
10
0.746885
20
-1.54858
11
0.746873
21
-1.54861
0
LINE
8
BLACK
6
CONTINUOUS
10
0.746873
20
-1.54861
11
0.746768
21
-1.54886
0
LINE
8
BLACK
6
CONTINUOUS
10
0.746768
20
-1.54886
11
0.746666
21
-1.54911
0
LINE
8
BLACK
6
CONTINUOUS
10
0.746666
20
-1.54911
11
0.739451
21
-1.56268
0
LINE
8
BLACK
6
CONTINUOUS
10
0.739451
20
-1.56268
11
0.739451
21
-1.56268
0
LINE
8
BLACK
6
CONTINUOUS
10
0.739451
20
-1.56268
11
0.739451
21
-1.56268
0
LINE
8
BLACK
6
CONTINUOUS
10
0.739451
20
-1.56268
11
0.739432
21
-1.56271
0
LINE
8
BLACK
6
CONTINUOUS
10
0.739432
20
-1.56271
11
0.739281
21
-1.56293
0
LINE
8
BLACK
6
CONTINUOUS
10
0.739281
20
-1.56293
11
0.739132
21
-1.56316
0
LINE
8
BLACK
6
CONTINUOUS
10
0.739132
20
-1.56316
11
0.72942
21
-1.57507
0
LINE
8
BLACK
6
CONTINUOUS
10
0.72942
20
-1.57507
11
0.729394
21
-1.5751
0
LINE
8
BLACK
6
CONTINUOUS
10
0.729394
20
-1.5751
11
0.729203
21
-1.57528
0
LINE
8
BLACK
6
CONTINUOUS
10
0.729203
20
-1.57528
11
0.729014
21
-1.57547
0
LINE
8
BLACK
6
CONTINUOUS
10
0.729014
20
-1.57547
11
0.717173
21
-1.58527
0
LINE
8
BLACK
6
CONTINUOUS
10
0.717173
20
-1.58527
11
0.717173
21
-1.58527
0
LINE
8
BLACK
6
CONTINUOUS
10
0.717173
20
-1.58527
11
0.717173
21
-1.58527
0
LINE
8
BLACK
6
CONTINUOUS
10
0.717173
20
-1.58527
11
0.717141
21
-1.5853
0
LINE
8
BLACK
6
CONTINUOUS
10
0.717141
20
-1.5853
11
0.716918
21
-1.58544
0
LINE
8
BLACK
6
CONTINUOUS
10
0.716918
20
-1.58544
11
0.716695
21
-1.58559
0
LINE
8
BLACK
6
CONTINUOUS
10
0.716695
20
-1.58559
11
0.703177
21
-1.5929
0
LINE
8
BLACK
6
CONTINUOUS
10
0.703177
20
-1.5929
11
0.703141
21
-1.59292
0
LINE
8
BLACK
6
CONTINUOUS
10
0.703141
20
-1.59292
11
0.702894
21
-1.59302
0
LINE
8
BLACK
6
CONTINUOUS
10
0.702894
20
-1.59302
11
0.702646
21
-1.59312
0
LINE
8
BLACK
6
CONTINUOUS
10
0.702646
20
-1.59312
11
0.687966
21
-1.59767
0
LINE
8
BLACK
6
CONTINUOUS
10
0.687966
20
-1.59767
11
0.687926
21
-1.59768
0
LINE
8
BLACK
6
CONTINUOUS
10
0.687926
20
-1.59768
11
0.687663
21
-1.59773
0
LINE
8
BLACK
6
CONTINUOUS
10
0.687663
20
-1.59773
11
0.687401
21
-1.59779
0
LINE
8
BLACK
6
CONTINUOUS
10
0.687401
20
-1.59779
11
0.672118
21
-1.59939
0
LINE
8
BLACK
6
CONTINUOUS
10
0.672118
20
-1.59939
11
0.672077
21
-1.5994
0
LINE
8
BLACK
6
CONTINUOUS
10
0.672077
20
-1.5994
11
0.671948
21
-1.59939
0
LINE
8
BLACK
6
CONTINUOUS
10
0.671948
20
-1.59939
11
0.67182
21
-1.59941
0
LINE
8
BLACK
6
CONTINUOUS
10
0.67182
20
-1.59941
11
0.671409
21
-1.59941
0
LINE
8
BLACK
6
CONTINUOUS
10
0.671409
20
-1.59941
11
0.671405
21
-1.59941
0
LINE
8
BLACK
6
CONTINUOUS
10
0.671405
20
-1.59941
11
0.0785955
21
-1.59941
0
LINE
8
BLACK
6
CONTINUOUS
10
0.0785955
20
-1.59941
11
0.0784524
21
-1.5994
0
LINE
8
BLACK
6
CONTINUOUS
10
0.0784524
20
-1.5994
11
0.078452
21
-1.5994
0
LINE
8
BLACK
6
CONTINUOUS
10
0.078452
20
-1.5994
11
0.063158
21
-1.5979
0
LINE
8
BLACK
6
CONTINUOUS
10
0.063158
20
-1.5979
11
0.063117
21
-1.59789
0
LINE
8
BLACK
6
CONTINUOUS
10
0.063117
20
-1.59789
11
0.0628555
21
-1.59784
0
LINE
8
BLACK
6
CONTINUOUS
10
0.0628555
20
-1.59784
11
0.0625926
21
-1.59778
0
LINE
8
BLACK
6
CONTINUOUS
10
0.0625926
20
-1.59778
11
0.0478813
21
-1.59334
0
LINE
8
BLACK
6
CONTINUOUS
10
0.0478813
20
-1.59334
11
0.047881
21
-1.59334
0
LINE
8
BLACK
6
CONTINUOUS
10
0.047881
20
-1.59334
11
0.0478418
21
-1.59333
0
LINE
8
BLACK
6
CONTINUOUS
10
0.0478418
20
-1.59333
11
0.0475956
21
-1.59322
0
LINE
8
BLACK
6
CONTINUOUS
10
0.0475956
20
-1.59322
11
0.0473483
21
-1.59312
0
LINE
8
BLACK
6
CONTINUOUS
10
0.0473483
20
-1.59312
11
0.0337799
21
-1.58591
0
LINE
8
BLACK
6
CONTINUOUS
10
0.0337799
20
-1.58591
11
0.0337798
21
-1.58591
0
LINE
8
BLACK
6
CONTINUOUS
10
0.0337798
20
-1.58591
11
0.0337796
21
-1.58591
0
LINE
8
BLACK
6
CONTINUOUS
10
0.0337796
20
-1.58591
11
0.0337435
21
-1.58589
0
LINE
8
BLACK
6
CONTINUOUS
10
0.0337435
20
-1.58589
11
0.0335231
21
-1.58574
0
LINE
8
BLACK
6
CONTINUOUS
10
0.0335231
20
-1.58574
11
0.0332998
21
-1.58559
0
LINE
8
BLACK
6
CONTINUOUS
10
0.0332998
20
-1.58559
11
0.0213909
21
-1.57588
0
LINE
8
BLACK
6
CONTINUOUS
10
0.0213909
20
-1.57588
11
0.0213592
21
-1.57585
0
LINE
8
BLACK
6
CONTINUOUS
10
0.0213592
20
-1.57585
11
0.0211724
21
-1.57566
0
LINE
8
BLACK
6
CONTINUOUS
10
0.0211724
20
-1.57566
11
0.020982
21
-1.57547
0
LINE
8
BLACK
6
CONTINUOUS
10
0.020982
20
-1.57547
11
0.0111867
21
-1.56363
0
LINE
8
BLACK
6
CONTINUOUS
10
0.0111867
20
-1.56363
11
0.0111865
21
-1.56363
0
LINE
8
BLACK
6
CONTINUOUS
10
0.0111865
20
-1.56363
11
0.0111863
21
-1.56363
0
LINE
8
BLACK
6
CONTINUOUS
10
0.0111863
20
-1.56363
11
0.0111604
21
-1.5636
0
LINE
8
BLACK
6
CONTINUOUS
10
0.0111604
20
-1.5636
11
0.0110144
21
-1.56337
0
LINE
8
BLACK
6
CONTINUOUS
10
0.0110144
20
-1.56337
11
0.0108642
21
-1.56315
0
LINE
8
BLACK
6
CONTINUOUS
10
0.0108642
20
-1.56315
11
0.00355512
21
-1.54963
0
LINE
8
BLACK
6
CONTINUOUS
10
0.00355512
20
-1.54963
11
0.00353579
21
-1.5496
0
LINE
8
BLACK
6
CONTINUOUS
10
0.00353579
20
-1.5496
11
0.00343614
21
-1.54935
0
LINE
8
BLACK
6
CONTINUOUS
10
0.00343614
20
-1.54935
11
0.00333181
21
-1.5491
0
LINE
8
BLACK
6
CONTINUOUS
10
0.00333181
20
-1.5491
11
-0.00121244
21
-1.53442
0
LINE
8
BLACK
6
CONTINUOUS
10
-0.00121244
20
-1.53442
11
-0.00122437
21
-1.53438
0
LINE
8
BLACK
6
CONTINUOUS
10
-0.00122437
20
-1.53438
11
-0.00127465
21
-1.53412
0
LINE
8
BLACK
6
CONTINUOUS
10
-0.00127465
20
-1.53412
11
-0.00132831
21
-1.53386
0
LINE
8
BLACK
6
CONTINUOUS
10
-0.00132831
20
-1.53386
11
-0.00293465
21
-1.51857
0
LINE
8
BLACK
6
CONTINUOUS
10
-0.00293465
20
-1.51857
11
-0.0029387
21
-1.51853
0
LINE
8
BLACK
6
CONTINUOUS
10
-0.0029387
20
-1.51853
11
-0.0029378
21
-1.5184
0
LINE
8
BLACK
6
CONTINUOUS
10
-0.0029378
20
-1.5184
11
-0.00295083
21
-1.51828
0
LINE
8
BLACK
6
CONTINUOUS
10
-0.00295083
20
-1.51828
11
-0.00295228
21
-1.51787
0
LINE
8
BLACK
6
CONTINUOUS
10
-0.00295228
20
-1.51787
11
-0.00295272
21
-1.51786
0
LINE
8
BLACK
6
CONTINUOUS
10
-0.00295272
20
-1.51786
11
-0.00295272
21
-1.51774
0
LINE
8
BLACK
6
CONTINUOUS
10
-0.00295272
20
-1.51774
11
-0.00295276
21
-1.51773
0
LINE
8
BLACK
6
CONTINUOUS
10
-0.00295276
20
-1.51773
11
-0.00295272
21
-1.51772
0
LINE
8
BLACK
6
CONTINUOUS
10
-0.00295272
20
-1.51772
11
-0.00295276
21
0.484003
0
LINE
8
BLACK
6
CONTINUOUS
10
-0.00295276
20
0.484003
11
-0.00293866
21
0.484146
0
LINE
8
BLACK
6
CONTINUOUS
10
-0.00293866
20
0.484146
11
-0.00293866
21
0.484146
0
LINE
8
BLACK
6
CONTINUOUS
10
-0.00293866
20
0.484146
11
-0.00143909
21
0.49944
0
LINE
8
BLACK
6
CONTINUOUS
10
-0.00143909
20
0.49944
11
-0.00143909
21
0.49944
0
LINE
8
BLACK
6
CONTINUOUS
10
-0.00143909
20
0.49944
11
-0.00143902
21
0.499441
0
LINE
8
BLACK
6
CONTINUOUS
10
-0.00143902
20
0.499441
11
-0.00143476
21
0.499481
0
LINE
8
BLACK
6
CONTINUOUS
10
-0.00143476
20
0.499481
11
-0.00137933
21
0.499742
0
LINE
8
BLACK
6
CONTINUOUS
10
-0.00137933
20
0.499742
11
-0.00132713
21
0.500006
0
LINE
8
BLACK
6
CONTINUOUS
10
-0.00132713
20
0.500006
11
0.00311453
21
0.514717
0
LINE
8
BLACK
6
CONTINUOUS
10
0.00311453
20
0.514717
11
0.00312669
21
0.514757
0
LINE
8
BLACK
6
CONTINUOUS
10
0.00312669
20
0.514757
11
0.00323244
21
0.515003
0
LINE
8
BLACK
6
CONTINUOUS
10
0.00323244
20
0.515003
11
0.00333413
21
0.51525
0
LINE
8
BLACK
6
CONTINUOUS
10
0.00333413
20
0.51525
11
0.0105485
21
0.528818
0
LINE
8
BLACK
6
CONTINUOUS
10
0.0105485
20
0.528818
11
0.0105487
21
0.528819
0
LINE
8
BLACK
6
CONTINUOUS
10
0.0105487
20
0.528819
11
0.0105489
21
0.528819
0
LINE
8
BLACK
6
CONTINUOUS
10
0.0105489
20
0.528819
11
0.0105683
21
0.528855
0
LINE
8
BLACK
6
CONTINUOUS
10
0.0105683
20
0.528855
11
0.0107194
21
0.529076
0
LINE
8
BLACK
6
CONTINUOUS
10
0.0107194
20
0.529076
11
0.0108676
21
0.529299
0
LINE
8
BLACK
6
CONTINUOUS
10
0.0108676
20
0.529299
11
0.0205802
21
0.541207
0
LINE
8
BLACK
6
CONTINUOUS
10
0.0205802
20
0.541207
11
0.0206065
21
0.541239
0
LINE
8
BLACK
6
CONTINUOUS
10
0.0206065
20
0.541239
11
0.0207987
21
0.541427
0
LINE
8
BLACK
6
CONTINUOUS
10
0.0207987
20
0.541427
11
0.0209863
21
0.541616
0
LINE
8
BLACK
6
CONTINUOUS
10
0.0209863
20
0.541616
11
0.0328268
21
0.551412
0
LINE
8
BLACK
6
CONTINUOUS
10
0.0328268
20
0.551412
11
0.032827
21
0.551412
0
LINE
8
BLACK
6
CONTINUOUS
10
0.032827
20
0.551412
11
0.0328273
21
0.551412
0
LINE
8
BLACK
6
CONTINUOUS
10
0.0328273
20
0.551412
11
0.032859
21
0.551438
0
LINE
8
BLACK
6
CONTINUOUS
10
0.032859
20
0.551438
11
0.0330822
21
0.551584
0
LINE
8
BLACK
6
CONTINUOUS
10
0.0330822
20
0.551584
11
0.0333048
21
0.551734
0
LINE
8
BLACK
6
CONTINUOUS
10
0.0333048
20
0.551734
11
0.0468227
21
0.559043
0
LINE
8
BLACK
6
CONTINUOUS
10
0.0468227
20
0.559043
11
0.0468591
21
0.559063
0
LINE
8
BLACK
6
CONTINUOUS
10
0.0468591
20
0.559063
11
0.0471071
21
0.559163
0
LINE
8
BLACK
6
CONTINUOUS
10
0.0471071
20
0.559163
11
0.047354
21
0.559267
0
LINE
8
BLACK
6
CONTINUOUS
10
0.047354
20
0.559267
11
0.0620339
21
0.563811
0
LINE
8
BLACK
6
CONTINUOUS
10
0.0620339
20
0.563811
11
0.0620342
21
0.563811
0
LINE
8
BLACK
6
CONTINUOUS
10
0.0620342
20
0.563811
11
0.0620735
21
0.563823
0
LINE
8
BLACK
6
CONTINUOUS
10
0.0620735
20
0.563823
11
0.0623367
21
0.563873
0
LINE
8
BLACK
6
CONTINUOUS
10
0.0623367
20
0.563873
11
0.0625986
21
0.563927
0
LINE
8
BLACK
6
CONTINUOUS
10
0.0625986
20
0.563927
11
0.0778818
21
0.565533
0
LINE
8
BLACK
6
CONTINUOUS
10
0.0778818
20
0.565533
11
0.0779228
21
0.565537
0
LINE
8
BLACK
6
CONTINUOUS
10
0.0779228
20
0.565537
11
0.0780518
21
0.565536
0
LINE
8
BLACK
6
CONTINUOUS
10
0.0780518
20
0.565536
11
0.0781801
21
0.565549
0
LINE
8
BLACK
6
CONTINUOUS
10
0.0781801
20
0.565549
11
0.0785905
21
0.565551
0
LINE
8
BLACK
6
CONTINUOUS
10
0.0785905
20
0.565551
11
0.0785955
21
0.565551
0
LINE
8
BLACK
6
CONTINUOUS
10
0.0785955
20
0.565551
11
3.85841
21
0.565551
0
LINE
8
BLACK
6
CONTINUOUS
10
3.85841
20
0.565551
11
3.85856
21
0.565537
0
LINE
8
BLACK
6
CONTINUOUS
10
3.85856
20
0.565537
11
3.85856
21
0.565537
0
LINE
8
BLACK
6
CONTINUOUS
10
3.85856
20
0.565537
11
3.87385
21
0.564038
0
LINE
8
BLACK
6
CONTINUOUS
10
3.87385
20
0.564038
11
3.87385
21
0.564038
0
LINE
8
BLACK
6
CONTINUOUS
10
3.87385
20
0.564038
11
3.87385
21
0.564037
0
LINE
8
BLACK
6
CONTINUOUS
10
3.87385
20
0.564037
11
3.87389
21
0.564033
0
LINE
8
BLACK
6
CONTINUOUS
10
3.87389
20
0.564033
11
3.87415
21
0.563978
0
LINE
8
BLACK
6
CONTINUOUS
10
3.87415
20
0.563978
11
3.87442
21
0.563926
0
LINE
8
BLACK
6
CONTINUOUS
10
3.87442
20
0.563926
11
3.88913
21
0.559484
0
LINE
8
BLACK
6
CONTINUOUS
10
3.88913
20
0.559484
11
3.88917
21
0.559472
0
LINE
8
BLACK
6
CONTINUOUS
10
3.88917
20
0.559472
11
3.88941
21
0.559366
0
LINE
8
BLACK
6
CONTINUOUS
10
3.88941
20
0.559366
11
3.88966
21
0.559264
0
LINE
8
BLACK
6
CONTINUOUS
10
3.88966
20
0.559264
11
3.90323
21
0.55205
0
LINE
8
BLACK
6
CONTINUOUS
10
3.90323
20
0.55205
11
3.90323
21
0.55205
0
LINE
8
BLACK
6
CONTINUOUS
10
3.90323
20
0.55205
11
3.90323
21
0.55205
0
LINE
8
BLACK
6
CONTINUOUS
10
3.90323
20
0.55205
11
3.90326
21
0.55203
0
LINE
8
BLACK
6
CONTINUOUS
10
3.90326
20
0.55203
11
3.90349
21
0.551879
0
LINE
8
BLACK
6
CONTINUOUS
10
3.90349
20
0.551879
11
3.90371
21
0.551731
0
LINE
8
BLACK
6
CONTINUOUS
10
3.90371
20
0.551731
11
3.91562
21
0.542018
0
LINE
8
BLACK
6
CONTINUOUS
10
3.91562
20
0.542018
11
3.91565
21
0.541992
0
LINE
8
BLACK
6
CONTINUOUS
10
3.91565
20
0.541992
11
3.91584
21
0.5418
0
LINE
8
BLACK
6
CONTINUOUS
10
3.91584
20
0.5418
11
3.91603
21
0.541612
0
LINE
8
BLACK
6
CONTINUOUS
10
3.91603
20
0.541612
11
3.92582
21
0.529772
0
LINE
8
BLACK
6
CONTINUOUS
10
3.92582
20
0.529772
11
3.92582
21
0.529771
0
LINE
8
BLACK
6
CONTINUOUS
10
3.92582
20
0.529771
11
3.92582
21
0.529771
0
LINE
8
BLACK
6
CONTINUOUS
10
3.92582
20
0.529771
11
3.92585
21
0.529739
0
LINE
8
BLACK
6
CONTINUOUS
10
3.92585
20
0.529739
11
3.92599
21
0.529516
0
LINE
8
BLACK
6
CONTINUOUS
10
3.92599
20
0.529516
11
3.92614
21
0.529294
0
LINE
8
BLACK
6
CONTINUOUS
10
3.92614
20
0.529294
11
3.93345
21
0.515776
0
LINE
8
BLACK
6
CONTINUOUS
10
3.93345
20
0.515776
11
3.93347
21
0.515739
0
LINE
8
BLACK
6
CONTINUOUS
10
3.93347
20
0.515739
11
3.93357
21
0.515491
0
LINE
8
BLACK
6
CONTINUOUS
10
3.93357
20
0.515491
11
3.93368
21
0.515244
0
LINE
8
BLACK
6
CONTINUOUS
10
3.93368
20
0.515244
11
3.93822
21
0.500564
0
LINE
8
BLACK
6
CONTINUOUS
10
3.93822
20
0.500564
11
3.93823
21
0.500525
0
LINE
8
BLACK
6
CONTINUOUS
10
3.93823
20
0.500525
11
3.93828
21
0.500262
0
LINE
8
BLACK
6
CONTINUOUS
10
3.93828
20
0.500262
11
3.93834
21
0.5
0
LINE
8
BLACK
6
CONTINUOUS
10
3.93834
20
0.5
11
3.93994
21
0.484717
0
LINE
8
BLACK
6
CONTINUOUS
10
3.93994
20
0.484717
11
3.93995
21
0.484676
0
LINE
8
BLACK
6
CONTINUOUS
10
3.93995
20
0.484676
11
3.93995
21
0.484547
0
LINE
8
BLACK
6
CONTINUOUS
10
3.93995
20
0.484547
11
3.93996
21
0.484418
0
LINE
8
BLACK
6
CONTINUOUS
10
3.93996
20
0.484418
11
3.93996
21
0.484008
0
LINE
8
BLACK
6
CONTINUOUS
10
3.93996
20
0.484008
11
3.93996
21
0.484003
0
LINE
8
BLACK
6
CONTINUOUS
10
3.93996
20
0.484003
11
3.93996
21
-1.81285
0
LINE
8
BLACK
6
CONTINUOUS
10
3.93996
20
-1.81285
11
3.93997
21
-1.81299
0
LINE
8
BLACK
6
CONTINUOUS
10
3.93997
20
-1.81299
11
3.93992
21
-1.81357
0
LINE
8
BLACK
6
CONTINUOUS
10
3.93992
20
-1.81357
11
3.93975
21
-1.81413
0
LINE
8
BLACK
6
CONTINUOUS
10
3.93975
20
-1.81413
11
3.93947
21
-1.81464
0
LINE
8
BLACK
6
CONTINUOUS
10
3.93947
20
-1.81464
11
3.93911
21
-1.81509
0
LINE
8
BLACK
6
CONTINUOUS
10
3.93911
20
-1.81509
11
3.93866
21
-1.81546
0
LINE
8
BLACK
6
CONTINUOUS
10
3.93866
20
-1.81546
11
3.93814
21
-1.81573
0
LINE
8
BLACK
6
CONTINUOUS
10
3.93814
20
-1.81573
11
3.93759
21
-1.8159
0
LINE
8
BLACK
6
CONTINUOUS
10
3.93759
20
-1.8159
11
3.93715
21
-1.81594
0
LINE
8
BLACK
6
CONTINUOUS
10
3.93715
20
-1.81594
11
3.93701
21
-1.81596
0
LINE
8
BLACK
6
CONTINUOUS
10
3.93701
20
-1.81596
11
3.93686
21
-1.81594
0
LINE
8
BLACK
6
CONTINUOUS
10
3.93686
20
-1.81594
11
3.25098
21
-1.81594
0
LINE
8
BLACK
6
CONTINUOUS
10
3.25098
20
-1.81594
11
3.25098
21
-2.38878
0
LINE
8
BLACK
6
CONTINUOUS
10
3.25098
20
-2.38878
11
3.93686
21
-2.38878
0
LINE
8
BLACK
6
CONTINUOUS
10
3.93686
20
-2.38878
11
3.93701
21
-2.38877
0
LINE
8
BLACK
6
CONTINUOUS
10
3.93701
20
-2.38877
11
3.93715
21
-2.38878
0
LINE
8
BLACK
6
CONTINUOUS
10
3.93715
20
-2.38878
11
3.93759
21
-2.38882
0
LINE
8
BLACK
6
CONTINUOUS
10
3.93759
20
-2.38882
11
3.93814
21
-2.38899
0
LINE
8
BLACK
6
CONTINUOUS
10
3.93814
20
-2.38899
11
3.93866
21
-2.38927
0
LINE
8
BLACK
6
CONTINUOUS
10
3.93866
20
-2.38927
11
3.93911
21
-2.38963
0
LINE
8
BLACK
6
CONTINUOUS
10
3.93911
20
-2.38963
11
3.93947
21
-2.39008
0
LINE
8
BLACK
6
CONTINUOUS
10
3.93947
20
-2.39008
11
3.93975
21
-2.3906
0
LINE
8
BLACK
6
CONTINUOUS
10
3.93975
20
-2.3906
11
3.93992
21
-2.39115
0
LINE
8
BLACK
6
CONTINUOUS
10
3.93992
20
-2.39115
11
3.93997
21
-2.39173
0
LINE
8
BLACK
6
CONTINUOUS
10
3.93997
20
-2.39173
11
3.93996
21
-2.39188
0
LINE
8
BLACK
6
CONTINUOUS
10
3.93996
20
-2.39188
11
3.93996
21
-2.50802
0
LINE
8
BLACK
6
CONTINUOUS
10
3.93996
20
-2.50802
11
3.93995
21
-2.50816
0
LINE
8
BLACK
6
CONTINUOUS
10
3.93995
20
-2.50816
11
3.93995
21
-2.50816
0
LINE
8
BLACK
6
CONTINUOUS
10
3.93995
20
-2.50816
11
3.93845
21
-2.52346
0
LINE
8
BLACK
6
CONTINUOUS
10
3.93845
20
-2.52346
11
3.93844
21
-2.5235
0
LINE
8
BLACK
6
CONTINUOUS
10
3.93844
20
-2.5235
11
3.93839
21
-2.52376
0
LINE
8
BLACK
6
CONTINUOUS
10
3.93839
20
-2.52376
11
3.93833
21
-2.52402
0
LINE
8
BLACK
6
CONTINUOUS
10
3.93833
20
-2.52402
11
3.93389
21
-2.53873
0
LINE
8
BLACK
6
CONTINUOUS
10
3.93389
20
-2.53873
11
3.93388
21
-2.53877
0
LINE
8
BLACK
6
CONTINUOUS
10
3.93388
20
-2.53877
11
3.93378
21
-2.53902
0
LINE
8
BLACK
6
CONTINUOUS
10
3.93378
20
-2.53902
11
3.93367
21
-2.53927
0
LINE
8
BLACK
6
CONTINUOUS
10
3.93367
20
-2.53927
11
3.92646
21
-2.55283
0
LINE
8
BLACK
6
CONTINUOUS
10
3.92646
20
-2.55283
11
3.92646
21
-2.55283
0
LINE
8
BLACK
6
CONTINUOUS
10
3.92646
20
-2.55283
11
3.92646
21
-2.55283
0
LINE
8
BLACK
6
CONTINUOUS
10
3.92646
20
-2.55283
11
3.92644
21
-2.55287
0
LINE
8
BLACK
6
CONTINUOUS
10
3.92644
20
-2.55287
11
3.92629
21
-2.55309
0
LINE
8
BLACK
6
CONTINUOUS
10
3.92629
20
-2.55309
11
3.92614
21
-2.55331
0
LINE
8
BLACK
6
CONTINUOUS
10
3.92614
20
-2.55331
11
3.91643
21
-2.56522
0
LINE
8
BLACK
6
CONTINUOUS
10
3.91643
20
-2.56522
11
3.9164
21
-2.56526
0
LINE
8
BLACK
6
CONTINUOUS
10
3.9164
20
-2.56526
11
3.91621
21
-2.56544
0
LINE
8
BLACK
6
CONTINUOUS
10
3.91621
20
-2.56544
11
3.91602
21
-2.56563
0
LINE
8
BLACK
6
CONTINUOUS
10
3.91602
20
-2.56563
11
3.90418
21
-2.57543
0
LINE
8
BLACK
6
CONTINUOUS
10
3.90418
20
-2.57543
11
3.90418
21
-2.57543
0
LINE
8
BLACK
6
CONTINUOUS
10
3.90418
20
-2.57543
11
3.90418
21
-2.57543
0
LINE
8
BLACK
6
CONTINUOUS
10
3.90418
20
-2.57543
11
3.90415
21
-2.57545
0
LINE
8
BLACK
6
CONTINUOUS
10
3.90415
20
-2.57545
11
3.90393
21
-2.5756
0
LINE
8
BLACK
6
CONTINUOUS
10
3.90393
20
-2.5756
11
3.9037
21
-2.57575
0
LINE
8
BLACK
6
CONTINUOUS
10
3.9037
20
-2.57575
11
3.89019
21
-2.58306
0
LINE
8
BLACK
6
CONTINUOUS
10
3.89019
20
-2.58306
11
3.89015
21
-2.58308
0
LINE
8
BLACK
6
CONTINUOUS
10
3.89015
20
-2.58308
11
3.8899
21
-2.58318
0
LINE
8
BLACK
6
CONTINUOUS
10
3.8899
20
-2.58318
11
3.88965
21
-2.58328
0
LINE
8
BLACK
6
CONTINUOUS
10
3.88965
20
-2.58328
11
3.87497
21
-2.58783
0
LINE
8
BLACK
6
CONTINUOUS
10
3.87497
20
-2.58783
11
3.87493
21
-2.58784
0
LINE
8
BLACK
6
CONTINUOUS
10
3.87493
20
-2.58784
11
3.87467
21
-2.58789
0
LINE
8
BLACK
6
CONTINUOUS
10
3.87467
20
-2.58789
11
3.87441
21
-2.58794
0
LINE
8
BLACK
6
CONTINUOUS
10
3.87441
20
-2.58794
11
3.85913
21
-2.58955
0
LINE
8
BLACK
6
CONTINUOUS
10
3.85913
20
-2.58955
11
3.85909
21
-2.58955
0
LINE
8
BLACK
6
CONTINUOUS
10
3.85909
20
-2.58955
11
3.85896
21
-2.58955
0
LINE
8
BLACK
6
CONTINUOUS
10
3.85896
20
-2.58955
11
3.85883
21
-2.58956
0
LINE
8
BLACK
6
CONTINUOUS
10
3.85883
20
-2.58956
11
3.85842
21
-2.58957
0
LINE
8
BLACK
6
CONTINUOUS
10
3.85842
20
-2.58957
11
3.85841
21
-2.58957
0
LINE
8
BLACK
6
CONTINUOUS
10
3.85841
20
-2.58957
11
3.116
21
-2.58957
0
LINE
8
BLACK
6
CONTINUOUS
10
3.116
20
-2.58957
11
3.11585
21
-2.58955
0
LINE
8
BLACK
6
CONTINUOUS
10
0.812074
20
-1.22043
11
0.812337
21
-1.22038
0
LINE
8
BLACK
6
CONTINUOUS
10
0.812337
20
-1.22038
11
0.812599
21
-1.22033
0
LINE
8
BLACK
6
CONTINUOUS
10
0.812599
20
-1.22033
11
0.827882
21
-1.21872
0
LINE
8
BLACK
6
CONTINUOUS
10
0.827882
20
-1.21872
11
0.827923
21
-1.21871
0
LINE
8
BLACK
6
CONTINUOUS
10
0.827923
20
-1.21871
11
0.828052
21
-1.21872
0
LINE
8
BLACK
6
CONTINUOUS
10
0.828052
20
-1.21872
11
0.82818
21
-1.2187
0
LINE
8
BLACK
6
CONTINUOUS
10
0.82818
20
-1.2187
11
0.828591
21
-1.2187
0
LINE
8
BLACK
6
CONTINUOUS
10
0.828591
20
-1.2187
11
0.828595
21
-1.2187
0
LINE
8
BLACK
6
CONTINUOUS
10
0.828595
20
-1.2187
11
1.42125
21
-1.2187
0
LINE
8
BLACK
6
CONTINUOUS
10
1.42125
20
-1.2187
11
1.42165
21
-1.2187
0
LINE
8
BLACK
6
CONTINUOUS
10
1.42165
20
-1.2187
11
1.4365
21
-1.21714
0
LINE
8
BLACK
6
CONTINUOUS
10
1.4365
20
-1.21714
11
1.45062
21
-1.21277
0
LINE
8
BLACK
6
CONTINUOUS
10
1.45062
20
-1.21277
11
1.46363
21
-1.20573
0
LINE
8
BLACK
6
CONTINUOUS
10
1.46363
20
-1.20573
11
1.47503
21
-1.19631
0
LINE
8
BLACK
6
CONTINUOUS
10
1.47503
20
-1.19631
11
1.48437
21
-1.18485
0
LINE
8
BLACK
6
CONTINUOUS
10
1.48437
20
-1.18485
11
1.49132
21
-1.17179
0
LINE
8
BLACK
6
CONTINUOUS
10
1.49132
20
-1.17179
11
1.49559
21
-1.15763
0
LINE
8
BLACK
6
CONTINUOUS
10
1.49559
20
-1.15763
11
1.49705
21
-1.14277
0
LINE
8
BLACK
6
CONTINUOUS
10
1.49705
20
-1.14277
11
1.49705
21
-1.11245
0
LINE
8
BLACK
6
CONTINUOUS
10
1.49705
20
-1.11245
11
1.49706
21
-1.11231
0
LINE
8
BLACK
6
CONTINUOUS
10
1.49706
20
-1.11231
11
1.49706
21
-1.11231
0
LINE
8
BLACK
6
CONTINUOUS
10
1.49706
20
-1.11231
11
1.49856
21
-1.09702
0
LINE
8
BLACK
6
CONTINUOUS
10
1.49856
20
-1.09702
11
1.49856
21
-1.09702
0
LINE
8
BLACK
6
CONTINUOUS
10
1.49856
20
-1.09702
11
1.49856
21
-1.09702
0
LINE
8
BLACK
6
CONTINUOUS
10
1.49856
20
-1.09702
11
1.49857
21
-1.09698
0
LINE
8
BLACK
6
CONTINUOUS
10
1.49857
20
-1.09698
11
1.49862
21
-1.09671
0
LINE
8
BLACK
6
CONTINUOUS
10
1.49862
20
-1.09671
11
1.49867
21
-1.09645
0
LINE
8
BLACK
6
CONTINUOUS
10
1.49867
20
-1.09645
11
1.50311
21
-1.08174
0
LINE
8
BLACK
6
CONTINUOUS
10
1.50311
20
-1.08174
11
1.50313
21
-1.0817
0
LINE
8
BLACK
6
CONTINUOUS
10
1.50313
20
-1.0817
11
1.50323
21
-1.08145
0
LINE
8
BLACK
6
CONTINUOUS
10
1.50323
20
-1.08145
11
1.50333
21
-1.08121
0
LINE
8
BLACK
6
CONTINUOUS
10
1.50333
20
-1.08121
11
1.51055
21
-1.06764
0
LINE
8
BLACK
6
CONTINUOUS
10
1.51055
20
-1.06764
11
1.51055
21
-1.06764
0
LINE
8
BLACK
6
CONTINUOUS
10
1.51055
20
-1.06764
11
1.51055
21
-1.06764
0
LINE
8
BLACK
6
CONTINUOUS
10
1.51055
20
-1.06764
11
1.51057
21
-1.0676
0
LINE
8
BLACK
6
CONTINUOUS
10
1.51057
20
-1.0676
11
1.51072
21
-1.06738
0
LINE
8
BLACK
6
CONTINUOUS
10
1.51072
20
-1.06738
11
1.51087
21
-1.06716
0
LINE
8
BLACK
6
CONTINUOUS
10
1.51087
20
-1.06716
11
1.52058
21
-1.05525
0
LINE
8
BLACK
6
CONTINUOUS
10
1.52058
20
-1.05525
11
1.52061
21
-1.05522
0
LINE
8
BLACK
6
CONTINUOUS
10
1.52061
20
-1.05522
11
1.5208
21
-1.05503
0
LINE
8
BLACK
6
CONTINUOUS
10
1.5208
20
-1.05503
11
1.52099
21
-1.05484
0
LINE
8
BLACK
6
CONTINUOUS
10
1.52099
20
-1.05484
11
1.53283
21
-1.04504
0
LINE
8
BLACK
6
CONTINUOUS
10
1.53283
20
-1.04504
11
1.53283
21
-1.04504
0
LINE
8
BLACK
6
CONTINUOUS
10
1.53283
20
-1.04504
11
1.53283
21
-1.04504
0
LINE
8
BLACK
6
CONTINUOUS
10
1.53283
20
-1.04504
11
1.53286
21
-1.04502
0
LINE
8
BLACK
6
CONTINUOUS
10
1.53286
20
-1.04502
11
1.53308
21
-1.04487
0
LINE
8
BLACK
6
CONTINUOUS
10
1.53308
20
-1.04487
11
1.5333
21
-1.04472
0
LINE
8
BLACK
6
CONTINUOUS
10
1.5333
20
-1.04472
11
1.54682
21
-1.03741
0
LINE
8
BLACK
6
CONTINUOUS
10
1.54682
20
-1.03741
11
1.54686
21
-1.03739
0
LINE
8
BLACK
6
CONTINUOUS
10
1.54686
20
-1.03739
11
1.54711
21
-1.03729
0
LINE
8
BLACK
6
CONTINUOUS
10
1.54711
20
-1.03729
11
1.54735
21
-1.03719
0
LINE
8
BLACK
6
CONTINUOUS
10
1.54735
20
-1.03719
11
1.56203
21
-1.03265
0
LINE
8
BLACK
6
CONTINUOUS
10
1.56203
20
-1.03265
11
1.56203
21
-1.03265
0
LINE
8
BLACK
6
CONTINUOUS
10
1.56203
20
-1.03265
11
1.56207
21
-1.03263
0
LINE
8
BLACK
6
CONTINUOUS
10
1.56207
20
-1.03263
11
1.56234
21
-1.03258
0
LINE
8
BLACK
6
CONTINUOUS
10
1.56234
20
-1.03258
11
1.5626
21
-1.03253
0
LINE
8
BLACK
6
CONTINUOUS
10
1.5626
20
-1.03253
11
1.57788
21
-1.03092
0
LINE
8
BLACK
6
CONTINUOUS
10
1.57788
20
-1.03092
11
1.57792
21
-1.03092
0
LINE
8
BLACK
6
CONTINUOUS
10
1.57792
20
-1.03092
11
1.57805
21
-1.03092
0
LINE
8
BLACK
6
CONTINUOUS
10
1.57805
20
-1.03092
11
1.57818
21
-1.03091
0
LINE
8
BLACK
6
CONTINUOUS
10
1.57818
20
-1.03091
11
1.57859
21
-1.03091
0
LINE
8
BLACK
6
CONTINUOUS
10
1.57859
20
-1.03091
11
1.5786
21
-1.03091
0
LINE
8
BLACK
6
CONTINUOUS
10
1.5786
20
-1.03091
11
2.13007
21
-1.03091
0
LINE
8
BLACK
6
CONTINUOUS
10
2.13007
20
-1.03091
11
2.13021
21
-1.03092
0
LINE
8
BLACK
6
CONTINUOUS
10
2.13021
20
-1.03092
11
2.13021
21
-1.03092
0
LINE
8
BLACK
6
CONTINUOUS
10
2.13021
20
-1.03092
11
2.1455
21
-1.03242
0
LINE
8
BLACK
6
CONTINUOUS
10
2.1455
20
-1.03242
11
2.1455
21
-1.03242
0
LINE
8
BLACK
6
CONTINUOUS
10
2.1455
20
-1.03242
11
2.1455
21
-1.03242
0
LINE
8
BLACK
6
CONTINUOUS
10
2.1455
20
-1.03242
11
2.14554
21
-1.03242
0
LINE
8
BLACK
6
CONTINUOUS
10
2.14554
20
-1.03242
11
2.14581
21
-1.03248
0
LINE
8
BLACK
6
CONTINUOUS
10
2.14581
20
-1.03248
11
2.14607
21
-1.03253
0
LINE
8
BLACK
6
CONTINUOUS
10
2.14607
20
-1.03253
11
2.16078
21
-1.03697
0
LINE
8
BLACK
6
CONTINUOUS
10
2.16078
20
-1.03697
11
2.16082
21
-1.03698
0
LINE
8
BLACK
6
CONTINUOUS
10
2.16082
20
-1.03698
11
2.16107
21
-1.03709
0
LINE
8
BLACK
6
CONTINUOUS
10
2.16107
20
-1.03709
11
2.16131
21
-1.03719
0
LINE
8
BLACK
6
CONTINUOUS
10
2.16131
20
-1.03719
11
2.17488
21
-1.04441
0
LINE
8
BLACK
6
CONTINUOUS
10
2.17488
20
-1.04441
11
2.17488
21
-1.04441
0
LINE
8
BLACK
6
CONTINUOUS
10
2.17488
20
-1.04441
11
2.17488
21
-1.04441
0
LINE
8
BLACK
6
CONTINUOUS
10
2.17488
20
-1.04441
11
2.17492
21
-1.04443
0
LINE
8
BLACK
6
CONTINUOUS
10
2.17492
20
-1.04443
11
2.17514
21
-1.04458
0
LINE
8
BLACK
6
CONTINUOUS
10
2.17514
20
-1.04458
11
2.17536
21
-1.04473
0
LINE
8
BLACK
6
CONTINUOUS
10
2.17536
20
-1.04473
11
2.18727
21
-1.05444
0
LINE
8
BLACK
6
CONTINUOUS
10
2.18727
20
-1.05444
11
2.1873
21
-1.05446
0
LINE
8
BLACK
6
CONTINUOUS
10
2.1873
20
-1.05446
11
2.18749
21
-1.05466
0
LINE
8
BLACK
6
CONTINUOUS
10
2.18749
20
-1.05466
11
2.18768
21
-1.05484
0
LINE
8
BLACK
6
CONTINUOUS
10
2.18768
20
-1.05484
11
2.19747
21
-1.06669
0
LINE
8
BLACK
6
CONTINUOUS
10
2.19747
20
-1.06669
11
2.19747
21
-1.06669
0
LINE
8
BLACK
6
CONTINUOUS
10
2.19747
20
-1.06669
11
2.19748
21
-1.06669
0
LINE
8
BLACK
6
CONTINUOUS
10
2.19748
20
-1.06669
11
2.1975
21
-1.06672
0
LINE
8
BLACK
6
CONTINUOUS
10
2.1975
20
-1.06672
11
2.19765
21
-1.06694
0
LINE
8
BLACK
6
CONTINUOUS
10
2.19765
20
-1.06694
11
2.1978
21
-1.06716
0
LINE
8
BLACK
6
CONTINUOUS
10
2.1978
20
-1.06716
11
2.20511
21
-1.08068
0
LINE
8
BLACK
6
CONTINUOUS
10
2.20511
20
-1.08068
11
2.20513
21
-1.08072
0
LINE
8
BLACK
6
CONTINUOUS
10
2.20513
20
-1.08072
11
2.20523
21
-1.08097
0
LINE
8
BLACK
6
CONTINUOUS
10
2.20523
20
-1.08097
11
2.20533
21
-1.08121
0
LINE
8
BLACK
6
CONTINUOUS
10
2.20533
20
-1.08121
11
2.20987
21
-1.09589
0
LINE
8
BLACK
6
CONTINUOUS
10
2.20987
20
-1.09589
11
2.20989
21
-1.09593
0
LINE
8
BLACK
6
CONTINUOUS
10
2.20989
20
-1.09593
11
2.20994
21
-1.09619
0
LINE
8
BLACK
6
CONTINUOUS
10
2.20994
20
-1.09619
11
2.20999
21
-1.09646
0
LINE
8
BLACK
6
CONTINUOUS
10
2.20999
20
-1.09646
11
2.2116
21
-1.11174
0
LINE
8
BLACK
6
CONTINUOUS
10
2.2116
20
-1.11174
11
2.2116
21
-1.11178
0
LINE
8
BLACK
6
CONTINUOUS
10
2.2116
20
-1.11178
11
2.2116
21
-1.11191
0
LINE
8
BLACK
6
CONTINUOUS
10
2.2116
20
-1.11191
11
2.21161
21
-1.11204
0
LINE
8
BLACK
6
CONTINUOUS
10
2.21161
20
-1.11204
11
2.21161
21
-1.11245
0
LINE
8
BLACK
6
CONTINUOUS
10
2.21161
20
-1.11245
11
2.21161
21
-1.11245
0
LINE
8
BLACK
6
CONTINUOUS
10
2.21161
20
-1.11245
11
2.21161
21
-1.3307
0
LINE
8
BLACK
6
CONTINUOUS
10
2.21161
20
-1.3307
11
2.21162
21
-1.3311
0
LINE
8
BLACK
6
CONTINUOUS
10
2.21162
20
-1.3311
11
2.21318
21
-1.34594
0
LINE
8
BLACK
6
CONTINUOUS
10
2.21318
20
-1.34594
11
2.21755
21
-1.36007
0
LINE
8
BLACK
6
CONTINUOUS
10
2.21755
20
-1.36007
11
2.22458
21
-1.37308
0
LINE
8
BLACK
6
CONTINUOUS
10
2.22458
20
-1.37308
11
2.23401
21
-1.38448
0
LINE
8
BLACK
6
CONTINUOUS
10
2.23401
20
-1.38448
11
2.24547
21
-1.39382
0
LINE
8
BLACK
6
CONTINUOUS
10
2.24547
20
-1.39382
11
2.25853
21
-1.40076
0
LINE
8
BLACK
6
CONTINUOUS
10
2.25853
20
-1.40076
11
2.27268
21
-1.40504
0
LINE
8
BLACK
6
CONTINUOUS
10
2.27268
20
-1.40504
11
2.28755
21
-1.4065
0
LINE
8
BLACK
6
CONTINUOUS
10
2.28755
20
-1.4065
11
2.95881
21
-1.4065
0
LINE
8
BLACK
6
CONTINUOUS
10
2.95881
20
-1.4065
11
2.95895
21
-1.40651
0
LINE
8
BLACK
6
CONTINUOUS
10
2.95895
20
-1.40651
11
2.95895
21
-1.40651
0
LINE
8
BLACK
6
CONTINUOUS
10
2.95895
20
-1.40651
11
2.97424
21
-1.40801
0
LINE
8
BLACK
6
CONTINUOUS
10
2.97424
20
-1.40801
11
2.97424
21
-1.40801
0
LINE
8
BLACK
6
CONTINUOUS
10
2.97424
20
-1.40801
11
2.97424
21
-1.40801
0
LINE
8
BLACK
6
CONTINUOUS
10
2.97424
20
-1.40801
11
2.97428
21
-1.40801
0
LINE
8
BLACK
6
CONTINUOUS
10
2.97428
20
-1.40801
11
2.97455
21
-1.40807
0
LINE
8
BLACK
6
CONTINUOUS
10
2.97455
20
-1.40807
11
2.97481
21
-1.40812
0
LINE
8
BLACK
6
CONTINUOUS
10
2.97481
20
-1.40812
11
2.98952
21
-1.41256
0
LINE
8
BLACK
6
CONTINUOUS
10
2.98952
20
-1.41256
11
2.98956
21
-1.41258
0
LINE
8
BLACK
6
CONTINUOUS
10
2.98956
20
-1.41258
11
2.98981
21
-1.41268
0
LINE
8
BLACK
6
CONTINUOUS
10
2.98981
20
-1.41268
11
2.99005
21
-1.41278
0
LINE
8
BLACK
6
CONTINUOUS
10
2.99005
20
-1.41278
11
3.00362
21
-1.42
0
LINE
8
BLACK
6
CONTINUOUS
10
3.00362
20
-1.42
11
3.00362
21
-1.42
0
LINE
8
BLACK
6
CONTINUOUS
10
3.00362
20
-1.42
11
3.00362
21
-1.42
0
LINE
8
BLACK
6
CONTINUOUS
10
3.00362
20
-1.42
11
3.00366
21
-1.42002
0
LINE
8
BLACK
6
CONTINUOUS
10
3.00366
20
-1.42002
11
3.00388
21
-1.42017
0
LINE
8
BLACK
6
CONTINUOUS
10
3.00388
20
-1.42017
11
3.0041
21
-1.42032
0
LINE
8
BLACK
6
CONTINUOUS
10
3.0041
20
-1.42032
11
3.01601
21
-1.43003
0
LINE
8
BLACK
6
CONTINUOUS
10
3.01601
20
-1.43003
11
3.01604
21
-1.43006
0
LINE
8
BLACK
6
CONTINUOUS
10
3.01604
20
-1.43006
11
3.01623
21
-1.43025
0
LINE
8
BLACK
6
CONTINUOUS
10
3.01623
20
-1.43025
11
3.01642
21
-1.43044
0
LINE
8
BLACK
6
CONTINUOUS
10
3.01642
20
-1.43044
11
3.02621
21
-1.44228
0
LINE
8
BLACK
6
CONTINUOUS
10
3.02621
20
-1.44228
11
3.02622
21
-1.44228
0
LINE
8
BLACK
6
CONTINUOUS
10
3.02622
20
-1.44228
11
3.02622
21
-1.44228
0
LINE
8
BLACK
6
CONTINUOUS
10
3.02622
20
-1.44228
11
3.02624
21
-1.44231
0
LINE
8
BLACK
6
CONTINUOUS
10
3.02624
20
-1.44231
11
3.02639
21
-1.44253
0
LINE
8
BLACK
6
CONTINUOUS
10
3.02639
20
-1.44253
11
3.02654
21
-1.44275
0
LINE
8
BLACK
6
CONTINUOUS
10
3.02654
20
-1.44275
11
3.03385
21
-1.45627
0
LINE
8
BLACK
6
CONTINUOUS
10
3.03385
20
-1.45627
11
3.03387
21
-1.45631
0
LINE
8
BLACK
6
CONTINUOUS
10
3.03387
20
-1.45631
11
3.03397
21
-1.45656
0
LINE
8
BLACK
6
CONTINUOUS
10
3.03397
20
-1.45656
11
3.03407
21
-1.4568
0
LINE
8
BLACK
6
CONTINUOUS
10
3.03407
20
-1.4568
11
3.03861
21
-1.47148
0
LINE
8
BLACK
6
CONTINUOUS
10
3.03861
20
-1.47148
11
3.03863
21
-1.47152
0
LINE
8
BLACK
6
CONTINUOUS
10
3.03863
20
-1.47152
11
3.03868
21
-1.47179
0
LINE
8
BLACK
6
CONTINUOUS
10
3.03868
20
-1.47179
11
3.03873
21
-1.47205
0
LINE
8
BLACK
6
CONTINUOUS
10
3.03873
20
-1.47205
11
3.04034
21
-1.48733
0
LINE
8
BLACK
6
CONTINUOUS
10
3.04034
20
-1.48733
11
3.04034
21
-1.48737
0
LINE
8
BLACK
6
CONTINUOUS
10
3.04034
20
-1.48737
11
3.04034
21
-1.4875
0
LINE
8
BLACK
6
CONTINUOUS
10
3.04034
20
-1.4875
11
3.04035
21
-1.48763
0
LINE
8
BLACK
6
CONTINUOUS
10
3.04035
20
-1.48763
11
3.04035
21
-1.48804
0
LINE
8
BLACK
6
CONTINUOUS
10
3.04035
20
-1.48804
11
3.04035
21
-1.48804
0
LINE
8
BLACK
6
CONTINUOUS
10
3.04035
20
-1.48804
11
3.04035
21
-2.50786
0
LINE
8
BLACK
6
CONTINUOUS
10
3.04035
20
-2.50786
11
3.04036
21
-2.50826
0
LINE
8
BLACK
6
CONTINUOUS
10
3.04036
20
-2.50826
11
3.04192
21
-2.52311
0
LINE
8
BLACK
6
CONTINUOUS
10
3.04192
20
-2.52311
11
3.04629
21
-2.53724
0
LINE
8
BLACK
6
CONTINUOUS
10
3.04629
20
-2.53724
11
3.05332
21
-2.55025
0
LINE
8
BLACK
6
CONTINUOUS
10
3.05332
20
-2.55025
11
3.06275
21
-2.56164
0
LINE
8
BLACK
6
CONTINUOUS
10
3.06275
20
-2.56164
11
3.07421
21
-2.57099
0
LINE
8
BLACK
6
CONTINUOUS
10
3.07421
20
-2.57099
11
3.08727
21
-2.57793
0
LINE
8
BLACK
6
CONTINUOUS
10
3.08727
20
-2.57793
11
3.10142
21
-2.5822
0
LINE
8
BLACK
6
CONTINUOUS
10
3.10142
20
-2.5822
11
3.11629
21
-2.58366
0
LINE
8
BLACK
6
CONTINUOUS
10
3.11629
20
-2.58366
11
3.85826
21
-2.58366
0
LINE
8
BLACK
6
CONTINUOUS
10
3.85826
20
-2.58366
11
3.85866
21
-2.58366
0
LINE
8
BLACK
6
CONTINUOUS
10
3.85866
20
-2.58366
11
3.8735
21
-2.5821
0
LINE
8
BLACK
6
CONTINUOUS
10
3.8735
20
-2.5821
11
3.88763
21
-2.57773
0
LINE
8
BLACK
6
CONTINUOUS
10
3.88763
20
-2.57773
11
3.90064
21
-2.57069
0
LINE
8
BLACK
6
CONTINUOUS
10
3.90064
20
-2.57069
11
3.91203
21
-2.56127
0
LINE
8
BLACK
6
CONTINUOUS
10
3.91203
20
-2.56127
11
3.92138
21
-2.54981
0
LINE
8
BLACK
6
CONTINUOUS
10
3.92138
20
-2.54981
11
3.92832
21
-2.53675
0
LINE
8
BLACK
6
CONTINUOUS
10
3.92832
20
-2.53675
11
3.9326
21
-2.52259
0
LINE
8
BLACK
6
CONTINUOUS
10
3.9326
20
-2.52259
11
3.93406
21
-2.50773
0
LINE
8
BLACK
6
CONTINUOUS
10
3.93406
20
-2.50773
11
3.93406
21
-2.39469
0
LINE
8
BLACK
6
CONTINUOUS
10
3.93406
20
-2.39469
11
3.24818
21
-2.39469
0
LINE
8
BLACK
6
CONTINUOUS
10
3.24818
20
-2.39469
11
3.24803
21
-2.3947
0
LINE
8
BLACK
6
CONTINUOUS
10
3.24803
20
-2.3947
11
3.24789
21
-2.39469
0
LINE
8
BLACK
6
CONTINUOUS
10
3.24789
20
-2.39469
11
3.24745
21
-2.39464
0
LINE
8
BLACK
6
CONTINUOUS
10
3.24745
20
-2.39464
11
3.2469
21
-2.39447
0
LINE
8
BLACK
6
CONTINUOUS
10
3.2469
20
-2.39447
11
3.24638
21
-2.3942
0
LINE
8
BLACK
6
CONTINUOUS
10
3.24638
20
-2.3942
11
3.24593
21
-2.39383
0
LINE
8
BLACK
6
CONTINUOUS
10
3.24593
20
-2.39383
11
3.24556
21
-2.39338
0
LINE
8
BLACK
6
CONTINUOUS
10
3.24556
20
-2.39338
11
3.24529
21
-2.39287
0
LINE
8
BLACK
6
CONTINUOUS
10
3.24529
20
-2.39287
11
3.24512
21
-2.39231
0
LINE
8
BLACK
6
CONTINUOUS
10
3.24512
20
-2.39231
11
3.24506
21
-2.39173
0
LINE
8
BLACK
6
CONTINUOUS
10
3.24506
20
-2.39173
11
3.24508
21
-2.39159
0
LINE
8
BLACK
6
CONTINUOUS
10
3.24508
20
-2.39159
11
3.24508
21
-1.81314
0
LINE
8
BLACK
6
CONTINUOUS
10
3.24508
20
-1.81314
11
3.24506
21
-1.81299
0
LINE
8
BLACK
6
CONTINUOUS
10
3.24506
20
-1.81299
11
3.24512
21
-1.81241
0
LINE
8
BLACK
6
CONTINUOUS
10
3.24512
20
-1.81241
11
3.24529
21
-1.81186
0
LINE
8
BLACK
6
CONTINUOUS
10
3.24529
20
-1.81186
11
3.24556
21
-1.81134
0
LINE
8
BLACK
6
CONTINUOUS
10
3.24556
20
-1.81134
11
3.24593
21
-1.81089
0
LINE
8
BLACK
6
CONTINUOUS
10
3.24593
20
-1.81089
11
3.24638
21
-1.81053
0
LINE
8
BLACK
6
CONTINUOUS
10
3.24638
20
-1.81053
11
3.2469
21
-1.81025
0
LINE
8
BLACK
6
CONTINUOUS
10
3.2469
20
-1.81025
11
3.24745
21
-1.81008
0
LINE
8
BLACK
6
CONTINUOUS
10
3.24745
20
-1.81008
11
3.24789
21
-1.81004
0
LINE
8
BLACK
6
CONTINUOUS
10
3.24789
20
-1.81004
11
3.24803
21
-1.81003
0
LINE
8
BLACK
6
CONTINUOUS
10
3.24803
20
-1.81003
11
3.24818
21
-1.81004
0
LINE
8
BLACK
6
CONTINUOUS
10
3.24818
20
-1.81004
11
3.93406
21
-1.81004
0
LINE
8
BLACK
6
CONTINUOUS
10
3.93406
20
-1.81004
11
3.93406
21
0.483848
0
LINE
8
BLACK
6
CONTINUOUS
10
3.93406
20
0.483848
11
3.93405
21
0.484248
0
LINE
8
BLACK
6
CONTINUOUS
10
3.93405
20
0.484248
11
3.93249
21
0.499095
0
LINE
8
BLACK
6
CONTINUOUS
10
3.93249
20
0.499095
11
3.92812
21
0.513221
0
LINE
8
BLACK
6
CONTINUOUS
10
3.92812
20
0.513221
11
3.92109
21
0.52623
0
LINE
8
BLACK
6
CONTINUOUS
10
3.92109
20
0.52623
11
3.91166
21
0.537625
0
LINE
8
BLACK
6
CONTINUOUS
10
3.91166
20
0.537625
11
3.9002
21
0.546971
0
LINE
8
BLACK
6
CONTINUOUS
10
3.9002
20
0.546971
11
3.88714
21
0.553914
0
LINE
8
BLACK
6
CONTINUOUS
10
3.88714
20
0.553914
11
3.87299
21
0.558188
0
LINE
8
BLACK
6
CONTINUOUS
10
3.87299
20
0.558188
11
3.85812
21
0.559646
0
LINE
8
BLACK
6
CONTINUOUS
10
3.85812
20
0.559646
11
0.0787505
21
0.559646
0
LINE
8
BLACK
6
CONTINUOUS
10
0.0787505
20
0.559646
11
0.0783501
21
0.559644
0
LINE
8
BLACK
6
CONTINUOUS
10
0.0783501
20
0.559644
11
0.0635039
21
0.558084
0
LINE
8
BLACK
6
CONTINUOUS
10
0.0635039
20
0.558084
11
0.0493769
21
0.553711
0
LINE
8
BLACK
6
CONTINUOUS
10
0.0493769
20
0.553711
11
0.0363683
21
0.546677
0
LINE
8
BLACK
6
CONTINUOUS
10
0.0363683
20
0.546677
11
0.0249737
21
0.537251
0
LINE
8
BLACK
6
CONTINUOUS
10
0.0249737
20
0.537251
11
0.015627
21
0.525791
0
LINE
8
BLACK
6
CONTINUOUS
10
0.015627
20
0.525791
11
0.00868433
21
0.512733
0
LINE
8
BLACK
6
CONTINUOUS
10
0.00868433
20
0.512733
11
0.00441
21
0.498576
0
LINE
8
BLACK
6
CONTINUOUS
10
0.00441
20
0.498576
11
0.00295276
21
0.483714
0
LINE
8
BLACK
6
CONTINUOUS
10
0.00295276
20
0.483714
11
0.00295276
21
-1.51771
0
LINE
8
BLACK
6
CONTINUOUS
10
0.00295276
20
-1.51771
11
0.00295417
21
-1.51811
0
LINE
8
BLACK
6
CONTINUOUS
10
0.00295417
20
-1.51811
11
0.00451457
21
-1.53295
0
LINE
8
BLACK
6
CONTINUOUS
10
0.00451457
20
-1.53295
11
0.0088876
21
-1.54708
0
LINE
8
BLACK
6
CONTINUOUS
10
0.0088876
20
-1.54708
11
0.0159214
21
-1.56009
0
LINE
8
BLACK
6
CONTINUOUS
10
0.0159214
20
-1.56009
11
0.0253477
21
-1.57148
0
LINE
8
BLACK
6
CONTINUOUS
10
0.0253477
20
-1.57148
11
0.0368079
21
-1.58083
0
LINE
8
BLACK
6
CONTINUOUS
10
0.0368079
20
-1.58083
11
0.0498652
21
-1.58777
0
LINE
8
BLACK
6
CONTINUOUS
10
0.0498652
20
-1.58777
11
0.0640224
21
-1.59205
0
LINE
8
BLACK
6
CONTINUOUS
10
0.0640224
20
-1.59205
11
0.0788846
21
-1.5935
0
LINE
8
BLACK
6
CONTINUOUS
10
0.0788846
20
-1.5935
11
0.671249
21
-1.5935
0
LINE
8
BLACK
6
CONTINUOUS
10
0.671249
20
-1.5935
11
0.67165
21
-1.5935
0
LINE
8
BLACK
6
CONTINUOUS
10
0.67165
20
-1.5935
11
0.686496
21
-1.59194
0
LINE
8
BLACK
6
CONTINUOUS
10
0.686496
20
-1.59194
11
0.700623
21
-1.58757
0
LINE
8
BLACK
6
CONTINUOUS
10
0.700623
20
-1.58757
11
0.713632
21
-1.58054
0
LINE
8
BLACK
6
CONTINUOUS
10
0.713632
20
-1.58054
11
0.725026
21
-1.57111
0
LINE
8
BLACK
6
CONTINUOUS
10
0.725026
20
-1.57111
11
0.734373
21
-1.55965
0
LINE
8
BLACK
6
CONTINUOUS
10
0.734373
20
-1.55965
11
0.741316
21
-1.54659
0
LINE
8
BLACK
6
CONTINUOUS
10
0.741316
20
-1.54659
11
0.74559
21
-1.53243
0
LINE
8
BLACK
6
CONTINUOUS
10
0.74559
20
-1.53243
11
0.747047
21
-1.51757
0
LINE
8
BLACK
6
CONTINUOUS
10
0.747047
20
-1.51757
11
0.747047
21
-1.30025
0
LINE
8
BLACK
6
CONTINUOUS
10
0.747047
20
-1.30025
11
0.747061
21
-1.30011
0
LINE
8
BLACK
6
CONTINUOUS
10
0.747061
20
-1.30011
11
0.747061
21
-1.30011
0
LINE
8
BLACK
6
CONTINUOUS
10
0.747061
20
-1.30011
11
0.748561
21
-1.28481
0
LINE
8
BLACK
6
CONTINUOUS
10
0.748561
20
-1.28481
11
0.748561
21
-1.28481
0
LINE
8
BLACK
6
CONTINUOUS
10
0.748561
20
-1.28481
11
0.748561
21
-1.28481
0
LINE
8
BLACK
6
CONTINUOUS
10
0.748561
20
-1.28481
11
0.748565
21
-1.28477
0
LINE
8
BLACK
6
CONTINUOUS
10
0.748565
20
-1.28477
11
0.748621
21
-1.28451
0
LINE
8
BLACK
6
CONTINUOUS
10
0.748621
20
-1.28451
11
0.748673
21
-1.28425
0
LINE
8
BLACK
6
CONTINUOUS
10
0.748673
20
-1.28425
11
0.753115
21
-1.26953
0
LINE
8
BLACK
6
CONTINUOUS
10
0.753115
20
-1.26953
11
0.753127
21
-1.2695
0
LINE
8
BLACK
6
CONTINUOUS
10
0.753127
20
-1.2695
11
0.753232
21
-1.26925
0
LINE
8
BLACK
6
CONTINUOUS
10
0.753232
20
-1.26925
11
0.753334
21
-1.269
0
LINE
8
BLACK
6
CONTINUOUS
10
0.753334
20
-1.269
11
0.760549
21
-1.25543
0
LINE
8
BLACK
6
CONTINUOUS
10
0.760549
20
-1.25543
11
0.760549
21
-1.25543
0
LINE
8
BLACK
6
CONTINUOUS
10
0.760549
20
-1.25543
11
0.760549
21
-1.25543
0
LINE
8
BLACK
6
CONTINUOUS
10
0.760549
20
-1.25543
11
0.760568
21
-1.2554
0
LINE
8
BLACK
6
CONTINUOUS
10
0.760568
20
-1.2554
11
0.760719
21
-1.25518
0
LINE
8
BLACK
6
CONTINUOUS
10
0.760719
20
-1.25518
11
0.760868
21
-1.25495
0
LINE
8
BLACK
6
CONTINUOUS
10
0.760868
20
-1.25495
11
0.77058
21
-1.24304
0
LINE
8
BLACK
6
CONTINUOUS
10
0.77058
20
-1.24304
11
0.770606
21
-1.24301
0
LINE
8
BLACK
6
CONTINUOUS
10
0.770606
20
-1.24301
11
0.770799
21
-1.24282
0
LINE
8
BLACK
6
CONTINUOUS
10
0.770799
20
-1.24282
11
0.770986
21
-1.24264
0
LINE
8
BLACK
6
CONTINUOUS
10
0.770986
20
-1.24264
11
0.782827
21
-1.23284
0
LINE
8
BLACK
6
CONTINUOUS
10
0.782827
20
-1.23284
11
0.782827
21
-1.23284
0
LINE
8
BLACK
6
CONTINUOUS
10
0.782827
20
-1.23284
11
0.782827
21
-1.23284
0
LINE
8
BLACK
6
CONTINUOUS
10
0.782827
20
-1.23284
11
0.782859
21
-1.23281
0
LINE
8
BLACK
6
CONTINUOUS
10
0.782859
20
-1.23281
11
0.783082
21
-1.23267
0
LINE
8
BLACK
6
CONTINUOUS
10
0.783082
20
-1.23267
11
0.783305
21
-1.23252
0
LINE
8
BLACK
6
CONTINUOUS
10
0.783305
20
-1.23252
11
0.796823
21
-1.22521
0
LINE
8
BLACK
6
CONTINUOUS
10
0.796823
20
-1.22521
11
0.796859
21
-1.22519
0
LINE
8
BLACK
6
CONTINUOUS
10
0.796859
20
-1.22519
11
0.797107
21
-1.22509
0
LINE
8
BLACK
6
CONTINUOUS
10
0.797107
20
-1.22509
11
0.797354
21
-1.22499
0
LINE
8
BLACK
6
CONTINUOUS
10
0.797354
20
-1.22499
11
0.812034
21
-1.22044
0
LINE
8
BLACK
6
CONTINUOUS
10
0.812034
20
-1.22044
11
0.812034
21
-1.22044
0
LINE
8
BLACK
6
CONTINUOUS
10
0.812034
20
-1.22044
11
0.812074
21
-1.22043
0
LINE
8
BLACK
6
CONTINUOUS
10
0.630066
20
-0.825787
11
0.6305
21
-0.82583
0
LINE
8
BLACK
6
CONTINUOUS
10
0.6305
20
-0.82583
11
0.631057
21
-0.825999
0
LINE
8
BLACK
6
CONTINUOUS
10
0.631057
20
-0.825999
11
0.63157
21
-0.826273
0
LINE
8
BLACK
6
CONTINUOUS
10
0.63157
20
-0.826273
11
0.632019
21
-0.826642
0
LINE
8
BLACK
6
CONTINUOUS
10
0.632019
20
-0.826642
11
0.632388
21
-0.827092
0
LINE
8
BLACK
6
CONTINUOUS
10
0.632388
20
-0.827092
11
0.632662
21
-0.827605
0
LINE
8
BLACK
6
CONTINUOUS
10
0.632662
20
-0.827605
11
0.632831
21
-0.828161
0
LINE
8
BLACK
6
CONTINUOUS
10
0.632831
20
-0.828161
11
0.632888
21
-0.82874
0
LINE
8
BLACK
6
CONTINUOUS
10
0.632888
20
-0.82874
11
0.632874
21
-0.828885
0
LINE
8
BLACK
6
CONTINUOUS
10
0.632874
20
-0.828885
11
0.632874
21
-1.37978
0
LINE
8
BLACK
6
CONTINUOUS
10
0.632874
20
-1.37978
11
0.632888
21
-1.37992
0
LINE
8
BLACK
6
CONTINUOUS
10
0.632888
20
-1.37992
11
0.632831
21
-1.3805
0
LINE
8
BLACK
6
CONTINUOUS
10
0.632831
20
-1.3805
11
0.632662
21
-1.38106
0
LINE
8
BLACK
6
CONTINUOUS
10
0.632662
20
-1.38106
11
0.632388
21
-1.38157
0
LINE
8
BLACK
6
CONTINUOUS
10
0.632388
20
-1.38157
11
0.632019
21
-1.38202
0
LINE
8
BLACK
6
CONTINUOUS
10
0.632019
20
-1.38202
11
0.63157
21
-1.38239
0
LINE
8
BLACK
6
CONTINUOUS
10
0.63157
20
-1.38239
11
0.631057
21
-1.38266
0
LINE
8
BLACK
6
CONTINUOUS
10
0.631057
20
-1.38266
11
0.6305
21
-1.38283
0
LINE
8
BLACK
6
CONTINUOUS
10
0.6305
20
-1.38283
11
0.630066
21
-1.38287
0
LINE
8
BLACK
6
CONTINUOUS
10
0.630066
20
-1.38287
11
0.629921
21
-1.38289
0
LINE
8
BLACK
6
CONTINUOUS
10
0.629921
20
-1.38289
11
0.629777
21
-1.38287
0
LINE
8
BLACK
6
CONTINUOUS
10
0.629777
20
-1.38287
11
0.0788848
21
-1.38287
0
LINE
8
BLACK
6
CONTINUOUS
10
0.0788848
20
-1.38287
11
0.0787402
21
-1.38289
0
LINE
8
BLACK
6
CONTINUOUS
10
0.0787402
20
-1.38289
11
0.0785955
21
-1.38287
0
LINE
8
BLACK
6
CONTINUOUS
10
0.0785955
20
-1.38287
11
0.0781613
21
-1.38283
0
LINE
8
BLACK
6
CONTINUOUS
10
0.0781613
20
-1.38283
11
0.0776047
21
-1.38266
0
LINE
8
BLACK
6
CONTINUOUS
10
0.0776047
20
-1.38266
11
0.0770918
21
-1.38239
0
LINE
8
BLACK
6
CONTINUOUS
10
0.0770918
20
-1.38239
11
0.0766422
21
-1.38202
0
LINE
8
BLACK
6
CONTINUOUS
10
0.0766422
20
-1.38202
11
0.0762732
21
-1.38157
0
LINE
8
BLACK
6
CONTINUOUS
10
0.0762732
20
-1.38157
11
0.075999
21
-1.38106
0
LINE
8
BLACK
6
CONTINUOUS
10
0.075999
20
-1.38106
11
0.0758302
21
-1.3805
0
LINE
8
BLACK
6
CONTINUOUS
10
0.0758302
20
-1.3805
11
0.0757731
21
-1.37992
0
LINE
8
BLACK
6
CONTINUOUS
10
0.0757731
20
-1.37992
11
0.0757874
21
-1.37978
0
LINE
8
BLACK
6
CONTINUOUS
10
0.0757874
20
-1.37978
11
0.0757874
21
-0.828885
0
LINE
8
BLACK
6
CONTINUOUS
10
0.0757874
20
-0.828885
11
0.0757731
21
-0.82874
0
LINE
8
BLACK
6
CONTINUOUS
10
0.0757731
20
-0.82874
11
0.0758302
21
-0.828161
0
LINE
8
BLACK
6
CONTINUOUS
10
0.0758302
20
-0.828161
11
0.075999
21
-0.827605
0
LINE
8
BLACK
6
CONTINUOUS
10
0.075999
20
-0.827605
11
0.0762732
21
-0.827092
0
LINE
8
BLACK
6
CONTINUOUS
10
0.0762732
20
-0.827092
11
0.0766422
21
-0.826642
0
LINE
8
BLACK
6
CONTINUOUS
10
0.0766422
20
-0.826642
11
0.0770918
21
-0.826273
0
LINE
8
BLACK
6
CONTINUOUS
10
0.0770918
20
-0.826273
11
0.0776047
21
-0.825999
0
LINE
8
BLACK
6
CONTINUOUS
10
0.0776047
20
-0.825999
11
0.0781613
21
-0.82583
0
LINE
8
BLACK
6
CONTINUOUS
10
0.0781613
20
-0.82583
11
0.0785955
21
-0.825787
0
LINE
8
BLACK
6
CONTINUOUS
10
0.0785955
20
-0.825787
11
0.0787402
21
-0.825773
0
LINE
8
BLACK
6
CONTINUOUS
10
0.0787402
20
-0.825773
11
0.0788848
21
-0.825787
0
LINE
8
BLACK
6
CONTINUOUS
10
0.0788848
20
-0.825787
11
0.629777
21
-0.825787
0
LINE
8
BLACK
6
CONTINUOUS
10
0.629777
20
-0.825787
11
0.629921
21
-0.825773
0
LINE
8
BLACK
6
CONTINUOUS
10
0.629921
20
-0.825773
11
0.630066
21
-0.825787
0
LINE
8
BLACK
6
CONTINUOUS
10
0.0816929
20
-0.831693
11
0.0816929
21
-1.37697
0
LINE
8
BLACK
6
CONTINUOUS
10
0.0816929
20
-1.37697
11
0.626969
21
-1.37697
0
LINE
8
BLACK
6
CONTINUOUS
10
0.626969
20
-1.37697
11
0.626969
21
-0.831693
0
LINE
8
BLACK
6
CONTINUOUS
10
0.626969
20
-0.831693
11
0.0816929
21
-0.831693
0
LINE
8
BLACK
6
CONTINUOUS
10
2.88007
20
-0.638287
11
2.8805
21
-0.63833
0
LINE
8
BLACK
6
CONTINUOUS
10
2.8805
20
-0.63833
11
2.88106
21
-0.638499
0
LINE
8
BLACK
6
CONTINUOUS
10
2.88106
20
-0.638499
11
2.88157
21
-0.638773
0
LINE
8
BLACK
6
CONTINUOUS
10
2.88157
20
-0.638773
11
2.88202
21
-0.639142
0
LINE
8
BLACK
6
CONTINUOUS
10
2.88202
20
-0.639142
11
2.88239
21
-0.639592
0
LINE
8
BLACK
6
CONTINUOUS
10
2.88239
20
-0.639592
11
2.88266
21
-0.640105
0
LINE
8
BLACK
6
CONTINUOUS
10
2.88266
20
-0.640105
11
2.88283
21
-0.640661
0
LINE
8
BLACK
6
CONTINUOUS
10
2.88283
20
-0.640661
11
2.88289
21
-0.64124
0
LINE
8
BLACK
6
CONTINUOUS
10
2.88289
20
-0.64124
11
2.88287
21
-0.641385
0
LINE
8
BLACK
6
CONTINUOUS
10
2.88287
20
-0.641385
11
2.88287
21
-1.19228
0
LINE
8
BLACK
6
CONTINUOUS
10
2.88287
20
-1.19228
11
2.88289
21
-1.19242
0
LINE
8
BLACK
6
CONTINUOUS
10
2.88289
20
-1.19242
11
2.88283
21
-1.193
0
LINE
8
BLACK
6
CONTINUOUS
10
2.88283
20
-1.193
11
2.88266
21
-1.19356
0
LINE
8
BLACK
6
CONTINUOUS
10
2.88266
20
-1.19356
11
2.88239
21
-1.19407
0
LINE
8
BLACK
6
CONTINUOUS
10
2.88239
20
-1.19407
11
2.88202
21
-1.19452
0
LINE
8
BLACK
6
CONTINUOUS
10
2.88202
20
-1.19452
11
2.88157
21
-1.19489
0
LINE
8
BLACK
6
CONTINUOUS
10
2.88157
20
-1.19489
11
2.88106
21
-1.19516
0
LINE
8
BLACK
6
CONTINUOUS
10
2.88106
20
-1.19516
11
2.8805
21
-1.19533
0
LINE
8
BLACK
6
CONTINUOUS
10
2.8805
20
-1.19533
11
2.88007
21
-1.19537
0
LINE
8
BLACK
6
CONTINUOUS
10
2.88007
20
-1.19537
11
2.87992
21
-1.19539
0
LINE
8
BLACK
6
CONTINUOUS
10
2.87992
20
-1.19539
11
2.87978
21
-1.19537
0
LINE
8
BLACK
6
CONTINUOUS
10
2.87978
20
-1.19537
11
2.32888
21
-1.19537
0
LINE
8
BLACK
6
CONTINUOUS
10
2.32888
20
-1.19537
11
2.32874
21
-1.19539
0
LINE
8
BLACK
6
CONTINUOUS
10
2.32874
20
-1.19539
11
2.3286
21
-1.19537
0
LINE
8
BLACK
6
CONTINUOUS
10
2.3286
20
-1.19537
11
2.32816
21
-1.19533
0
LINE
8
BLACK
6
CONTINUOUS
10
2.32816
20
-1.19533
11
2.3276
21
-1.19516
0
LINE
8
BLACK
6
CONTINUOUS
10
2.3276
20
-1.19516
11
2.32709
21
-1.19489
0
LINE
8
BLACK
6
CONTINUOUS
10
2.32709
20
-1.19489
11
2.32664
21
-1.19452
0
LINE
8
BLACK
6
CONTINUOUS
10
2.32664
20
-1.19452
11
2.32627
21
-1.19407
0
LINE
8
BLACK
6
CONTINUOUS
10
2.32627
20
-1.19407
11
2.326
21
-1.19356
0
LINE
8
BLACK
6
CONTINUOUS
10
2.326
20
-1.19356
11
2.32583
21
-1.193
0
LINE
8
BLACK
6
CONTINUOUS
10
2.32583
20
-1.193
11
2.32577
21
-1.19242
0
LINE
8
BLACK
6
CONTINUOUS
10
2.32577
20
-1.19242
11
2.32579
21
-1.19228
0
LINE
8
BLACK
6
CONTINUOUS
10
2.32579
20
-1.19228
11
2.32579
21
-0.641385
0
LINE
8
BLACK
6
CONTINUOUS
10
2.32579
20
-0.641385
11
2.32577
21
-0.64124
0
LINE
8
BLACK
6
CONTINUOUS
10
2.32577
20
-0.64124
11
2.32583
21
-0.640661
0
LINE
8
BLACK
6
CONTINUOUS
10
2.32583
20
-0.640661
11
2.326
21
-0.640105
0
LINE
8
BLACK
6
CONTINUOUS
10
2.326
20
-0.640105
11
2.32627
21
-0.639592
0
LINE
8
BLACK
6
CONTINUOUS
10
2.32627
20
-0.639592
11
2.32664
21
-0.639142
0
LINE
8
BLACK
6
CONTINUOUS
10
2.32664
20
-0.639142
11
2.32709
21
-0.638773
0
LINE
8
BLACK
6
CONTINUOUS
10
2.32709
20
-0.638773
11
2.3276
21
-0.638499
0
LINE
8
BLACK
6
CONTINUOUS
10
2.3276
20
-0.638499
11
2.32816
21
-0.63833
0
LINE
8
BLACK
6
CONTINUOUS
10
2.32816
20
-0.63833
11
2.3286
21
-0.638287
0
LINE
8
BLACK
6
CONTINUOUS
10
2.3286
20
-0.638287
11
2.32874
21
-0.638273
0
LINE
8
BLACK
6
CONTINUOUS
10
2.32874
20
-0.638273
11
2.32888
21
-0.638287
0
LINE
8
BLACK
6
CONTINUOUS
10
2.32888
20
-0.638287
11
2.87978
21
-0.638287
0
LINE
8
BLACK
6
CONTINUOUS
10
2.87978
20
-0.638287
11
2.87992
21
-0.638273
0
LINE
8
BLACK
6
CONTINUOUS
10
2.87992
20
-0.638273
11
2.88007
21
-0.638287
0
LINE
8
BLACK
6
CONTINUOUS
10
2.33169
20
-0.644193
11
2.33169
21
-1.18947
0
LINE
8
BLACK
6
CONTINUOUS
10
2.33169
20
-1.18947
11
2.87697
21
-1.18947
0
LINE
8
BLACK
6
CONTINUOUS
10
2.87697
20
-1.18947
11
2.87697
21
-0.644193
0
LINE
8
BLACK
6
CONTINUOUS
10
2.87697
20
-0.644193
11
2.33169
21
-0.644193
0
LINE
8
BLACK
6
CONTINUOUS
10
1.38007
20
-0.450787
11
1.3805
21
-0.45083
0
LINE
8
BLACK
6
CONTINUOUS
10
1.3805
20
-0.45083
11
1.38106
21
-0.450999
0
LINE
8
BLACK
6
CONTINUOUS
10
1.38106
20
-0.450999
11
1.38157
21
-0.451273
0
LINE
8
BLACK
6
CONTINUOUS
10
1.38157
20
-0.451273
11
1.38202
21
-0.451642
0
LINE
8
BLACK
6
CONTINUOUS
10
1.38202
20
-0.451642
11
1.38239
21
-0.452092
0
LINE
8
BLACK
6
CONTINUOUS
10
1.38239
20
-0.452092
11
1.38266
21
-0.452605
0
LINE
8
BLACK
6
CONTINUOUS
10
1.38266
20
-0.452605
11
1.38283
21
-0.453161
0
LINE
8
BLACK
6
CONTINUOUS
10
1.38283
20
-0.453161
11
1.38289
21
-0.45374
0
LINE
8
BLACK
6
CONTINUOUS
10
1.38289
20
-0.45374
11
1.38287
21
-0.453885
0
LINE
8
BLACK
6
CONTINUOUS
10
1.38287
20
-0.453885
11
1.38287
21
-1.00478
0
LINE
8
BLACK
6
CONTINUOUS
10
1.38287
20
-1.00478
11
1.38289
21
-1.00492
0
LINE
8
BLACK
6
CONTINUOUS
10
1.38289
20
-1.00492
11
1.38283
21
-1.0055
0
LINE
8
BLACK
6
CONTINUOUS
10
1.38283
20
-1.0055
11
1.38266
21
-1.00606
0
LINE
8
BLACK
6
CONTINUOUS
10
1.38266
20
-1.00606
11
1.38239
21
-1.00657
0
LINE
8
BLACK
6
CONTINUOUS
10
1.38239
20
-1.00657
11
1.38202
21
-1.00702
0
LINE
8
BLACK
6
CONTINUOUS
10
1.38202
20
-1.00702
11
1.38157
21
-1.00739
0
LINE
8
BLACK
6
CONTINUOUS
10
1.38157
20
-1.00739
11
1.38106
21
-1.00766
0
LINE
8
BLACK
6
CONTINUOUS
10
1.38106
20
-1.00766
11
1.3805
21
-1.00783
0
LINE
8
BLACK
6
CONTINUOUS
10
1.3805
20
-1.00783
11
1.38007
21
-1.00787
0
LINE
8
BLACK
6
CONTINUOUS
10
1.38007
20
-1.00787
11
1.37992
21
-1.00789
0
LINE
8
BLACK
6
CONTINUOUS
10
1.37992
20
-1.00789
11
1.37978
21
-1.00787
0
LINE
8
BLACK
6
CONTINUOUS
10
1.37978
20
-1.00787
11
0.828885
21
-1.00787
0
LINE
8
BLACK
6
CONTINUOUS
10
0.828885
20
-1.00787
11
0.82874
21
-1.00789
0
LINE
8
BLACK
6
CONTINUOUS
10
0.82874
20
-1.00789
11
0.828595
21
-1.00787
0
LINE
8
BLACK
6
CONTINUOUS
10
0.828595
20
-1.00787
11
0.828161
21
-1.00783
0
LINE
8
BLACK
6
CONTINUOUS
10
0.828161
20
-1.00783
11
0.827605
21
-1.00766
0
LINE
8
BLACK
6
CONTINUOUS
10
0.827605
20
-1.00766
11
0.827092
21
-1.00739
0
LINE
8
BLACK
6
CONTINUOUS
10
0.827092
20
-1.00739
11
0.826642
21
-1.00702
0
LINE
8
BLACK
6
CONTINUOUS
10
0.826642
20
-1.00702
11
0.826273
21
-1.00657
0
LINE
8
BLACK
6
CONTINUOUS
10
0.826273
20
-1.00657
11
0.825999
21
-1.00606
0
LINE
8
BLACK
6
CONTINUOUS
10
0.825999
20
-1.00606
11
0.82583
21
-1.0055
0
LINE
8
BLACK
6
CONTINUOUS
10
0.82583
20
-1.0055
11
0.825773
21
-1.00492
0
LINE
8
BLACK
6
CONTINUOUS
10
0.825773
20
-1.00492
11
0.825787
21
-1.00478
0
LINE
8
BLACK
6
CONTINUOUS
10
0.825787
20
-1.00478
11
0.825787
21
-0.453885
0
LINE
8
BLACK
6
CONTINUOUS
10
0.825787
20
-0.453885
11
0.825773
21
-0.45374
0
LINE
8
BLACK
6
CONTINUOUS
10
0.825773
20
-0.45374
11
0.82583
21
-0.453161
0
LINE
8
BLACK
6
CONTINUOUS
10
0.82583
20
-0.453161
11
0.825999
21
-0.452605
0
LINE
8
BLACK
6
CONTINUOUS
10
0.825999
20
-0.452605
11
0.826273
21
-0.452092
0
LINE
8
BLACK
6
CONTINUOUS
10
0.826273
20
-0.452092
11
0.826642
21
-0.451642
0
LINE
8
BLACK
6
CONTINUOUS
10
0.826642
20
-0.451642
11
0.827092
21
-0.451273
0
LINE
8
BLACK
6
CONTINUOUS
10
0.827092
20
-0.451273
11
0.827605
21
-0.450999
0
LINE
8
BLACK
6
CONTINUOUS
10
0.827605
20
-0.450999
11
0.828161
21
-0.45083
0
LINE
8
BLACK
6
CONTINUOUS
10
0.828161
20
-0.45083
11
0.828595
21
-0.450787
0
LINE
8
BLACK
6
CONTINUOUS
10
0.828595
20
-0.450787
11
0.82874
21
-0.450773
0
LINE
8
BLACK
6
CONTINUOUS
10
0.82874
20
-0.450773
11
0.828885
21
-0.450787
0
LINE
8
BLACK
6
CONTINUOUS
10
0.828885
20
-0.450787
11
1.37978
21
-0.450787
0
LINE
8
BLACK
6
CONTINUOUS
10
1.37978
20
-0.450787
11
1.37992
21
-0.450773
0
LINE
8
BLACK
6
CONTINUOUS
10
1.37992
20
-0.450773
11
1.38007
21
-0.450787
0
LINE
8
BLACK
6
CONTINUOUS
10
0.831693
20
-0.456693
11
0.831693
21
-1.00197
0
LINE
8
BLACK
6
CONTINUOUS
10
0.831693
20
-1.00197
11
1.37697
21
-1.00197
0
LINE
8
BLACK
6
CONTINUOUS
10
1.37697
20
-1.00197
11
1.37697
21
-0.456693
0
LINE
8
BLACK
6
CONTINUOUS
10
1.37697
20
-0.456693
11
0.831693
21
-0.456693
0
LINE
8
BLACK
6
CONTINUOUS
10
1.57888
20
-0.263287
11
2.13007
21
-0.263287
0
LINE
8
BLACK
6
CONTINUOUS
10
2.13007
20
-0.263287
11
2.1305
21
-0.26333
0
LINE
8
BLACK
6
CONTINUOUS
10
2.1305
20
-0.26333
11
2.13106
21
-0.263499
0
LINE
8
BLACK
6
CONTINUOUS
10
2.13106
20
-0.263499
11
2.13157
21
-0.263773
0
LINE
8
BLACK
6
CONTINUOUS
10
2.13157
20
-0.263773
11
2.13202
21
-0.264142
0
LINE
8
BLACK
6
CONTINUOUS
10
2.13202
20
-0.264142
11
2.13239
21
-0.264592
0
LINE
8
BLACK
6
CONTINUOUS
10
2.13239
20
-0.264592
11
2.13266
21
-0.265105
0
LINE
8
BLACK
6
CONTINUOUS
10
2.13266
20
-0.265105
11
2.13283
21
-0.265661
0
LINE
8
BLACK
6
CONTINUOUS
10
2.13283
20
-0.265661
11
2.13289
21
-0.26624
0
LINE
8
BLACK
6
CONTINUOUS
10
2.13289
20
-0.26624
11
2.13287
21
-0.266385
0
LINE
8
BLACK
6
CONTINUOUS
10
2.13287
20
-0.266385
11
2.13287
21
-0.817277
0
LINE
8
BLACK
6
CONTINUOUS
10
2.13287
20
-0.817277
11
2.13289
21
-0.817421
0
LINE
8
BLACK
6
CONTINUOUS
10
2.13289
20
-0.817421
11
2.13283
21
-0.818
0
LINE
8
BLACK
6
CONTINUOUS
10
2.13283
20
-0.818
11
2.13266
21
-0.818557
0
LINE
8
BLACK
6
CONTINUOUS
10
2.13266
20
-0.818557
11
2.13239
21
-0.81907
0
LINE
8
BLACK
6
CONTINUOUS
10
2.13239
20
-0.81907
11
2.13202
21
-0.819519
0
LINE
8
BLACK
6
CONTINUOUS
10
2.13202
20
-0.819519
11
2.13157
21
-0.819888
0
LINE
8
BLACK
6
CONTINUOUS
10
2.13157
20
-0.819888
11
2.13106
21
-0.820162
0
LINE
8
BLACK
6
CONTINUOUS
10
2.13106
20
-0.820162
11
2.1305
21
-0.820331
0
LINE
8
BLACK
6
CONTINUOUS
10
2.1305
20
-0.820331
11
2.13007
21
-0.820374
0
LINE
8
BLACK
6
CONTINUOUS
10
2.13007
20
-0.820374
11
2.12992
21
-0.820388
0
LINE
8
BLACK
6
CONTINUOUS
10
2.12992
20
-0.820388
11
2.12978
21
-0.820374
0
LINE
8
BLACK
6
CONTINUOUS
10
2.12978
20
-0.820374
11
1.57888
21
-0.820374
0
LINE
8
BLACK
6
CONTINUOUS
10
1.57888
20
-0.820374
11
1.57874
21
-0.820388
0
LINE
8
BLACK
6
CONTINUOUS
10
1.57874
20
-0.820388
11
1.5786
21
-0.820374
0
LINE
8
BLACK
6
CONTINUOUS
10
1.5786
20
-0.820374
11
1.57816
21
-0.820331
0
LINE
8
BLACK
6
CONTINUOUS
10
1.57816
20
-0.820331
11
1.5776
21
-0.820162
0
LINE
8
BLACK
6
CONTINUOUS
10
1.5776
20
-0.820162
11
1.57709
21
-0.819888
0
LINE
8
BLACK
6
CONTINUOUS
10
1.57709
20
-0.819888
11
1.57664
21
-0.819519
0
LINE
8
BLACK
6
CONTINUOUS
10
1.57664
20
-0.819519
11
1.57627
21
-0.81907
0
LINE
8
BLACK
6
CONTINUOUS
10
1.57627
20
-0.81907
11
1.576
21
-0.818557
0
LINE
8
BLACK
6
CONTINUOUS
10
1.576
20
-0.818557
11
1.57583
21
-0.818
0
LINE
8
BLACK
6
CONTINUOUS
10
1.57583
20
-0.818
11
1.57577
21
-0.817421
0
LINE
8
BLACK
6
CONTINUOUS
10
1.57577
20
-0.817421
11
1.57579
21
-0.817276
0
LINE
8
BLACK
6
CONTINUOUS
10
1.57579
20
-0.817276
11
1.57579
21
-0.266385
0
LINE
8
BLACK
6
CONTINUOUS
10
1.57579
20
-0.266385
11
1.57577
21
-0.26624
0
LINE
8
BLACK
6
CONTINUOUS
10
1.57577
20
-0.26624
11
1.57583
21
-0.265661
0
LINE
8
BLACK
6
CONTINUOUS
10
1.57583
20
-0.265661
11
1.576
21
-0.265105
0
LINE
8
BLACK
6
CONTINUOUS
10
1.576
20
-0.265105
11
1.57627
21
-0.264592
0
LINE
8
BLACK
6
CONTINUOUS
10
1.57627
20
-0.264592
11
1.57664
21
-0.264142
0
LINE
8
BLACK
6
CONTINUOUS
10
1.57664
20
-0.264142
11
1.57709
21
-0.263773
0
LINE
8
BLACK
6
CONTINUOUS
10
1.57709
20
-0.263773
11
1.5776
21
-0.263499
0
LINE
8
BLACK
6
CONTINUOUS
10
1.5776
20
-0.263499
11
1.57816
21
-0.26333
0
LINE
8
BLACK
6
CONTINUOUS
10
1.57816
20
-0.26333
11
1.5786
21
-0.263287
0
LINE
8
BLACK
6
CONTINUOUS
10
1.5786
20
-0.263287
11
1.57874
21
-0.263273
0
LINE
8
BLACK
6
CONTINUOUS
10
1.57874
20
-0.263273
11
1.57888
21
-0.263287
0
LINE
8
BLACK
6
CONTINUOUS
10
1.58169
20
-0.269193
11
1.58169
21
-0.814469
0
LINE
8
BLACK
6
CONTINUOUS
10
1.58169
20
-0.814469
11
2.12697
21
-0.814469
0
LINE
8
BLACK
6
CONTINUOUS
10
2.12697
20
-0.814469
11
2.12697
21
-0.269193
0
LINE
8
BLACK
6
CONTINUOUS
10
2.12697
20
-0.269193
11
1.58169
21
-0.269193
0
LINE
8
BLACK
6
CONTINUOUS
10
3.63007
20
-0.263287
11
3.6305
21
-0.26333
0
LINE
8
BLACK
6
CONTINUOUS
10
3.6305
20
-0.26333
11
3.63106
21
-0.263499
0
LINE
8
BLACK
6
CONTINUOUS
10
3.63106
20
-0.263499
11
3.63157
21
-0.263773
0
LINE
8
BLACK
6
CONTINUOUS
10
3.63157
20
-0.263773
11
3.63202
21
-0.264142
0
LINE
8
BLACK
6
CONTINUOUS
10
3.63202
20
-0.264142
11
3.63239
21
-0.264592
0
LINE
8
BLACK
6
CONTINUOUS
10
3.63239
20
-0.264592
11
3.63266
21
-0.265105
0
LINE
8
BLACK
6
CONTINUOUS
10
3.63266
20
-0.265105
11
3.63283
21
-0.265661
0
LINE
8
BLACK
6
CONTINUOUS
10
3.63283
20
-0.265661
11
3.63289
21
-0.26624
0
LINE
8
BLACK
6
CONTINUOUS
10
3.63289
20
-0.26624
11
3.63287
21
-0.266385
0
LINE
8
BLACK
6
CONTINUOUS
10
3.63287
20
-0.266385
11
3.63287
21
-0.817277
0
LINE
8
BLACK
6
CONTINUOUS
10
3.63287
20
-0.817277
11
3.63289
21
-0.817421
0
LINE
8
BLACK
6
CONTINUOUS
10
3.63289
20
-0.817421
11
3.63283
21
-0.818
0
LINE
8
BLACK
6
CONTINUOUS
10
3.63283
20
-0.818
11
3.63266
21
-0.818557
0
LINE
8
BLACK
6
CONTINUOUS
10
3.63266
20
-0.818557
11
3.63239
21
-0.81907
0
LINE
8
BLACK
6
CONTINUOUS
10
3.63239
20
-0.81907
11
3.63202
21
-0.819519
0
LINE
8
BLACK
6
CONTINUOUS
10
3.63202
20
-0.819519
11
3.63157
21
-0.819888
0
LINE
8
BLACK
6
CONTINUOUS
10
3.63157
20
-0.819888
11
3.63106
21
-0.820162
0
LINE
8
BLACK
6
CONTINUOUS
10
3.63106
20
-0.820162
11
3.6305
21
-0.820331
0
LINE
8
BLACK
6
CONTINUOUS
10
3.6305
20
-0.820331
11
3.63007
21
-0.820374
0
LINE
8
BLACK
6
CONTINUOUS
10
3.63007
20
-0.820374
11
3.62992
21
-0.820388
0
LINE
8
BLACK
6
CONTINUOUS
10
3.62992
20
-0.820388
11
3.62978
21
-0.820374
0
LINE
8
BLACK
6
CONTINUOUS
10
3.62978
20
-0.820374
11
3.07888
21
-0.820374
0
LINE
8
BLACK
6
CONTINUOUS
10
3.07888
20
-0.820374
11
3.07874
21
-0.820388
0
LINE
8
BLACK
6
CONTINUOUS
10
3.07874
20
-0.820388
11
3.0786
21
-0.820374
0
LINE
8
BLACK
6
CONTINUOUS
10
3.0786
20
-0.820374
11
3.07816
21
-0.820331
0
LINE
8
BLACK
6
CONTINUOUS
10
3.07816
20
-0.820331
11
3.0776
21
-0.820162
0
LINE
8
BLACK
6
CONTINUOUS
10
3.0776
20
-0.820162
11
3.07709
21
-0.819888
0
LINE
8
BLACK
6
CONTINUOUS
10
3.07709
20
-0.819888
11
3.07664
21
-0.819519
0
LINE
8
BLACK
6
CONTINUOUS
10
3.07664
20
-0.819519
11
3.07627
21
-0.81907
0
LINE
8
BLACK
6
CONTINUOUS
10
3.07627
20
-0.81907
11
3.076
21
-0.818557
0
LINE
8
BLACK
6
CONTINUOUS
10
3.076
20
-0.818557
11
3.07583
21
-0.818
0
LINE
8
BLACK
6
CONTINUOUS
10
3.07583
20
-0.818
11
3.07577
21
-0.817421
0
LINE
8
BLACK
6
CONTINUOUS
10
3.07577
20
-0.817421
11
3.07579
21
-0.817276
0
LINE
8
BLACK
6
CONTINUOUS
10
3.07579
20
-0.817276
11
3.07579
21
-0.266385
0
LINE
8
BLACK
6
CONTINUOUS
10
3.07579
20
-0.266385
11
3.07577
21
-0.26624
0
LINE
8
BLACK
6
CONTINUOUS
10
3.07577
20
-0.26624
11
3.07583
21
-0.265661
0
LINE
8
BLACK
6
CONTINUOUS
10
3.07583
20
-0.265661
11
3.076
21
-0.265105
0
LINE
8
BLACK
6
CONTINUOUS
10
3.076
20
-0.265105
11
3.07627
21
-0.264592
0
LINE
8
BLACK
6
CONTINUOUS
10
3.07627
20
-0.264592
11
3.07664
21
-0.264142
0
LINE
8
BLACK
6
CONTINUOUS
10
3.07664
20
-0.264142
11
3.07709
21
-0.263773
0
LINE
8
BLACK
6
CONTINUOUS
10
3.07709
20
-0.263773
11
3.0776
21
-0.263499
0
LINE
8
BLACK
6
CONTINUOUS
10
3.0776
20
-0.263499
11
3.07816
21
-0.26333
0
LINE
8
BLACK
6
CONTINUOUS
10
3.07816
20
-0.26333
11
3.0786
21
-0.263287
0
LINE
8
BLACK
6
CONTINUOUS
10
3.0786
20
-0.263287
11
3.62978
21
-0.263287
0
LINE
8
BLACK
6
CONTINUOUS
10
3.62978
20
-0.263287
11
3.62992
21
-0.263273
0
LINE
8
BLACK
6
CONTINUOUS
10
3.62992
20
-0.263273
11
3.63007
21
-0.263287
0
LINE
8
BLACK
6
CONTINUOUS
10
3.08169
20
-0.269193
11
3.08169
21
-0.814469
0
LINE
8
BLACK
6
CONTINUOUS
10
3.08169
20
-0.814469
11
3.62697
21
-0.814469
0
LINE
8
BLACK
6
CONTINUOUS
10
3.62697
20
-0.814469
11
3.62697
21
-0.269193
0
LINE
8
BLACK
6
CONTINUOUS
10
3.62697
20
-0.269193
11
3.08169
21
-0.269193
0
LINE
8
BLACK
6
CONTINUOUS
10
0.630066
20
-0.0757874
11
0.6305
21
-0.0758302
0
LINE
8
BLACK
6
CONTINUOUS
10
0.6305
20
-0.0758302
11
0.631057
21
-0.075999
0
LINE
8
BLACK
6
CONTINUOUS
10
0.631057
20
-0.075999
11
0.63157
21
-0.0762732
0
LINE
8
BLACK
6
CONTINUOUS
10
0.63157
20
-0.0762732
11
0.632019
21
-0.0766422
0
LINE
8
BLACK
6
CONTINUOUS
10
0.632019
20
-0.0766422
11
0.632388
21
-0.0770918
0
LINE
8
BLACK
6
CONTINUOUS
10
0.632388
20
-0.0770918
11
0.632662
21
-0.0776047
0
LINE
8
BLACK
6
CONTINUOUS
10
0.632662
20
-0.0776047
11
0.632831
21
-0.0781613
0
LINE
8
BLACK
6
CONTINUOUS
10
0.632831
20
-0.0781613
11
0.632888
21
-0.0787402
0
LINE
8
BLACK
6
CONTINUOUS
10
0.632888
20
-0.0787402
11
0.632874
21
-0.0788849
0
LINE
8
BLACK
6
CONTINUOUS
10
0.632874
20
-0.0788849
11
0.632874
21
-0.629777
0
LINE
8
BLACK
6
CONTINUOUS
10
0.632874
20
-0.629777
11
0.632888
21
-0.629921
0
LINE
8
BLACK
6
CONTINUOUS
10
0.632888
20
-0.629921
11
0.632831
21
-0.6305
0
LINE
8
BLACK
6
CONTINUOUS
10
0.632831
20
-0.6305
11
0.632662
21
-0.631057
0
LINE
8
BLACK
6
CONTINUOUS
10
0.632662
20
-0.631057
11
0.632388
21
-0.63157
0
LINE
8
BLACK
6
CONTINUOUS
10
0.632388
20
-0.63157
11
0.632019
21
-0.632019
0
LINE
8
BLACK
6
CONTINUOUS
10
0.632019
20
-0.632019
11
0.63157
21
-0.632388
0
LINE
8
BLACK
6
CONTINUOUS
10
0.63157
20
-0.632388
11
0.631057
21
-0.632662
0
LINE
8
BLACK
6
CONTINUOUS
10
0.631057
20
-0.632662
11
0.6305
21
-0.632831
0
LINE
8
BLACK
6
CONTINUOUS
10
0.6305
20
-0.632831
11
0.630066
21
-0.632874
0
LINE
8
BLACK
6
CONTINUOUS
10
0.630066
20
-0.632874
11
0.629921
21
-0.632888
0
LINE
8
BLACK
6
CONTINUOUS
10
0.629921
20
-0.632888
11
0.629777
21
-0.632874
0
LINE
8
BLACK
6
CONTINUOUS
10
0.629777
20
-0.632874
11
0.0788848
21
-0.632874
0
LINE
8
BLACK
6
CONTINUOUS
10
0.0788848
20
-0.632874
11
0.0787402
21
-0.632888
0
LINE
8
BLACK
6
CONTINUOUS
10
0.0787402
20
-0.632888
11
0.0785955
21
-0.632874
0
LINE
8
BLACK
6
CONTINUOUS
10
0.0785955
20
-0.632874
11
0.0781613
21
-0.632831
0
LINE
8
BLACK
6
CONTINUOUS
10
0.0781613
20
-0.632831
11
0.0776047
21
-0.632662
0
LINE
8
BLACK
6
CONTINUOUS
10
0.0776047
20
-0.632662
11
0.0770918
21
-0.632388
0
LINE
8
BLACK
6
CONTINUOUS
10
0.0770918
20
-0.632388
11
0.0766422
21
-0.632019
0
LINE
8
BLACK
6
CONTINUOUS
10
0.0766422
20
-0.632019
11
0.0762732
21
-0.63157
0
LINE
8
BLACK
6
CONTINUOUS
10
0.0762732
20
-0.63157
11
0.075999
21
-0.631057
0
LINE
8
BLACK
6
CONTINUOUS
10
0.075999
20
-0.631057
11
0.0758302
21
-0.6305
0
LINE
8
BLACK
6
CONTINUOUS
10
0.0758302
20
-0.6305
11
0.0757731
21
-0.629921
0
LINE
8
BLACK
6
CONTINUOUS
10
0.0757731
20
-0.629921
11
0.0757874
21
-0.629776
0
LINE
8
BLACK
6
CONTINUOUS
10
0.0757874
20
-0.629776
11
0.0757874
21
-0.0788849
0
LINE
8
BLACK
6
CONTINUOUS
10
0.0757874
20
-0.0788849
11
0.0757731
21
-0.0787402
0
LINE
8
BLACK
6
CONTINUOUS
10
0.0757731
20
-0.0787402
11
0.0758302
21
-0.0781613
0
LINE
8
BLACK
6
CONTINUOUS
10
0.0758302
20
-0.0781613
11
0.075999
21
-0.0776047
0
LINE
8
BLACK
6
CONTINUOUS
10
0.075999
20
-0.0776047
11
0.0762732
21
-0.0770918
0
LINE
8
BLACK
6
CONTINUOUS
10
0.0762732
20
-0.0770918
11
0.0766422
21
-0.0766422
0
LINE
8
BLACK
6
CONTINUOUS
10
0.0766422
20
-0.0766422
11
0.0770918
21
-0.0762732
0
LINE
8
BLACK
6
CONTINUOUS
10
0.0770918
20
-0.0762732
11
0.0776047
21
-0.075999
0
LINE
8
BLACK
6
CONTINUOUS
10
0.0776047
20
-0.075999
11
0.0781613
21
-0.0758302
0
LINE
8
BLACK
6
CONTINUOUS
10
0.0781613
20
-0.0758302
11
0.0785955
21
-0.0757874
0
LINE
8
BLACK
6
CONTINUOUS
10
0.0785955
20
-0.0757874
11
0.0787402
21
-0.0757731
0
LINE
8
BLACK
6
CONTINUOUS
10
0.0787402
20
-0.0757731
11
0.0788848
21
-0.0757874
0
LINE
8
BLACK
6
CONTINUOUS
10
0.0788848
20
-0.0757874
11
0.629777
21
-0.0757874
0
LINE
8
BLACK
6
CONTINUOUS
10
0.629777
20
-0.0757874
11
0.629921
21
-0.0757731
0
LINE
8
BLACK
6
CONTINUOUS
10
0.629921
20
-0.0757731
11
0.630066
21
-0.0757874
0
LINE
8
BLACK
6
CONTINUOUS
10
0.0816929
20
-0.0816929
11
0.0816929
21
-0.626969
0
LINE
8
BLACK
6
CONTINUOUS
10
0.0816929
20
-0.626969
11
0.626969
21
-0.626969
0
LINE
8
BLACK
6
CONTINUOUS
10
0.626969
20
-0.626969
11
0.626969
21
-0.0816929
0
LINE
8
BLACK
6
CONTINUOUS
10
0.626969
20
-0.0816929
11
0.0816929
21
-0.0816929
0
LINE
8
BLACK
6
CONTINUOUS
10
2.88007
20
0.111713
11
2.8805
21
0.11167
0
LINE
8
BLACK
6
CONTINUOUS
10
2.8805
20
0.11167
11
2.88106
21
0.111501
0
LINE
8
BLACK
6
CONTINUOUS
10
2.88106
20
0.111501
11
2.88157
21
0.111227
0
LINE
8
BLACK
6
CONTINUOUS
10
2.88157
20
0.111227
11
2.88202
21
0.110858
0
LINE
8
BLACK
6
CONTINUOUS
10
2.88202
20
0.110858
11
2.88239
21
0.110408
0
LINE
8
BLACK
6
CONTINUOUS
10
2.88239
20
0.110408
11
2.88266
21
0.109895
0
LINE
8
BLACK
6
CONTINUOUS
10
2.88266
20
0.109895
11
2.88283
21
0.109339
0
LINE
8
BLACK
6
CONTINUOUS
10
2.88283
20
0.109339
11
2.88289
21
0.10876
0
LINE
8
BLACK
6
CONTINUOUS
10
2.88289
20
0.10876
11
2.88287
21
0.108615
0
LINE
8
BLACK
6
CONTINUOUS
10
2.88287
20
0.108615
11
2.88287
21
-0.442277
0
LINE
8
BLACK
6
CONTINUOUS
10
2.88287
20
-0.442277
11
2.88289
21
-0.442421
0
LINE
8
BLACK
6
CONTINUOUS
10
2.88289
20
-0.442421
11
2.88283
21
-0.443
0
LINE
8
BLACK
6
CONTINUOUS
10
2.88283
20
-0.443
11
2.88266
21
-0.443557
0
LINE
8
BLACK
6
CONTINUOUS
10
2.88266
20
-0.443557
11
2.88239
21
-0.44407
0
LINE
8
BLACK
6
CONTINUOUS
10
2.88239
20
-0.44407
11
2.88202
21
-0.444519
0
LINE
8
BLACK
6
CONTINUOUS
10
2.88202
20
-0.444519
11
2.88157
21
-0.444888
0
LINE
8
BLACK
6
CONTINUOUS
10
2.88157
20
-0.444888
11
2.88106
21
-0.445162
0
LINE
8
BLACK
6
CONTINUOUS
10
2.88106
20
-0.445162
11
2.8805
21
-0.445331
0
LINE
8
BLACK
6
CONTINUOUS
10
2.8805
20
-0.445331
11
2.88007
21
-0.445374
0
LINE
8
BLACK
6
CONTINUOUS
10
2.88007
20
-0.445374
11
2.87992
21
-0.445388
0
LINE
8
BLACK
6
CONTINUOUS
10
2.87992
20
-0.445388
11
2.87978
21
-0.445374
0
LINE
8
BLACK
6
CONTINUOUS
10
2.87978
20
-0.445374
11
2.32888
21
-0.445374
0
LINE
8
BLACK
6
CONTINUOUS
10
2.32888
20
-0.445374
11
2.32874
21
-0.445388
0
LINE
8
BLACK
6
CONTINUOUS
10
2.32874
20
-0.445388
11
2.3286
21
-0.445374
0
LINE
8
BLACK
6
CONTINUOUS
10
2.3286
20
-0.445374
11
2.32816
21
-0.445331
0
LINE
8
BLACK
6
CONTINUOUS
10
2.32816
20
-0.445331
11
2.3276
21
-0.445162
0
LINE
8
BLACK
6
CONTINUOUS
10
2.3276
20
-0.445162
11
2.32709
21
-0.444888
0
LINE
8
BLACK
6
CONTINUOUS
10
2.32709
20
-0.444888
11
2.32664
21
-0.444519
0
LINE
8
BLACK
6
CONTINUOUS
10
2.32664
20
-0.444519
11
2.32627
21
-0.44407
0
LINE
8
BLACK
6
CONTINUOUS
10
2.32627
20
-0.44407
11
2.326
21
-0.443557
0
LINE
8
BLACK
6
CONTINUOUS
10
2.326
20
-0.443557
11
2.32583
21
-0.443
0
LINE
8
BLACK
6
CONTINUOUS
10
2.32583
20
-0.443
11
2.32577
21
-0.442421
0
LINE
8
BLACK
6
CONTINUOUS
10
2.32577
20
-0.442421
11
2.32579
21
-0.442276
0
LINE
8
BLACK
6
CONTINUOUS
10
2.32579
20
-0.442276
11
2.32579
21
0.108615
0
LINE
8
BLACK
6
CONTINUOUS
10
2.32579
20
0.108615
11
2.32577
21
0.10876
0
LINE
8
BLACK
6
CONTINUOUS
10
2.32577
20
0.10876
11
2.32583
21
0.109339
0
LINE
8
BLACK
6
CONTINUOUS
10
2.32583
20
0.109339
11
2.326
21
0.109895
0
LINE
8
BLACK
6
CONTINUOUS
10
2.326
20
0.109895
11
2.32627
21
0.110408
0
LINE
8
BLACK
6
CONTINUOUS
10
2.32627
20
0.110408
11
2.32664
21
0.110858
0
LINE
8
BLACK
6
CONTINUOUS
10
2.32664
20
0.110858
11
2.32709
21
0.111227
0
LINE
8
BLACK
6
CONTINUOUS
10
2.32709
20
0.111227
11
2.3276
21
0.111501
0
LINE
8
BLACK
6
CONTINUOUS
10
2.3276
20
0.111501
11
2.32816
21
0.11167
0
LINE
8
BLACK
6
CONTINUOUS
10
2.32816
20
0.11167
11
2.3286
21
0.111713
0
LINE
8
BLACK
6
CONTINUOUS
10
2.3286
20
0.111713
11
2.32874
21
0.111727
0
LINE
8
BLACK
6
CONTINUOUS
10
2.32874
20
0.111727
11
2.32888
21
0.111713
0
LINE
8
BLACK
6
CONTINUOUS
10
2.32888
20
0.111713
11
2.87978
21
0.111713
0
LINE
8
BLACK
6
CONTINUOUS
10
2.87978
20
0.111713
11
2.87992
21
0.111727
0
LINE
8
BLACK
6
CONTINUOUS
10
2.87992
20
0.111727
11
2.88007
21
0.111713
0
LINE
8
BLACK
6
CONTINUOUS
10
2.33169
20
0.105807
11
2.33169
21
-0.439469
0
LINE
8
BLACK
6
CONTINUOUS
10
2.33169
20
-0.439469
11
2.87697
21
-0.439469
0
LINE
8
BLACK
6
CONTINUOUS
10
2.87697
20
-0.439469
11
2.87697
21
0.105807
0
LINE
8
BLACK
6
CONTINUOUS
10
2.87697
20
0.105807
11
2.33169
21
0.105807
0
LINE
8
BLACK
6
CONTINUOUS
10
1.38007
20
0.299213
11
1.3805
21
0.29917
0
LINE
8
BLACK
6
CONTINUOUS
10
1.3805
20
0.29917
11
1.38106
21
0.299001
0
LINE
8
BLACK
6
CONTINUOUS
10
1.38106
20
0.299001
11
1.38157
21
0.298727
0
LINE
8
BLACK
6
CONTINUOUS
10
1.38157
20
0.298727
11
1.38202
21
0.298358
0
LINE
8
BLACK
6
CONTINUOUS
10
1.38202
20
0.298358
11
1.38239
21
0.297908
0
LINE
8
BLACK
6
CONTINUOUS
10
1.38239
20
0.297908
11
1.38266
21
0.297395
0
LINE
8
BLACK
6
CONTINUOUS
10
1.38266
20
0.297395
11
1.38283
21
0.296839
0
LINE
8
BLACK
6
CONTINUOUS
10
1.38283
20
0.296839
11
1.38289
21
0.29626
0
LINE
8
BLACK
6
CONTINUOUS
10
1.38289
20
0.29626
11
1.38287
21
0.296115
0
LINE
8
BLACK
6
CONTINUOUS
10
1.38287
20
0.296115
11
1.38287
21
-0.254777
0
LINE
8
BLACK
6
CONTINUOUS
10
1.38287
20
-0.254777
11
1.38289
21
-0.254921
0
LINE
8
BLACK
6
CONTINUOUS
10
1.38289
20
-0.254921
11
1.38283
21
-0.2555
0
LINE
8
BLACK
6
CONTINUOUS
10
1.38283
20
-0.2555
11
1.38266
21
-0.256057
0
LINE
8
BLACK
6
CONTINUOUS
10
1.38266
20
-0.256057
11
1.38239
21
-0.25657
0
LINE
8
BLACK
6
CONTINUOUS
10
1.38239
20
-0.25657
11
1.38202
21
-0.257019
0
LINE
8
BLACK
6
CONTINUOUS
10
1.38202
20
-0.257019
11
1.38157
21
-0.257388
0
LINE
8
BLACK
6
CONTINUOUS
10
1.38157
20
-0.257388
11
1.38106
21
-0.257662
0
LINE
8
BLACK
6
CONTINUOUS
10
1.38106
20
-0.257662
11
1.3805
21
-0.257831
0
LINE
8
BLACK
6
CONTINUOUS
10
1.3805
20
-0.257831
11
1.38007
21
-0.257874
0
LINE
8
BLACK
6
CONTINUOUS
10
1.38007
20
-0.257874
11
1.37992
21
-0.257888
0
LINE
8
BLACK
6
CONTINUOUS
10
1.37992
20
-0.257888
11
1.37978
21
-0.257874
0
LINE
8
BLACK
6
CONTINUOUS
10
1.37978
20
-0.257874
11
0.828885
21
-0.257874
0
LINE
8
BLACK
6
CONTINUOUS
10
0.828885
20
-0.257874
11
0.82874
21
-0.257888
0
LINE
8
BLACK
6
CONTINUOUS
10
0.82874
20
-0.257888
11
0.828595
21
-0.257874
0
LINE
8
BLACK
6
CONTINUOUS
10
0.828595
20
-0.257874
11
0.828161
21
-0.257831
0
LINE
8
BLACK
6
CONTINUOUS
10
0.828161
20
-0.257831
11
0.827605
21
-0.257662
0
LINE
8
BLACK
6
CONTINUOUS
10
0.827605
20
-0.257662
11
0.827092
21
-0.257388
0
LINE
8
BLACK
6
CONTINUOUS
10
0.827092
20
-0.257388
11
0.826642
21
-0.257019
0
LINE
8
BLACK
6
CONTINUOUS
10
0.826642
20
-0.257019
11
0.826273
21
-0.25657
0
LINE
8
BLACK
6
CONTINUOUS
10
0.826273
20
-0.25657
11
0.825999
21
-0.256057
0
LINE
8
BLACK
6
CONTINUOUS
10
0.825999
20
-0.256057
11
0.82583
21
-0.2555
0
LINE
8
BLACK
6
CONTINUOUS
10
0.82583
20
-0.2555
11
0.825773
21
-0.254921
0
LINE
8
BLACK
6
CONTINUOUS
10
0.825773
20
-0.254921
11
0.825787
21
-0.254776
0
LINE
8
BLACK
6
CONTINUOUS
10
0.825787
20
-0.254776
11
0.825787
21
0.296115
0
LINE
8
BLACK
6
CONTINUOUS
10
0.825787
20
0.296115
11
0.825773
21
0.29626
0
LINE
8
BLACK
6
CONTINUOUS
10
0.825773
20
0.29626
11
0.82583
21
0.296839
0
LINE
8
BLACK
6
CONTINUOUS
10
0.82583
20
0.296839
11
0.825999
21
0.297395
0
LINE
8
BLACK
6
CONTINUOUS
10
0.825999
20
0.297395
11
0.826273
21
0.297908
0
LINE
8
BLACK
6
CONTINUOUS
10
0.826273
20
0.297908
11
0.826642
21
0.298358
0
LINE
8
BLACK
6
CONTINUOUS
10
0.826642
20
0.298358
11
0.827092
21
0.298727
0
LINE
8
BLACK
6
CONTINUOUS
10
0.827092
20
0.298727
11
0.827605
21
0.299001
0
LINE
8
BLACK
6
CONTINUOUS
10
0.827605
20
0.299001
11
0.828161
21
0.29917
0
LINE
8
BLACK
6
CONTINUOUS
10
0.828161
20
0.29917
11
0.828595
21
0.299213
0
LINE
8
BLACK
6
CONTINUOUS
10
0.828595
20
0.299213
11
0.82874
21
0.299227
0
LINE
8
BLACK
6
CONTINUOUS
10
0.82874
20
0.299227
11
0.828885
21
0.299213
0
LINE
8
BLACK
6
CONTINUOUS
10
0.828885
20
0.299213
11
1.37978
21
0.299213
0
LINE
8
BLACK
6
CONTINUOUS
10
1.37978
20
0.299213
11
1.37992
21
0.299227
0
LINE
8
BLACK
6
CONTINUOUS
10
1.37992
20
0.299227
11
1.38007
21
0.299213
0
LINE
8
BLACK
6
CONTINUOUS
10
0.831693
20
0.293307
11
0.831693
21
-0.251969
0
LINE
8
BLACK
6
CONTINUOUS
10
0.831693
20
-0.251969
11
1.37697
21
-0.251969
0
LINE
8
BLACK
6
CONTINUOUS
10
1.37697
20
-0.251969
11
1.37697
21
0.293307
0
LINE
8
BLACK
6
CONTINUOUS
10
1.37697
20
0.293307
11
0.831693
21
0.293307
0
LINE
8
BLACK
6
CONTINUOUS
10
2.13007
20
0.486713
11
2.1305
21
0.48667
0
LINE
8
BLACK
6
CONTINUOUS
10
2.1305
20
0.48667
11
2.13106
21
0.486501
0
LINE
8
BLACK
6
CONTINUOUS
10
2.13106
20
0.486501
11
2.13157
21
0.486227
0
LINE
8
BLACK
6
CONTINUOUS
10
2.13157
20
0.486227
11
2.13202
21
0.485858
0
LINE
8
BLACK
6
CONTINUOUS
10
2.13202
20
0.485858
11
2.13239
21
0.485408
0
LINE
8
BLACK
6
CONTINUOUS
10
2.13239
20
0.485408
11
2.13266
21
0.484895
0
LINE
8
BLACK
6
CONTINUOUS
10
2.13266
20
0.484895
11
2.13283
21
0.484339
0
LINE
8
BLACK
6
CONTINUOUS
10
2.13283
20
0.484339
11
2.13289
21
0.48376
0
LINE
8
BLACK
6
CONTINUOUS
10
2.13289
20
0.48376
11
2.13287
21
0.483615
0
LINE
8
BLACK
6
CONTINUOUS
10
2.13287
20
0.483615
11
2.13287
21
-0.0672766
0
LINE
8
BLACK
6
CONTINUOUS
10
2.13287
20
-0.0672766
11
2.13289
21
-0.0674213
0
LINE
8
BLACK
6
CONTINUOUS
10
2.13289
20
-0.0674213
11
2.13283
21
-0.0680001
0
LINE
8
BLACK
6
CONTINUOUS
10
2.13283
20
-0.0680001
11
2.13266
21
-0.0685567
0
LINE
8
BLACK
6
CONTINUOUS
10
2.13266
20
-0.0685567
11
2.13239
21
-0.0690696
0
LINE
8
BLACK
6
CONTINUOUS
10
2.13239
20
-0.0690696
11
2.13202
21
-0.0695193
0
LINE
8
BLACK
6
CONTINUOUS
10
2.13202
20
-0.0695193
11
2.13157
21
-0.0698882
0
LINE
8
BLACK
6
CONTINUOUS
10
2.13157
20
-0.0698882
11
2.13106
21
-0.0701624
0
LINE
8
BLACK
6
CONTINUOUS
10
2.13106
20
-0.0701624
11
2.1305
21
-0.0703313
0
LINE
8
BLACK
6
CONTINUOUS
10
2.1305
20
-0.0703313
11
2.13007
21
-0.070374
0
LINE
8
BLACK
6
CONTINUOUS
10
2.13007
20
-0.070374
11
2.12992
21
-0.0703883
0
LINE
8
BLACK
6
CONTINUOUS
10
2.12992
20
-0.0703883
11
2.12978
21
-0.070374
0
LINE
8
BLACK
6
CONTINUOUS
10
2.12978
20
-0.070374
11
1.57888
21
-0.070374
0
LINE
8
BLACK
6
CONTINUOUS
10
1.57888
20
-0.070374
11
1.57874
21
-0.0703883
0
LINE
8
BLACK
6
CONTINUOUS
10
1.57874
20
-0.0703883
11
1.5786
21
-0.070374
0
LINE
8
BLACK
6
CONTINUOUS
10
1.5786
20
-0.070374
11
1.57816
21
-0.0703313
0
LINE
8
BLACK
6
CONTINUOUS
10
1.57816
20
-0.0703313
11
1.5776
21
-0.0701624
0
LINE
8
BLACK
6
CONTINUOUS
10
1.5776
20
-0.0701624
11
1.57709
21
-0.0698882
0
LINE
8
BLACK
6
CONTINUOUS
10
1.57709
20
-0.0698882
11
1.57664
21
-0.0695193
0
LINE
8
BLACK
6
CONTINUOUS
10
1.57664
20
-0.0695193
11
1.57627
21
-0.0690696
0
LINE
8
BLACK
6
CONTINUOUS
10
1.57627
20
-0.0690696
11
1.576
21
-0.0685567
0
LINE
8
BLACK
6
CONTINUOUS
10
1.576
20
-0.0685567
11
1.57583
21
-0.0680001
0
LINE
8
BLACK
6
CONTINUOUS
10
1.57583
20
-0.0680001
11
1.57577
21
-0.0674213
0
LINE
8
BLACK
6
CONTINUOUS
10
1.57577
20
-0.0674213
11
1.57579
21
-0.0672761
0
LINE
8
BLACK
6
CONTINUOUS
10
1.57579
20
-0.0672761
11
1.57579
21
0.483615
0
LINE
8
BLACK
6
CONTINUOUS
10
1.57579
20
0.483615
11
1.57577
21
0.48376
0
LINE
8
BLACK
6
CONTINUOUS
10
1.57577
20
0.48376
11
1.57583
21
0.484339
0
LINE
8
BLACK
6
CONTINUOUS
10
1.57583
20
0.484339
11
1.576
21
0.484895
0
LINE
8
BLACK
6
CONTINUOUS
10
1.576
20
0.484895
11
1.57627
21
0.485408
0
LINE
8
BLACK
6
CONTINUOUS
10
1.57627
20
0.485408
11
1.57664
21
0.485858
0
LINE
8
BLACK
6
CONTINUOUS
10
1.57664
20
0.485858
11
1.57709
21
0.486227
0
LINE
8
BLACK
6
CONTINUOUS
10
1.57709
20
0.486227
11
1.5776
21
0.486501
0
LINE
8
BLACK
6
CONTINUOUS
10
1.5776
20
0.486501
11
1.57816
21
0.48667
0
LINE
8
BLACK
6
CONTINUOUS
10
1.57816
20
0.48667
11
1.5786
21
0.486713
0
LINE
8
BLACK
6
CONTINUOUS
10
1.5786
20
0.486713
11
2.12978
21
0.486713
0
LINE
8
BLACK
6
CONTINUOUS
10
2.12978
20
0.486713
11
2.12992
21
0.486727
0
LINE
8
BLACK
6
CONTINUOUS
10
2.12992
20
0.486727
11
2.13007
21
0.486713
0
LINE
8
BLACK
6
CONTINUOUS
10
1.58169
20
0.480807
11
1.58169
21
-0.0644685
0
LINE
8
BLACK
6
CONTINUOUS
10
1.58169
20
-0.0644685
11
2.12697
21
-0.0644685
0
LINE
8
BLACK
6
CONTINUOUS
10
2.12697
20
-0.0644685
11
2.12697
21
0.480807
0
LINE
8
BLACK
6
CONTINUOUS
10
2.12697
20
0.480807
11
1.58169
21
0.480807
0
LINE
8
BLACK
6
CONTINUOUS
10
3.63007
20
0.486713
11
3.6305
21
0.48667
0
LINE
8
BLACK
6
CONTINUOUS
10
3.6305
20
0.48667
11
3.63106
21
0.486501
0
LINE
8
BLACK
6
CONTINUOUS
10
3.63106
20
0.486501
11
3.63157
21
0.486227
0
LINE
8
BLACK
6
CONTINUOUS
10
3.63157
20
0.486227
11
3.63202
21
0.485858
0
LINE
8
BLACK
6
CONTINUOUS
10
3.63202
20
0.485858
11
3.63239
21
0.485408
0
LINE
8
BLACK
6
CONTINUOUS
10
3.63239
20
0.485408
11
3.63266
21
0.484895
0
LINE
8
BLACK
6
CONTINUOUS
10
3.63266
20
0.484895
11
3.63283
21
0.484339
0
LINE
8
BLACK
6
CONTINUOUS
10
3.63283
20
0.484339
11
3.63289
21
0.48376
0
LINE
8
BLACK
6
CONTINUOUS
10
3.63289
20
0.48376
11
3.63287
21
0.483615
0
LINE
8
BLACK
6
CONTINUOUS
10
3.63287
20
0.483615
11
3.63287
21
-0.0672766
0
LINE
8
BLACK
6
CONTINUOUS
10
3.63287
20
-0.0672766
11
3.63289
21
-0.0674213
0
LINE
8
BLACK
6
CONTINUOUS
10
3.63289
20
-0.0674213
11
3.63283
21
-0.0680001
0
LINE
8
BLACK
6
CONTINUOUS
10
3.63283
20
-0.0680001
11
3.63266
21
-0.0685567
0
LINE
8
BLACK
6
CONTINUOUS
10
3.63266
20
-0.0685567
11
3.63239
21
-0.0690696
0
LINE
8
BLACK
6
CONTINUOUS
10
3.63239
20
-0.0690696
11
3.63202
21
-0.0695193
0
LINE
8
BLACK
6
CONTINUOUS
10
3.63202
20
-0.0695193
11
3.63157
21
-0.0698882
0
LINE
8
BLACK
6
CONTINUOUS
10
3.63157
20
-0.0698882
11
3.63106
21
-0.0701624
0
LINE
8
BLACK
6
CONTINUOUS
10
3.63106
20
-0.0701624
11
3.6305
21
-0.0703313
0
LINE
8
BLACK
6
CONTINUOUS
10
3.6305
20
-0.0703313
11
3.63007
21
-0.070374
0
LINE
8
BLACK
6
CONTINUOUS
10
3.63007
20
-0.070374
11
3.62992
21
-0.0703883
0
LINE
8
BLACK
6
CONTINUOUS
10
3.62992
20
-0.0703883
11
3.62978
21
-0.070374
0
LINE
8
BLACK
6
CONTINUOUS
10
3.62978
20
-0.070374
11
3.07888
21
-0.070374
0
LINE
8
BLACK
6
CONTINUOUS
10
3.07888
20
-0.070374
11
3.07874
21
-0.0703883
0
LINE
8
BLACK
6
CONTINUOUS
10
3.07874
20
-0.0703883
11
3.0786
21
-0.070374
0
LINE
8
BLACK
6
CONTINUOUS
10
3.0786
20
-0.070374
11
3.07816
21
-0.0703313
0
LINE
8
BLACK
6
CONTINUOUS
10
3.07816
20
-0.0703313
11
3.0776
21
-0.0701624
0
LINE
8
BLACK
6
CONTINUOUS
10
3.0776
20
-0.0701624
11
3.07709
21
-0.0698882
0
LINE
8
BLACK
6
CONTINUOUS
10
3.07709
20
-0.0698882
11
3.07664
21
-0.0695193
0
LINE
8
BLACK
6
CONTINUOUS
10
3.07664
20
-0.0695193
11
3.07627
21
-0.0690696
0
LINE
8
BLACK
6
CONTINUOUS
10
3.07627
20
-0.0690696
11
3.076
21
-0.0685567
0
LINE
8
BLACK
6
CONTINUOUS
10
3.076
20
-0.0685567
11
3.07583
21
-0.0680001
0
LINE
8
BLACK
6
CONTINUOUS
10
3.07583
20
-0.0680001
11
3.07577
21
-0.0674213
0
LINE
8
BLACK
6
CONTINUOUS
10
3.07577
20
-0.0674213
11
3.07579
21
-0.0672761
0
LINE
8
BLACK
6
CONTINUOUS
10
3.07579
20
-0.0672761
11
3.07579
21
0.483615
0
LINE
8
BLACK
6
CONTINUOUS
10
3.07579
20
0.483615
11
3.07577
21
0.48376
0
LINE
8
BLACK
6
CONTINUOUS
10
3.07577
20
0.48376
11
3.07583
21
0.484339
0
LINE
8
BLACK
6
CONTINUOUS
10
3.07583
20
0.484339
11
3.076
21
0.484895
0
LINE
8
BLACK
6
CONTINUOUS
10
3.076
20
0.484895
11
3.07627
21
0.485408
0
LINE
8
BLACK
6
CONTINUOUS
10
3.07627
20
0.485408
11
3.07664
21
0.485858
0
LINE
8
BLACK
6
CONTINUOUS
10
3.07664
20
0.485858
11
3.07709
21
0.486227
0
LINE
8
BLACK
6
CONTINUOUS
10
3.07709
20
0.486227
11
3.0776
21
0.486501
0
LINE
8
BLACK
6
CONTINUOUS
10
3.0776
20
0.486501
11
3.07816
21
0.48667
0
LINE
8
BLACK
6
CONTINUOUS
10
3.07816
20
0.48667
11
3.0786
21
0.486713
0
LINE
8
BLACK
6
CONTINUOUS
10
3.0786
20
0.486713
11
3.07874
21
0.486727
0
LINE
8
BLACK
6
CONTINUOUS
10
3.07874
20
0.486727
11
3.07888
21
0.486713
0
LINE
8
BLACK
6
CONTINUOUS
10
3.07888
20
0.486713
11
3.62978
21
0.486713
0
LINE
8
BLACK
6
CONTINUOUS
10
3.62978
20
0.486713
11
3.62992
21
0.486727
0
LINE
8
BLACK
6
CONTINUOUS
10
3.62992
20
0.486727
11
3.63007
21
0.486713
0
LINE
8
BLACK
6
CONTINUOUS
10
3.08169
20
0.480807
11
3.08169
21
-0.0644685
0
LINE
8
BLACK
6
CONTINUOUS
10
3.08169
20
-0.0644685
11
3.62697
21
-0.0644685
0
LINE
8
BLACK
6
CONTINUOUS
10
3.62697
20
-0.0644685
11
3.62697
21
0.480807
0
LINE
8
BLACK
6
CONTINUOUS
10
3.62697
20
0.480807
11
3.08169
21
0.480807
0
LINE
8
BLACK
6
CONTINUOUS
10
3.09327
20
-2.48041
11
3.0963
21
-2.4731
0
LINE
8
BLACK
6
CONTINUOUS
10
3.0963
20
-2.4731
11
3.1007
21
-2.46653
0
LINE
8
BLACK
6
CONTINUOUS
10
3.1007
20
-2.46653
11
3.10629
21
-2.46093
0
LINE
8
BLACK
6
CONTINUOUS
10
3.10629
20
-2.46093
11
3.11287
21
-2.45654
0
LINE
8
BLACK
6
CONTINUOUS
10
3.11287
20
-2.45654
11
3.12018
21
-2.45351
0
LINE
8
BLACK
6
CONTINUOUS
10
3.12018
20
-2.45351
11
3.12793
21
-2.45197
0
LINE
8
BLACK
6
CONTINUOUS
10
3.12793
20
-2.45197
11
3.13585
21
-2.45197
0
LINE
8
BLACK
6
CONTINUOUS
10
3.13585
20
-2.45197
11
3.1436
21
-2.45351
0
LINE
8
BLACK
6
CONTINUOUS
10
3.1436
20
-2.45351
11
3.15091
21
-2.45654
0
LINE
8
BLACK
6
CONTINUOUS
10
3.15091
20
-2.45654
11
3.15749
21
-2.46093
0
LINE
8
BLACK
6
CONTINUOUS
10
3.15749
20
-2.46093
11
3.16308
21
-2.46653
0
LINE
8
BLACK
6
CONTINUOUS
10
3.16308
20
-2.46653
11
3.16748
21
-2.4731
0
LINE
8
BLACK
6
CONTINUOUS
10
3.16748
20
-2.4731
11
3.17051
21
-2.48041
0
LINE
8
BLACK
6
CONTINUOUS
10
3.17051
20
-2.48041
11
3.17205
21
-2.48817
0
LINE
8
BLACK
6
CONTINUOUS
10
3.17205
20
-2.48817
11
3.17205
21
-2.49608
0
LINE
8
BLACK
6
CONTINUOUS
10
3.17205
20
-2.49608
11
3.17051
21
-2.50384
0
LINE
8
BLACK
6
CONTINUOUS
10
3.17051
20
-2.50384
11
3.16748
21
-2.51115
0
LINE
8
BLACK
6
CONTINUOUS
10
3.16748
20
-2.51115
11
3.16308
21
-2.51773
0
LINE
8
BLACK
6
CONTINUOUS
10
3.16308
20
-2.51773
11
3.15749
21
-2.52332
0
LINE
8
BLACK
6
CONTINUOUS
10
3.15749
20
-2.52332
11
3.15091
21
-2.52772
0
LINE
8
BLACK
6
CONTINUOUS
10
3.15091
20
-2.52772
11
3.1436
21
-2.53074
0
LINE
8
BLACK
6
CONTINUOUS
10
3.1436
20
-2.53074
11
3.13585
21
-2.53229
0
LINE
8
BLACK
6
CONTINUOUS
10
3.13585
20
-2.53229
11
3.12793
21
-2.53229
0
LINE
8
BLACK
6
CONTINUOUS
10
3.12793
20
-2.53229
11
3.12018
21
-2.53074
0
LINE
8
BLACK
6
CONTINUOUS
10
3.12018
20
-2.53074
11
3.11287
21
-2.52772
0
LINE
8
BLACK
6
CONTINUOUS
10
3.11287
20
-2.52772
11
3.10629
21
-2.52332
0
LINE
8
BLACK
6
CONTINUOUS
10
3.10629
20
-2.52332
11
3.1007
21
-2.51773
0
LINE
8
BLACK
6
CONTINUOUS
10
3.1007
20
-2.51773
11
3.0963
21
-2.51115
0
LINE
8
BLACK
6
CONTINUOUS
10
3.0963
20
-2.51115
11
3.09327
21
-2.50384
0
LINE
8
BLACK
6
CONTINUOUS
10
3.09327
20
-2.50384
11
3.09173
21
-2.49608
0
LINE
8
BLACK
6
CONTINUOUS
10
3.09173
20
-2.49608
11
3.09173
21
-2.48817
0
LINE
8
BLACK
6
CONTINUOUS
10
3.09173
20
-2.48817
11
3.09327
21
-2.48041
0
LINE
8
BLACK
6
CONTINUOUS
10
3.0944
20
-2.5035
11
3.09734
21
-2.51059
0
LINE
8
BLACK
6
CONTINUOUS
10
3.09734
20
-2.51059
11
3.10161
21
-2.51698
0
LINE
8
BLACK
6
CONTINUOUS
10
3.10161
20
-2.51698
11
3.10704
21
-2.52241
0
LINE
8
BLACK
6
CONTINUOUS
10
3.10704
20
-2.52241
11
3.11342
21
-2.52667
0
LINE
8
BLACK
6
CONTINUOUS
10
3.11342
20
-2.52667
11
3.12052
21
-2.52961
0
LINE
8
BLACK
6
CONTINUOUS
10
3.12052
20
-2.52961
11
3.12805
21
-2.53111
0
LINE
8
BLACK
6
CONTINUOUS
10
3.12805
20
-2.53111
11
3.13573
21
-2.53111
0
LINE
8
BLACK
6
CONTINUOUS
10
3.13573
20
-2.53111
11
3.14326
21
-2.52961
0
LINE
8
BLACK
6
CONTINUOUS
10
3.14326
20
-2.52961
11
3.15036
21
-2.52667
0
LINE
8
BLACK
6
CONTINUOUS
10
3.15036
20
-2.52667
11
3.15674
21
-2.52241
0
LINE
8
BLACK
6
CONTINUOUS
10
3.15674
20
-2.52241
11
3.16217
21
-2.51698
0
LINE
8
BLACK
6
CONTINUOUS
10
3.16217
20
-2.51698
11
3.16644
21
-2.51059
0
LINE
8
BLACK
6
CONTINUOUS
10
3.16644
20
-2.51059
11
3.16938
21
-2.5035
0
LINE
8
BLACK
6
CONTINUOUS
10
3.16938
20
-2.5035
11
3.17087
21
-2.49597
0
LINE
8
BLACK
6
CONTINUOUS
10
3.17087
20
-2.49597
11
3.17087
21
-2.48829
0
LINE
8
BLACK
6
CONTINUOUS
10
3.17087
20
-2.48829
11
3.16938
21
-2.48075
0
LINE
8
BLACK
6
CONTINUOUS
10
3.16938
20
-2.48075
11
3.16644
21
-2.47366
0
LINE
8
BLACK
6
CONTINUOUS
10
3.16644
20
-2.47366
11
3.16217
21
-2.46727
0
LINE
8
BLACK
6
CONTINUOUS
10
3.16217
20
-2.46727
11
3.15674
21
-2.46184
0
LINE
8
BLACK
6
CONTINUOUS
10
3.15674
20
-2.46184
11
3.15036
21
-2.45758
0
LINE
8
BLACK
6
CONTINUOUS
10
3.15036
20
-2.45758
11
3.14326
21
-2.45464
0
LINE
8
BLACK
6
CONTINUOUS
10
3.14326
20
-2.45464
11
3.13573
21
-2.45314
0
LINE
8
BLACK
6
CONTINUOUS
10
3.13573
20
-2.45314
11
3.12805
21
-2.45314
0
LINE
8
BLACK
6
CONTINUOUS
10
3.12805
20
-2.45314
11
3.12052
21
-2.45464
0
LINE
8
BLACK
6
CONTINUOUS
10
3.12052
20
-2.45464
11
3.11342
21
-2.45758
0
LINE
8
BLACK
6
CONTINUOUS
10
3.11342
20
-2.45758
11
3.10704
21
-2.46184
0
LINE
8
BLACK
6
CONTINUOUS
10
3.10704
20
-2.46184
11
3.10161
21
-2.46727
0
LINE
8
BLACK
6
CONTINUOUS
10
3.10161
20
-2.46727
11
3.09734
21
-2.47366
0
LINE
8
BLACK
6
CONTINUOUS
10
3.09734
20
-2.47366
11
3.0944
21
-2.48075
0
LINE
8
BLACK
6
CONTINUOUS
10
3.0944
20
-2.48075
11
3.09291
21
-2.48829
0
LINE
8
BLACK
6
CONTINUOUS
10
3.09291
20
-2.48829
11
3.09291
21
-2.49597
0
LINE
8
BLACK
6
CONTINUOUS
10
3.09291
20
-2.49597
11
3.0944
21
-2.5035
0
LINE
8
BLACK
6
CONTINUOUS
10
3.8039
20
-2.48041
11
3.80693
21
-2.4731
0
LINE
8
BLACK
6
CONTINUOUS
10
3.80693
20
-2.4731
11
3.81133
21
-2.46653
0
LINE
8
BLACK
6
CONTINUOUS
10
3.81133
20
-2.46653
11
3.81692
21
-2.46093
0
LINE
8
BLACK
6
CONTINUOUS
10
3.81692
20
-2.46093
11
3.8235
21
-2.45654
0
LINE
8
BLACK
6
CONTINUOUS
10
3.8235
20
-2.45654
11
3.83081
21
-2.45351
0
LINE
8
BLACK
6
CONTINUOUS
10
3.83081
20
-2.45351
11
3.83856
21
-2.45197
0
LINE
8
BLACK
6
CONTINUOUS
10
3.83856
20
-2.45197
11
3.84648
21
-2.45197
0
LINE
8
BLACK
6
CONTINUOUS
10
3.84648
20
-2.45197
11
3.85423
21
-2.45351
0
LINE
8
BLACK
6
CONTINUOUS
10
3.85423
20
-2.45351
11
3.86154
21
-2.45654
0
LINE
8
BLACK
6
CONTINUOUS
10
3.86154
20
-2.45654
11
3.86812
21
-2.46093
0
LINE
8
BLACK
6
CONTINUOUS
10
3.86812
20
-2.46093
11
3.87371
21
-2.46653
0
LINE
8
BLACK
6
CONTINUOUS
10
3.87371
20
-2.46653
11
3.87811
21
-2.4731
0
LINE
8
BLACK
6
CONTINUOUS
10
3.87811
20
-2.4731
11
3.88114
21
-2.48041
0
LINE
8
BLACK
6
CONTINUOUS
10
3.88114
20
-2.48041
11
3.88268
21
-2.48817
0
LINE
8
BLACK
6
CONTINUOUS
10
3.88268
20
-2.48817
11
3.88268
21
-2.49608
0
LINE
8
BLACK
6
CONTINUOUS
10
3.88268
20
-2.49608
11
3.88114
21
-2.50384
0
LINE
8
BLACK
6
CONTINUOUS
10
3.88114
20
-2.50384
11
3.87811
21
-2.51115
0
LINE
8
BLACK
6
CONTINUOUS
10
3.87811
20
-2.51115
11
3.87371
21
-2.51773
0
LINE
8
BLACK
6
CONTINUOUS
10
3.87371
20
-2.51773
11
3.86812
21
-2.52332
0
LINE
8
BLACK
6
CONTINUOUS
10
3.86812
20
-2.52332
11
3.86154
21
-2.52772
0
LINE
8
BLACK
6
CONTINUOUS
10
3.86154
20
-2.52772
11
3.85423
21
-2.53074
0
LINE
8
BLACK
6
CONTINUOUS
10
3.85423
20
-2.53074
11
3.84648
21
-2.53229
0
LINE
8
BLACK
6
CONTINUOUS
10
3.84648
20
-2.53229
11
3.83856
21
-2.53229
0
LINE
8
BLACK
6
CONTINUOUS
10
3.83856
20
-2.53229
11
3.83081
21
-2.53074
0
LINE
8
BLACK
6
CONTINUOUS
10
3.83081
20
-2.53074
11
3.8235
21
-2.52772
0
LINE
8
BLACK
6
CONTINUOUS
10
3.8235
20
-2.52772
11
3.81692
21
-2.52332
0
LINE
8
BLACK
6
CONTINUOUS
10
3.81692
20
-2.52332
11
3.81133
21
-2.51773
0
LINE
8
BLACK
6
CONTINUOUS
10
3.81133
20
-2.51773
11
3.80693
21
-2.51115
0
LINE
8
BLACK
6
CONTINUOUS
10
3.80693
20
-2.51115
11
3.8039
21
-2.50384
0
LINE
8
BLACK
6
CONTINUOUS
10
3.8039
20
-2.50384
11
3.80236
21
-2.49608
0
LINE
8
BLACK
6
CONTINUOUS
10
3.80236
20
-2.49608
11
3.80236
21
-2.48817
0
LINE
8
BLACK
6
CONTINUOUS
10
3.80236
20
-2.48817
11
3.8039
21
-2.48041
0
LINE
8
BLACK
6
CONTINUOUS
10
3.80503
20
-2.5035
11
3.80797
21
-2.51059
0
LINE
8
BLACK
6
CONTINUOUS
10
3.80797
20
-2.51059
11
3.81224
21
-2.51698
0
LINE
8
BLACK
6
CONTINUOUS
10
3.81224
20
-2.51698
11
3.81767
21
-2.52241
0
LINE
8
BLACK
6
CONTINUOUS
10
3.81767
20
-2.52241
11
3.82405
21
-2.52667
0
LINE
8
BLACK
6
CONTINUOUS
10
3.82405
20
-2.52667
11
3.83115
21
-2.52961
0
LINE
8
BLACK
6
CONTINUOUS
10
3.83115
20
-2.52961
11
3.83868
21
-2.53111
0
LINE
8
BLACK
6
CONTINUOUS
10
3.83868
20
-2.53111
11
3.84636
21
-2.53111
0
LINE
8
BLACK
6
CONTINUOUS
10
3.84636
20
-2.53111
11
3.85389
21
-2.52961
0
LINE
8
BLACK
6
CONTINUOUS
10
3.85389
20
-2.52961
11
3.86099
21
-2.52667
0
LINE
8
BLACK
6
CONTINUOUS
10
3.86099
20
-2.52667
11
3.86737
21
-2.52241
0
LINE
8
BLACK
6
CONTINUOUS
10
3.86737
20
-2.52241
11
3.8728
21
-2.51698
0
LINE
8
BLACK
6
CONTINUOUS
10
3.8728
20
-2.51698
11
3.87707
21
-2.51059
0
LINE
8
BLACK
6
CONTINUOUS
10
3.87707
20
-2.51059
11
3.88001
21
-2.5035
0
LINE
8
BLACK
6
CONTINUOUS
10
3.88001
20
-2.5035
11
3.8815
21
-2.49597
0
LINE
8
BLACK
6
CONTINUOUS
10
3.8815
20
-2.49597
11
3.8815
21
-2.48829
0
LINE
8
BLACK
6
CONTINUOUS
10
3.8815
20
-2.48829
11
3.88001
21
-2.48075
0
LINE
8
BLACK
6
CONTINUOUS
10
3.88001
20
-2.48075
11
3.87707
21
-2.47366
0
LINE
8
BLACK
6
CONTINUOUS
10
3.87707
20
-2.47366
11
3.8728
21
-2.46727
0
LINE
8
BLACK
6
CONTINUOUS
10
3.8728
20
-2.46727
11
3.86737
21
-2.46184
0
LINE
8
BLACK
6
CONTINUOUS
10
3.86737
20
-2.46184
11
3.86099
21
-2.45758
0
LINE
8
BLACK
6
CONTINUOUS
10
3.86099
20
-2.45758
11
3.85389
21
-2.45464
0
LINE
8
BLACK
6
CONTINUOUS
10
3.85389
20
-2.45464
11
3.84636
21
-2.45314
0
LINE
8
BLACK
6
CONTINUOUS
10
3.84636
20
-2.45314
11
3.83868
21
-2.45314
0
LINE
8
BLACK
6
CONTINUOUS
10
3.83868
20
-2.45314
11
3.83115
21
-2.45464
0
LINE
8
BLACK
6
CONTINUOUS
10
3.83115
20
-2.45464
11
3.82405
21
-2.45758
0
LINE
8
BLACK
6
CONTINUOUS
10
3.82405
20
-2.45758
11
3.81767
21
-2.46184
0
LINE
8
BLACK
6
CONTINUOUS
10
3.81767
20
-2.46184
11
3.81224
21
-2.46727
0
LINE
8
BLACK
6
CONTINUOUS
10
3.81224
20
-2.46727
11
3.80797
21
-2.47366
0
LINE
8
BLACK
6
CONTINUOUS
10
3.80797
20
-2.47366
11
3.80503
21
-2.48075
0
LINE
8
BLACK
6
CONTINUOUS
10
3.80503
20
-2.48075
11
3.80354
21
-2.48829
0
LINE
8
BLACK
6
CONTINUOUS
10
3.80354
20
-2.48829
11
3.80354
21
-2.49597
0
LINE
8
BLACK
6
CONTINUOUS
10
3.80354
20
-2.49597
11
3.80503
21
-2.5035
0
LINE
8
BLACK
6
CONTINUOUS
10
0.0558715
20
-1.49025
11
0.0588989
21
-1.48295
0
LINE
8
BLACK
6
CONTINUOUS
10
0.0588989
20
-1.48295
11
0.0632939
21
-1.47637
0
LINE
8
BLACK
6
CONTINUOUS
10
0.0632939
20
-1.47637
11
0.0688877
21
-1.47077
0
LINE
8
BLACK
6
CONTINUOUS
10
0.0688877
20
-1.47077
11
0.0754653
21
-1.46638
0
LINE
8
BLACK
6
CONTINUOUS
10
0.0754653
20
-1.46638
11
0.0827739
21
-1.46335
0
LINE
8
BLACK
6
CONTINUOUS
10
0.0827739
20
-1.46335
11
0.0905328
21
-1.46181
0
LINE
8
BLACK
6
CONTINUOUS
10
0.0905328
20
-1.46181
11
0.0984436
21
-1.46181
0
LINE
8
BLACK
6
CONTINUOUS
10
0.0984436
20
-1.46181
11
0.106202
21
-1.46335
0
LINE
8
BLACK
6
CONTINUOUS
10
0.106202
20
-1.46335
11
0.113511
21
-1.46638
0
LINE
8
BLACK
6
CONTINUOUS
10
0.113511
20
-1.46638
11
0.120089
21
-1.47077
0
LINE
8
BLACK
6
CONTINUOUS
10
0.120089
20
-1.47077
11
0.125683
21
-1.47637
0
LINE
8
BLACK
6
CONTINUOUS
10
0.125683
20
-1.47637
11
0.130078
21
-1.48295
0
LINE
8
BLACK
6
CONTINUOUS
10
0.130078
20
-1.48295
11
0.133105
21
-1.49025
0
LINE
8
BLACK
6
CONTINUOUS
10
0.133105
20
-1.49025
11
0.134648
21
-1.49801
0
LINE
8
BLACK
6
CONTINUOUS
10
0.134648
20
-1.49801
11
0.134648
21
-1.50592
0
LINE
8
BLACK
6
CONTINUOUS
10
0.134648
20
-1.50592
11
0.133105
21
-1.51368
0
LINE
8
BLACK
6
CONTINUOUS
10
0.133105
20
-1.51368
11
0.130078
21
-1.52099
0
LINE
8
BLACK
6
CONTINUOUS
10
0.130078
20
-1.52099
11
0.125683
21
-1.52757
0
LINE
8
BLACK
6
CONTINUOUS
10
0.125683
20
-1.52757
11
0.120089
21
-1.53316
0
LINE
8
BLACK
6
CONTINUOUS
10
0.120089
20
-1.53316
11
0.113511
21
-1.53756
0
LINE
8
BLACK
6
CONTINUOUS
10
0.113511
20
-1.53756
11
0.106202
21
-1.54059
0
LINE
8
BLACK
6
CONTINUOUS
10
0.106202
20
-1.54059
11
0.0984436
21
-1.54213
0
LINE
8
BLACK
6
CONTINUOUS
10
0.0984436
20
-1.54213
11
0.0905328
21
-1.54213
0
LINE
8
BLACK
6
CONTINUOUS
10
0.0905328
20
-1.54213
11
0.0827739
21
-1.54059
0
LINE
8
BLACK
6
CONTINUOUS
10
0.0827739
20
-1.54059
11
0.0754653
21
-1.53756
0
LINE
8
BLACK
6
CONTINUOUS
10
0.0754653
20
-1.53756
11
0.0688877
21
-1.53316
0
LINE
8
BLACK
6
CONTINUOUS
10
0.0688877
20
-1.53316
11
0.0632939
21
-1.52757
0
LINE
8
BLACK
6
CONTINUOUS
10
0.0632939
20
-1.52757
11
0.0588989
21
-1.52099
0
LINE
8
BLACK
6
CONTINUOUS
10
0.0588989
20
-1.52099
11
0.0558715
21
-1.51368
0
LINE
8
BLACK
6
CONTINUOUS
10
0.0558715
20
-1.51368
11
0.0543282
21
-1.50592
0
LINE
8
BLACK
6
CONTINUOUS
10
0.0543282
20
-1.50592
11
0.0543282
21
-1.49801
0
LINE
8
BLACK
6
CONTINUOUS
10
0.0543282
20
-1.49801
11
0.0558715
21
-1.49025
0
LINE
8
BLACK
6
CONTINUOUS
10
0.0570017
20
-1.51334
11
0.0599405
21
-1.52043
0
LINE
8
BLACK
6
CONTINUOUS
10
0.0599405
20
-1.52043
11
0.0642069
21
-1.52682
0
LINE
8
BLACK
6
CONTINUOUS
10
0.0642069
20
-1.52682
11
0.069637
21
-1.53225
0
LINE
8
BLACK
6
CONTINUOUS
10
0.069637
20
-1.53225
11
0.076022
21
-1.53652
0
LINE
8
BLACK
6
CONTINUOUS
10
0.076022
20
-1.53652
11
0.0831168
21
-1.53945
0
LINE
8
BLACK
6
CONTINUOUS
10
0.0831168
20
-1.53945
11
0.0906485
21
-1.54095
0
LINE
8
BLACK
6
CONTINUOUS
10
0.0906485
20
-1.54095
11
0.0983278
21
-1.54095
0
LINE
8
BLACK
6
CONTINUOUS
10
0.0983278
20
-1.54095
11
0.10586
21
-1.53945
0
LINE
8
BLACK
6
CONTINUOUS
10
0.10586
20
-1.53945
11
0.112954
21
-1.53652
0
LINE
8
BLACK
6
CONTINUOUS
10
0.112954
20
-1.53652
11
0.119339
21
-1.53225
0
LINE
8
BLACK
6
CONTINUOUS
10
0.119339
20
-1.53225
11
0.124769
21
-1.52682
0
LINE
8
BLACK
6
CONTINUOUS
10
0.124769
20
-1.52682
11
0.129036
21
-1.52043
0
LINE
8
BLACK
6
CONTINUOUS
10
0.129036
20
-1.52043
11
0.131975
21
-1.51334
0
LINE
8
BLACK
6
CONTINUOUS
10
0.131975
20
-1.51334
11
0.133473
21
-1.50581
0
LINE
8
BLACK
6
CONTINUOUS
10
0.133473
20
-1.50581
11
0.133473
21
-1.49813
0
LINE
8
BLACK
6
CONTINUOUS
10
0.133473
20
-1.49813
11
0.131975
21
-1.4906
0
LINE
8
BLACK
6
CONTINUOUS
10
0.131975
20
-1.4906
11
0.129036
21
-1.4835
0
LINE
8
BLACK
6
CONTINUOUS
10
0.129036
20
-1.4835
11
0.124769
21
-1.47712
0
LINE
8
BLACK
6
CONTINUOUS
10
0.124769
20
-1.47712
11
0.119339
21
-1.47169
0
LINE
8
BLACK
6
CONTINUOUS
10
0.119339
20
-1.47169
11
0.112954
21
-1.46742
0
LINE
8
BLACK
6
CONTINUOUS
10
0.112954
20
-1.46742
11
0.10586
21
-1.46448
0
LINE
8
BLACK
6
CONTINUOUS
10
0.10586
20
-1.46448
11
0.0983278
21
-1.46298
0
LINE
8
BLACK
6
CONTINUOUS
10
0.0983278
20
-1.46298
11
0.0906485
21
-1.46298
0
LINE
8
BLACK
6
CONTINUOUS
10
0.0906485
20
-1.46298
11
0.0831168
21
-1.46448
0
LINE
8
BLACK
6
CONTINUOUS
10
0.0831168
20
-1.46448
11
0.076022
21
-1.46742
0
LINE
8
BLACK
6
CONTINUOUS
10
0.076022
20
-1.46742
11
0.069637
21
-1.47169
0
LINE
8
BLACK
6
CONTINUOUS
10
0.069637
20
-1.47169
11
0.0642069
21
-1.47712
0
LINE
8
BLACK
6
CONTINUOUS
10
0.0642069
20
-1.47712
11
0.0599405
21
-1.4835
0
LINE
8
BLACK
6
CONTINUOUS
10
0.0599405
20
-1.4835
11
0.0570017
21
-1.4906
0
LINE
8
BLACK
6
CONTINUOUS
10
0.0570017
20
-1.4906
11
0.0555036
21
-1.49813
0
LINE
8
BLACK
6
CONTINUOUS
10
0.0555036
20
-1.49813
11
0.0555036
21
-1.50581
0
LINE
8
BLACK
6
CONTINUOUS
10
0.0555036
20
-1.50581
11
0.0570017
21
-1.51334
0
LINE
8
BLACK
6
CONTINUOUS
10
3.0165
20
-1.30325
11
3.01953
21
-1.29594
0
LINE
8
BLACK
6
CONTINUOUS
10
3.01953
20
-1.29594
11
3.02392
21
-1.28936
0
LINE
8
BLACK
6
CONTINUOUS
10
3.02392
20
-1.28936
11
3.02952
21
-1.28377
0
LINE
8
BLACK
6
CONTINUOUS
10
3.02952
20
-1.28377
11
3.0361
21
-1.27937
0
LINE
8
BLACK
6
CONTINUOUS
10
3.0361
20
-1.27937
11
3.0434
21
-1.27634
0
LINE
8
BLACK
6
CONTINUOUS
10
3.0434
20
-1.27634
11
3.05116
21
-1.2748
0
LINE
8
BLACK
6
CONTINUOUS
10
3.05116
20
-1.2748
11
3.05907
21
-1.2748
0
LINE
8
BLACK
6
CONTINUOUS
10
3.05907
20
-1.2748
11
3.06683
21
-1.27634
0
LINE
8
BLACK
6
CONTINUOUS
10
3.06683
20
-1.27634
11
3.07414
21
-1.27937
0
LINE
8
BLACK
6
CONTINUOUS
10
3.07414
20
-1.27937
11
3.08072
21
-1.28377
0
LINE
8
BLACK
6
CONTINUOUS
10
3.08072
20
-1.28377
11
3.08631
21
-1.28936
0
LINE
8
BLACK
6
CONTINUOUS
10
3.08631
20
-1.28936
11
3.09071
21
-1.29594
0
LINE
8
BLACK
6
CONTINUOUS
10
3.09071
20
-1.29594
11
3.09373
21
-1.30325
0
LINE
8
BLACK
6
CONTINUOUS
10
3.09373
20
-1.30325
11
3.09528
21
-1.31101
0
LINE
8
BLACK
6
CONTINUOUS
10
3.09528
20
-1.31101
11
3.09528
21
-1.31892
0
LINE
8
BLACK
6
CONTINUOUS
10
3.09528
20
-1.31892
11
3.09373
21
-1.32667
0
LINE
8
BLACK
6
CONTINUOUS
10
3.09373
20
-1.32667
11
3.09071
21
-1.33398
0
LINE
8
BLACK
6
CONTINUOUS
10
3.09071
20
-1.33398
11
3.08631
21
-1.34056
0
LINE
8
BLACK
6
CONTINUOUS
10
3.08631
20
-1.34056
11
3.08072
21
-1.34615
0
LINE
8
BLACK
6
CONTINUOUS
10
3.08072
20
-1.34615
11
3.07414
21
-1.35055
0
LINE
8
BLACK
6
CONTINUOUS
10
3.07414
20
-1.35055
11
3.06683
21
-1.35358
0
LINE
8
BLACK
6
CONTINUOUS
10
3.06683
20
-1.35358
11
3.05907
21
-1.35512
0
LINE
8
BLACK
6
CONTINUOUS
10
3.05907
20
-1.35512
11
3.05116
21
-1.35512
0
LINE
8
BLACK
6
CONTINUOUS
10
3.05116
20
-1.35512
11
3.0434
21
-1.35358
0
LINE
8
BLACK
6
CONTINUOUS
10
3.0434
20
-1.35358
11
3.0361
21
-1.35055
0
LINE
8
BLACK
6
CONTINUOUS
10
3.0361
20
-1.35055
11
3.02952
21
-1.34615
0
LINE
8
BLACK
6
CONTINUOUS
10
3.02952
20
-1.34615
11
3.02392
21
-1.34056
0
LINE
8
BLACK
6
CONTINUOUS
10
3.02392
20
-1.34056
11
3.01953
21
-1.33398
0
LINE
8
BLACK
6
CONTINUOUS
10
3.01953
20
-1.33398
11
3.0165
21
-1.32667
0
LINE
8
BLACK
6
CONTINUOUS
10
3.0165
20
-1.32667
11
3.01496
21
-1.31892
0
LINE
8
BLACK
6
CONTINUOUS
10
3.01496
20
-1.31892
11
3.01496
21
-1.31101
0
LINE
8
BLACK
6
CONTINUOUS
10
3.01496
20
-1.31101
11
3.0165
21
-1.30325
0
LINE
8
BLACK
6
CONTINUOUS
10
3.01763
20
-1.32633
11
3.02057
21
-1.33343
0
LINE
8
BLACK
6
CONTINUOUS
10
3.02057
20
-1.33343
11
3.02484
21
-1.33981
0
LINE
8
BLACK
6
CONTINUOUS
10
3.02484
20
-1.33981
11
3.03027
21
-1.34524
0
LINE
8
BLACK
6
CONTINUOUS
10
3.03027
20
-1.34524
11
3.03665
21
-1.34951
0
LINE
8
BLACK
6
CONTINUOUS
10
3.03665
20
-1.34951
11
3.04375
21
-1.35245
0
LINE
8
BLACK
6
CONTINUOUS
10
3.04375
20
-1.35245
11
3.05128
21
-1.35395
0
LINE
8
BLACK
6
CONTINUOUS
10
3.05128
20
-1.35395
11
3.05896
21
-1.35395
0
LINE
8
BLACK
6
CONTINUOUS
10
3.05896
20
-1.35395
11
3.06649
21
-1.35245
0
LINE
8
BLACK
6
CONTINUOUS
10
3.06649
20
-1.35245
11
3.07358
21
-1.34951
0
LINE
8
BLACK
6
CONTINUOUS
10
3.07358
20
-1.34951
11
3.07997
21
-1.34524
0
LINE
8
BLACK
6
CONTINUOUS
10
3.07997
20
-1.34524
11
3.0854
21
-1.33981
0
LINE
8
BLACK
6
CONTINUOUS
10
3.0854
20
-1.33981
11
3.08967
21
-1.33343
0
LINE
8
BLACK
6
CONTINUOUS
10
3.08967
20
-1.33343
11
3.0926
21
-1.32633
0
LINE
8
BLACK
6
CONTINUOUS
10
3.0926
20
-1.32633
11
3.0941
21
-1.3188
0
LINE
8
BLACK
6
CONTINUOUS
10
3.0941
20
-1.3188
11
3.0941
21
-1.31112
0
LINE
8
BLACK
6
CONTINUOUS
10
3.0941
20
-1.31112
11
3.0926
21
-1.30359
0
LINE
8
BLACK
6
CONTINUOUS
10
3.0926
20
-1.30359
11
3.08967
21
-1.29649
0
LINE
8
BLACK
6
CONTINUOUS
10
3.08967
20
-1.29649
11
3.0854
21
-1.29011
0
LINE
8
BLACK
6
CONTINUOUS
10
3.0854
20
-1.29011
11
3.07997
21
-1.28468
0
LINE
8
BLACK
6
CONTINUOUS
10
3.07997
20
-1.28468
11
3.07358
21
-1.28041
0
LINE
8
BLACK
6
CONTINUOUS
10
3.07358
20
-1.28041
11
3.06649
21
-1.27747
0
LINE
8
BLACK
6
CONTINUOUS
10
3.06649
20
-1.27747
11
3.05896
21
-1.27598
0
LINE
8
BLACK
6
CONTINUOUS
10
3.05896
20
-1.27598
11
3.05128
21
-1.27598
0
LINE
8
BLACK
6
CONTINUOUS
10
3.05128
20
-1.27598
11
3.04375
21
-1.27747
0
LINE
8
BLACK
6
CONTINUOUS
10
3.04375
20
-1.27747
11
3.03665
21
-1.28041
0
LINE
8
BLACK
6
CONTINUOUS
10
3.03665
20
-1.28041
11
3.03027
21
-1.28468
0
LINE
8
BLACK
6
CONTINUOUS
10
3.03027
20
-1.28468
11
3.02484
21
-1.29011
0
LINE
8
BLACK
6
CONTINUOUS
10
3.02484
20
-1.29011
11
3.02057
21
-1.29649
0
LINE
8
BLACK
6
CONTINUOUS
10
3.02057
20
-1.29649
11
3.01763
21
-1.30359
0
LINE
8
BLACK
6
CONTINUOUS
10
3.01763
20
-1.30359
11
3.01613
21
-1.31112
0
LINE
8
BLACK
6
CONTINUOUS
10
3.01613
20
-1.31112
11
3.01613
21
-1.3188
0
LINE
8
BLACK
6
CONTINUOUS
10
3.01613
20
-1.3188
11
3.01763
21
-1.32633
0
LINE
8
BLACK
6
CONTINUOUS
10
3.8039
20
-1.0001
11
3.80693
21
-0.992788
0
LINE
8
BLACK
6
CONTINUOUS
10
3.80693
20
-0.992788
11
3.81133
21
-0.986211
0
LINE
8
BLACK
6
CONTINUOUS
10
3.81133
20
-0.986211
11
3.81692
21
-0.980617
0
LINE
8
BLACK
6
CONTINUOUS
10
3.81692
20
-0.980617
11
3.8235
21
-0.976222
0
LINE
8
BLACK
6
CONTINUOUS
10
3.8235
20
-0.976222
11
3.83081
21
-0.973194
0
LINE
8
BLACK
6
CONTINUOUS
10
3.83081
20
-0.973194
11
3.83856
21
-0.971651
0
LINE
8
BLACK
6
CONTINUOUS
10
3.83856
20
-0.971651
11
3.84648
21
-0.971651
0
LINE
8
BLACK
6
CONTINUOUS
10
3.84648
20
-0.971651
11
3.85423
21
-0.973194
0
LINE
8
BLACK
6
CONTINUOUS
10
3.85423
20
-0.973194
11
3.86154
21
-0.976222
0
LINE
8
BLACK
6
CONTINUOUS
10
3.86154
20
-0.976222
11
3.86812
21
-0.980617
0
LINE
8
BLACK
6
CONTINUOUS
10
3.86812
20
-0.980617
11
3.87371
21
-0.986211
0
LINE
8
BLACK
6
CONTINUOUS
10
3.87371
20
-0.986211
11
3.87811
21
-0.992788
0
LINE
8
BLACK
6
CONTINUOUS
10
3.87811
20
-0.992788
11
3.88114
21
-1.0001
0
LINE
8
BLACK
6
CONTINUOUS
10
3.88114
20
-1.0001
11
3.88268
21
-1.00786
0
LINE
8
BLACK
6
CONTINUOUS
10
3.88268
20
-1.00786
11
3.88268
21
-1.01577
0
LINE
8
BLACK
6
CONTINUOUS
10
3.88268
20
-1.01577
11
3.88114
21
-1.02353
0
LINE
8
BLACK
6
CONTINUOUS
10
3.88114
20
-1.02353
11
3.87811
21
-1.03083
0
LINE
8
BLACK
6
CONTINUOUS
10
3.87811
20
-1.03083
11
3.87371
21
-1.03741
0
LINE
8
BLACK
6
CONTINUOUS
10
3.87371
20
-1.03741
11
3.86812
21
-1.04301
0
LINE
8
BLACK
6
CONTINUOUS
10
3.86812
20
-1.04301
11
3.86154
21
-1.0474
0
LINE
8
BLACK
6
CONTINUOUS
10
3.86154
20
-1.0474
11
3.85423
21
-1.05043
0
LINE
8
BLACK
6
CONTINUOUS
10
3.85423
20
-1.05043
11
3.84648
21
-1.05197
0
LINE
8
BLACK
6
CONTINUOUS
10
3.84648
20
-1.05197
11
3.83856
21
-1.05197
0
LINE
8
BLACK
6
CONTINUOUS
10
3.83856
20
-1.05197
11
3.83081
21
-1.05043
0
LINE
8
BLACK
6
CONTINUOUS
10
3.83081
20
-1.05043
11
3.8235
21
-1.0474
0
LINE
8
BLACK
6
CONTINUOUS
10
3.8235
20
-1.0474
11
3.81692
21
-1.04301
0
LINE
8
BLACK
6
CONTINUOUS
10
3.81692
20
-1.04301
11
3.81133
21
-1.03741
0
LINE
8
BLACK
6
CONTINUOUS
10
3.81133
20
-1.03741
11
3.80693
21
-1.03083
0
LINE
8
BLACK
6
CONTINUOUS
10
3.80693
20
-1.03083
11
3.8039
21
-1.02353
0
LINE
8
BLACK
6
CONTINUOUS
10
3.8039
20
-1.02353
11
3.80236
21
-1.01577
0
LINE
8
BLACK
6
CONTINUOUS
10
3.80236
20
-1.01577
11
3.80236
21
-1.00786
0
LINE
8
BLACK
6
CONTINUOUS
10
3.80236
20
-1.00786
11
3.8039
21
-1.0001
0
LINE
8
BLACK
6
CONTINUOUS
10
3.80503
20
-1.02318
11
3.80797
21
-1.03028
0
LINE
8
BLACK
6
CONTINUOUS
10
3.80797
20
-1.03028
11
3.81224
21
-1.03666
0
LINE
8
BLACK
6
CONTINUOUS
10
3.81224
20
-1.03666
11
3.81767
21
-1.04209
0
LINE
8
BLACK
6
CONTINUOUS
10
3.81767
20
-1.04209
11
3.82405
21
-1.04636
0
LINE
8
BLACK
6
CONTINUOUS
10
3.82405
20
-1.04636
11
3.83115
21
-1.0493
0
LINE
8
BLACK
6
CONTINUOUS
10
3.83115
20
-1.0493
11
3.83868
21
-1.0508
0
LINE
8
BLACK
6
CONTINUOUS
10
3.83868
20
-1.0508
11
3.84636
21
-1.0508
0
LINE
8
BLACK
6
CONTINUOUS
10
3.84636
20
-1.0508
11
3.85389
21
-1.0493
0
LINE
8
BLACK
6
CONTINUOUS
10
3.85389
20
-1.0493
11
3.86099
21
-1.04636
0
LINE
8
BLACK
6
CONTINUOUS
10
3.86099
20
-1.04636
11
3.86737
21
-1.04209
0
LINE
8
BLACK
6
CONTINUOUS
10
3.86737
20
-1.04209
11
3.8728
21
-1.03666
0
LINE
8
BLACK
6
CONTINUOUS
10
3.8728
20
-1.03666
11
3.87707
21
-1.03028
0
LINE
8
BLACK
6
CONTINUOUS
10
3.87707
20
-1.03028
11
3.88001
21
-1.02318
0
LINE
8
BLACK
6
CONTINUOUS
10
3.88001
20
-1.02318
11
3.8815
21
-1.01565
0
LINE
8
BLACK
6
CONTINUOUS
10
3.8815
20
-1.01565
11
3.8815
21
-1.00797
0
LINE
8
BLACK
6
CONTINUOUS
10
3.8815
20
-1.00797
11
3.88001
21
-1.00044
0
LINE
8
BLACK
6
CONTINUOUS
10
3.88001
20
-1.00044
11
3.87707
21
-0.993345
0
LINE
8
BLACK
6
CONTINUOUS
10
3.87707
20
-0.993345
11
3.8728
21
-0.98696
0
LINE
8
BLACK
6
CONTINUOUS
10
3.8728
20
-0.98696
11
3.86737
21
-0.98153
0
LINE
8
BLACK
6
CONTINUOUS
10
3.86737
20
-0.98153
11
3.86099
21
-0.977263
0
LINE
8
BLACK
6
CONTINUOUS
10
3.86099
20
-0.977263
11
3.85389
21
-0.974325
0
LINE
8
BLACK
6
CONTINUOUS
10
3.85389
20
-0.974325
11
3.84636
21
-0.972826
0
LINE
8
BLACK
6
CONTINUOUS
10
3.84636
20
-0.972826
11
3.83868
21
-0.972826
0
LINE
8
BLACK
6
CONTINUOUS
10
3.83868
20
-0.972826
11
3.83115
21
-0.974325
0
LINE
8
BLACK
6
CONTINUOUS
10
3.83115
20
-0.974325
11
3.82405
21
-0.977263
0
LINE
8
BLACK
6
CONTINUOUS
10
3.82405
20
-0.977263
11
3.81767
21
-0.98153
0
LINE
8
BLACK
6
CONTINUOUS
10
3.81767
20
-0.98153
11
3.81224
21
-0.98696
0
LINE
8
BLACK
6
CONTINUOUS
10
3.81224
20
-0.98696
11
3.80797
21
-0.993345
0
LINE
8
BLACK
6
CONTINUOUS
10
3.80797
20
-0.993345
11
3.80503
21
-1.00044
0
LINE
8
BLACK
6
CONTINUOUS
10
3.80503
20
-1.00044
11
3.80354
21
-1.00797
0
LINE
8
BLACK
6
CONTINUOUS
10
3.80354
20
-1.00797
11
3.80354
21
-1.01565
0
LINE
8
BLACK
6
CONTINUOUS
10
3.80354
20
-1.01565
11
3.80503
21
-1.02318
0
LINE
8
BLACK
6
CONTINUOUS
10
1.51453
20
-0.927656
11
1.51756
21
-0.920347
0
LINE
8
BLACK
6
CONTINUOUS
10
1.51756
20
-0.920347
11
1.52196
21
-0.91377
0
LINE
8
BLACK
6
CONTINUOUS
10
1.52196
20
-0.91377
11
1.52755
21
-0.908176
0
LINE
8
BLACK
6
CONTINUOUS
10
1.52755
20
-0.908176
11
1.53413
21
-0.903781
0
LINE
8
BLACK
6
CONTINUOUS
10
1.53413
20
-0.903781
11
1.54144
21
-0.900753
0
LINE
8
BLACK
6
CONTINUOUS
10
1.54144
20
-0.900753
11
1.54919
21
-0.89921
0
LINE
8
BLACK
6
CONTINUOUS
10
1.54919
20
-0.89921
11
1.55711
21
-0.89921
0
LINE
8
BLACK
6
CONTINUOUS
10
1.55711
20
-0.89921
11
1.56486
21
-0.900753
0
LINE
8
BLACK
6
CONTINUOUS
10
1.56486
20
-0.900753
11
1.57217
21
-0.903781
0
LINE
8
BLACK
6
CONTINUOUS
10
1.57217
20
-0.903781
11
1.57875
21
-0.908176
0
LINE
8
BLACK
6
CONTINUOUS
10
1.57875
20
-0.908176
11
1.58434
21
-0.91377
0
LINE
8
BLACK
6
CONTINUOUS
10
1.58434
20
-0.91377
11
1.58874
21
-0.920347
0
LINE
8
BLACK
6
CONTINUOUS
10
1.58874
20
-0.920347
11
1.59177
21
-0.927656
0
LINE
8
BLACK
6
CONTINUOUS
10
1.59177
20
-0.927656
11
1.59331
21
-0.935415
0
LINE
8
BLACK
6
CONTINUOUS
10
1.59331
20
-0.935415
11
1.59331
21
-0.943326
0
LINE
8
BLACK
6
CONTINUOUS
10
1.59331
20
-0.943326
11
1.59177
21
-0.951084
0
LINE
8
BLACK
6
CONTINUOUS
10
1.59177
20
-0.951084
11
1.58874
21
-0.958393
0
LINE
8
BLACK
6
CONTINUOUS
10
1.58874
20
-0.958393
11
1.58434
21
-0.964971
0
LINE
8
BLACK
6
CONTINUOUS
10
1.58434
20
-0.964971
11
1.57875
21
-0.970564
0
LINE
8
BLACK
6
CONTINUOUS
10
1.57875
20
-0.970564
11
1.57217
21
-0.974959
0
LINE
8
BLACK
6
CONTINUOUS
10
1.57217
20
-0.974959
11
1.56486
21
-0.977987
0
LINE
8
BLACK
6
CONTINUOUS
10
1.56486
20
-0.977987
11
1.55711
21
-0.97953
0
LINE
8
BLACK
6
CONTINUOUS
10
1.55711
20
-0.97953
11
1.54919
21
-0.97953
0
LINE
8
BLACK
6
CONTINUOUS
10
1.54919
20
-0.97953
11
1.54144
21
-0.977987
0
LINE
8
BLACK
6
CONTINUOUS
10
1.54144
20
-0.977987
11
1.53413
21
-0.974959
0
LINE
8
BLACK
6
CONTINUOUS
10
1.53413
20
-0.974959
11
1.52755
21
-0.970564
0
LINE
8
BLACK
6
CONTINUOUS
10
1.52755
20
-0.970564
11
1.52196
21
-0.964971
0
LINE
8
BLACK
6
CONTINUOUS
10
1.52196
20
-0.964971
11
1.51756
21
-0.958393
0
LINE
8
BLACK
6
CONTINUOUS
10
1.51756
20
-0.958393
11
1.51453
21
-0.951084
0
LINE
8
BLACK
6
CONTINUOUS
10
1.51453
20
-0.951084
11
1.51299
21
-0.943326
0
LINE
8
BLACK
6
CONTINUOUS
10
1.51299
20
-0.943326
11
1.51299
21
-0.935415
0
LINE
8
BLACK
6
CONTINUOUS
10
1.51299
20
-0.935415
11
1.51453
21
-0.927656
0
LINE
8
BLACK
6
CONTINUOUS
10
1.51566
20
-0.950741
11
1.5186
21
-0.957836
0
LINE
8
BLACK
6
CONTINUOUS
10
1.5186
20
-0.957836
11
1.52287
21
-0.964221
0
LINE
8
BLACK
6
CONTINUOUS
10
1.52287
20
-0.964221
11
1.5283
21
-0.969651
0
LINE
8
BLACK
6
CONTINUOUS
10
1.5283
20
-0.969651
11
1.53468
21
-0.973918
0
LINE
8
BLACK
6
CONTINUOUS
10
1.53468
20
-0.973918
11
1.54178
21
-0.976857
0
LINE
8
BLACK
6
CONTINUOUS
10
1.54178
20
-0.976857
11
1.54931
21
-0.978355
0
LINE
8
BLACK
6
CONTINUOUS
10
1.54931
20
-0.978355
11
1.55699
21
-0.978355
0
LINE
8
BLACK
6
CONTINUOUS
10
1.55699
20
-0.978355
11
1.56452
21
-0.976857
0
LINE
8
BLACK
6
CONTINUOUS
10
1.56452
20
-0.976857
11
1.57162
21
-0.973918
0
LINE
8
BLACK
6
CONTINUOUS
10
1.57162
20
-0.973918
11
1.578
21
-0.969651
0
LINE
8
BLACK
6
CONTINUOUS
10
1.578
20
-0.969651
11
1.58343
21
-0.964221
0
LINE
8
BLACK
6
CONTINUOUS
10
1.58343
20
-0.964221
11
1.5877
21
-0.957836
0
LINE
8
BLACK
6
CONTINUOUS
10
1.5877
20
-0.957836
11
1.59064
21
-0.950741
0
LINE
8
BLACK
6
CONTINUOUS
10
1.59064
20
-0.950741
11
1.59213
21
-0.94321
0
LINE
8
BLACK
6
CONTINUOUS
10
1.59213
20
-0.94321
11
1.59213
21
-0.93553
0
LINE
8
BLACK
6
CONTINUOUS
10
1.59213
20
-0.93553
11
1.59064
21
-0.927999
0
LINE
8
BLACK
6
CONTINUOUS
10
1.59064
20
-0.927999
11
1.5877
21
-0.920904
0
LINE
8
BLACK
6
CONTINUOUS
10
1.5877
20
-0.920904
11
1.58343
21
-0.914519
0
LINE
8
BLACK
6
CONTINUOUS
10
1.58343
20
-0.914519
11
1.578
21
-0.909089
0
LINE
8
BLACK
6
CONTINUOUS
10
1.578
20
-0.909089
11
1.57162
21
-0.904822
0
LINE
8
BLACK
6
CONTINUOUS
10
1.57162
20
-0.904822
11
1.56452
21
-0.901884
0
LINE
8
BLACK
6
CONTINUOUS
10
1.56452
20
-0.901884
11
1.55699
21
-0.900385
0
LINE
8
BLACK
6
CONTINUOUS
10
1.55699
20
-0.900385
11
1.54931
21
-0.900385
0
LINE
8
BLACK
6
CONTINUOUS
10
1.54931
20
-0.900385
11
1.54178
21
-0.901884
0
LINE
8
BLACK
6
CONTINUOUS
10
1.54178
20
-0.901884
11
1.53468
21
-0.904822
0
LINE
8
BLACK
6
CONTINUOUS
10
1.53468
20
-0.904822
11
1.5283
21
-0.909089
0
LINE
8
BLACK
6
CONTINUOUS
10
1.5283
20
-0.909089
11
1.52287
21
-0.914519
0
LINE
8
BLACK
6
CONTINUOUS
10
1.52287
20
-0.914519
11
1.5186
21
-0.920904
0
LINE
8
BLACK
6
CONTINUOUS
10
1.5186
20
-0.920904
11
1.51566
21
-0.927999
0
LINE
8
BLACK
6
CONTINUOUS
10
1.51566
20
-0.927999
11
1.51416
21
-0.93553
0
LINE
8
BLACK
6
CONTINUOUS
10
1.51416
20
-0.93553
11
1.51416
21
-0.94321
0
LINE
8
BLACK
6
CONTINUOUS
10
1.51416
20
-0.94321
11
1.51566
21
-0.950741
0
LINE
8
BLACK
6
CONTINUOUS
10
2.55981
20
0.479824
11
2.56284
21
0.487133
0
LINE
8
BLACK
6
CONTINUOUS
10
2.56284
20
0.487133
11
2.56723
21
0.493711
0
LINE
8
BLACK
6
CONTINUOUS
10
2.56723
20
0.493711
11
2.57282
21
0.499305
0
LINE
8
BLACK
6
CONTINUOUS
10
2.57282
20
0.499305
11
2.5794
21
0.5037
0
LINE
8
BLACK
6
CONTINUOUS
10
2.5794
20
0.5037
11
2.58671
21
0.506727
0
LINE
8
BLACK
6
CONTINUOUS
10
2.58671
20
0.506727
11
2.59447
21
0.50827
0
LINE
8
BLACK
6
CONTINUOUS
10
2.59447
20
0.50827
11
2.60238
21
0.50827
0
LINE
8
BLACK
6
CONTINUOUS
10
2.60238
20
0.50827
11
2.61014
21
0.506727
0
LINE
8
BLACK
6
CONTINUOUS
10
2.61014
20
0.506727
11
2.61745
21
0.5037
0
LINE
8
BLACK
6
CONTINUOUS
10
2.61745
20
0.5037
11
2.62403
21
0.499305
0
LINE
8
BLACK
6
CONTINUOUS
10
2.62403
20
0.499305
11
2.62962
21
0.493711
0
LINE
8
BLACK
6
CONTINUOUS
10
2.62962
20
0.493711
11
2.63401
21
0.487133
0
LINE
8
BLACK
6
CONTINUOUS
10
2.63401
20
0.487133
11
2.63704
21
0.479824
0
LINE
8
BLACK
6
CONTINUOUS
10
2.63704
20
0.479824
11
2.63859
21
0.472066
0
LINE
8
BLACK
6
CONTINUOUS
10
2.63859
20
0.472066
11
2.63859
21
0.464155
0
LINE
8
BLACK
6
CONTINUOUS
10
2.63859
20
0.464155
11
2.63704
21
0.456396
0
LINE
8
BLACK
6
CONTINUOUS
10
2.63704
20
0.456396
11
2.63401
21
0.449087
0
LINE
8
BLACK
6
CONTINUOUS
10
2.63401
20
0.449087
11
2.62962
21
0.44251
0
LINE
8
BLACK
6
CONTINUOUS
10
2.62962
20
0.44251
11
2.62403
21
0.436916
0
LINE
8
BLACK
6
CONTINUOUS
10
2.62403
20
0.436916
11
2.61745
21
0.432521
0
LINE
8
BLACK
6
CONTINUOUS
10
2.61745
20
0.432521
11
2.61014
21
0.429494
0
LINE
8
BLACK
6
CONTINUOUS
10
2.61014
20
0.429494
11
2.60238
21
0.42795
0
LINE
8
BLACK
6
CONTINUOUS
10
2.60238
20
0.42795
11
2.59447
21
0.42795
0
LINE
8
BLACK
6
CONTINUOUS
10
2.59447
20
0.42795
11
2.58671
21
0.429494
0
LINE
8
BLACK
6
CONTINUOUS
10
2.58671
20
0.429494
11
2.5794
21
0.432521
0
LINE
8
BLACK
6
CONTINUOUS
10
2.5794
20
0.432521
11
2.57282
21
0.436916
0
LINE
8
BLACK
6
CONTINUOUS
10
2.57282
20
0.436916
11
2.56723
21
0.44251
0
LINE
8
BLACK
6
CONTINUOUS
10
2.56723
20
0.44251
11
2.56284
21
0.449087
0
LINE
8
BLACK
6
CONTINUOUS
10
2.56284
20
0.449087
11
2.55981
21
0.456396
0
LINE
8
BLACK
6
CONTINUOUS
10
2.55981
20
0.456396
11
2.55827
21
0.464155
0
LINE
8
BLACK
6
CONTINUOUS
10
2.55827
20
0.464155
11
2.55827
21
0.472066
0
LINE
8
BLACK
6
CONTINUOUS
10
2.55827
20
0.472066
11
2.55981
21
0.479824
0
LINE
8
BLACK
6
CONTINUOUS
10
2.56094
20
0.456739
11
2.56388
21
0.449644
0
LINE
8
BLACK
6
CONTINUOUS
10
2.56388
20
0.449644
11
2.56814
21
0.443259
0
LINE
8
BLACK
6
CONTINUOUS
10
2.56814
20
0.443259
11
2.57357
21
0.437829
0
LINE
8
BLACK
6
CONTINUOUS
10
2.57357
20
0.437829
11
2.57996
21
0.433563
0
LINE
8
BLACK
6
CONTINUOUS
10
2.57996
20
0.433563
11
2.58705
21
0.430624
0
LINE
8
BLACK
6
CONTINUOUS
10
2.58705
20
0.430624
11
2.59459
21
0.429126
0
LINE
8
BLACK
6
CONTINUOUS
10
2.59459
20
0.429126
11
2.60226
21
0.429126
0
LINE
8
BLACK
6
CONTINUOUS
10
2.60226
20
0.429126
11
2.6098
21
0.430624
0
LINE
8
BLACK
6
CONTINUOUS
10
2.6098
20
0.430624
11
2.61689
21
0.433563
0
LINE
8
BLACK
6
CONTINUOUS
10
2.61689
20
0.433563
11
2.62328
21
0.437829
0
LINE
8
BLACK
6
CONTINUOUS
10
2.62328
20
0.437829
11
2.62871
21
0.443259
0
LINE
8
BLACK
6
CONTINUOUS
10
2.62871
20
0.443259
11
2.63297
21
0.449644
0
LINE
8
BLACK
6
CONTINUOUS
10
2.63297
20
0.449644
11
2.63591
21
0.456739
0
LINE
8
BLACK
6
CONTINUOUS
10
2.63591
20
0.456739
11
2.63741
21
0.464271
0
LINE
8
BLACK
6
CONTINUOUS
10
2.63741
20
0.464271
11
2.63741
21
0.47195
0
LINE
8
BLACK
6
CONTINUOUS
10
2.63741
20
0.47195
11
2.63591
21
0.479482
0
LINE
8
BLACK
6
CONTINUOUS
10
2.63591
20
0.479482
11
2.63297
21
0.486576
0
LINE
8
BLACK
6
CONTINUOUS
10
2.63297
20
0.486576
11
2.62871
21
0.492961
0
LINE
8
BLACK
6
CONTINUOUS
10
2.62871
20
0.492961
11
2.62328
21
0.498392
0
LINE
8
BLACK
6
CONTINUOUS
10
2.62328
20
0.498392
11
2.61689
21
0.502658
0
LINE
8
BLACK
6
CONTINUOUS
10
2.61689
20
0.502658
11
2.6098
21
0.505597
0
LINE
8
BLACK
6
CONTINUOUS
10
2.6098
20
0.505597
11
2.60226
21
0.507095
0
LINE
8
BLACK
6
CONTINUOUS
10
2.60226
20
0.507095
11
2.59459
21
0.507095
0
LINE
8
BLACK
6
CONTINUOUS
10
2.59459
20
0.507095
11
2.58705
21
0.505597
0
LINE
8
BLACK
6
CONTINUOUS
10
2.58705
20
0.505597
11
2.57996
21
0.502658
0
LINE
8
BLACK
6
CONTINUOUS
10
2.57996
20
0.502658
11
2.57357
21
0.498392
0
LINE
8
BLACK
6
CONTINUOUS
10
2.57357
20
0.498392
11
2.56814
21
0.492961
0
LINE
8
BLACK
6
CONTINUOUS
10
2.56814
20
0.492961
11
2.56388
21
0.486576
0
LINE
8
BLACK
6
CONTINUOUS
10
2.56388
20
0.486576
11
2.56094
21
0.479482
0
LINE
8
BLACK
6
CONTINUOUS
10
2.56094
20
0.479482
11
2.55944
21
0.47195
0
LINE
8
BLACK
6
CONTINUOUS
10
2.55944
20
0.47195
11
2.55944
21
0.464271
0
LINE
8
BLACK
6
CONTINUOUS
10
2.55944
20
0.464271
11
2.56094
21
0.456739
0
LINE
8
BLACK
6
CONTINUOUS
10
1.3669
20
0.479824
11
1.36992
21
0.487133
0
LINE
8
BLACK
6
CONTINUOUS
10
1.36992
20
0.487133
11
1.37432
21
0.493711
0
LINE
8
BLACK
6
CONTINUOUS
10
1.37432
20
0.493711
11
1.37991
21
0.499305
0
LINE
8
BLACK
6
CONTINUOUS
10
1.37991
20
0.499305
11
1.38649
21
0.5037
0
LINE
8
BLACK
6
CONTINUOUS
10
1.38649
20
0.5037
11
1.3938
21
0.506727
0
LINE
8
BLACK
6
CONTINUOUS
10
1.3938
20
0.506727
11
1.40156
21
0.50827
0
LINE
8
BLACK
6
CONTINUOUS
10
1.40156
20
0.50827
11
1.40947
21
0.50827
0
LINE
8
BLACK
6
CONTINUOUS
10
1.40947
20
0.50827
11
1.41723
21
0.506727
0
LINE
8
BLACK
6
CONTINUOUS
10
1.41723
20
0.506727
11
1.42453
21
0.5037
0
LINE
8
BLACK
6
CONTINUOUS
10
1.42453
20
0.5037
11
1.43111
21
0.499305
0
LINE
8
BLACK
6
CONTINUOUS
10
1.43111
20
0.499305
11
1.43671
21
0.493711
0
LINE
8
BLACK
6
CONTINUOUS
10
1.43671
20
0.493711
11
1.4411
21
0.487133
0
LINE
8
BLACK
6
CONTINUOUS
10
1.4411
20
0.487133
11
1.44413
21
0.479824
0
LINE
8
BLACK
6
CONTINUOUS
10
1.44413
20
0.479824
11
1.44567
21
0.472066
0
LINE
8
BLACK
6
CONTINUOUS
10
1.44567
20
0.472066
11
1.44567
21
0.464155
0
LINE
8
BLACK
6
CONTINUOUS
10
1.44567
20
0.464155
11
1.44413
21
0.456396
0
LINE
8
BLACK
6
CONTINUOUS
10
1.44413
20
0.456396
11
1.4411
21
0.449087
0
LINE
8
BLACK
6
CONTINUOUS
10
1.4411
20
0.449087
11
1.43671
21
0.44251
0
LINE
8
BLACK
6
CONTINUOUS
10
1.43671
20
0.44251
11
1.43111
21
0.436916
0
LINE
8
BLACK
6
CONTINUOUS
10
1.43111
20
0.436916
11
1.42453
21
0.432521
0
LINE
8
BLACK
6
CONTINUOUS
10
1.42453
20
0.432521
11
1.41723
21
0.429494
0
LINE
8
BLACK
6
CONTINUOUS
10
1.41723
20
0.429494
11
1.40947
21
0.42795
0
LINE
8
BLACK
6
CONTINUOUS
10
1.40947
20
0.42795
11
1.40156
21
0.42795
0
LINE
8
BLACK
6
CONTINUOUS
10
1.40156
20
0.42795
11
1.3938
21
0.429494
0
LINE
8
BLACK
6
CONTINUOUS
10
1.3938
20
0.429494
11
1.38649
21
0.432521
0
LINE
8
BLACK
6
CONTINUOUS
10
1.38649
20
0.432521
11
1.37991
21
0.436916
0
LINE
8
BLACK
6
CONTINUOUS
10
1.37991
20
0.436916
11
1.37432
21
0.44251
0
LINE
8
BLACK
6
CONTINUOUS
10
1.37432
20
0.44251
11
1.36992
21
0.449087
0
LINE
8
BLACK
6
CONTINUOUS
10
1.36992
20
0.449087
11
1.3669
21
0.456396
0
LINE
8
BLACK
6
CONTINUOUS
10
1.3669
20
0.456396
11
1.36535
21
0.464155
0
LINE
8
BLACK
6
CONTINUOUS
10
1.36535
20
0.464155
11
1.36535
21
0.472066
0
LINE
8
BLACK
6
CONTINUOUS
10
1.36535
20
0.472066
11
1.3669
21
0.479824
0
LINE
8
BLACK
6
CONTINUOUS
10
1.36803
20
0.456739
11
1.37096
21
0.449644
0
LINE
8
BLACK
6
CONTINUOUS
10
1.37096
20
0.449644
11
1.37523
21
0.443259
0
LINE
8
BLACK
6
CONTINUOUS
10
1.37523
20
0.443259
11
1.38066
21
0.437829
0
LINE
8
BLACK
6
CONTINUOUS
10
1.38066
20
0.437829
11
1.38705
21
0.433563
0
LINE
8
BLACK
6
CONTINUOUS
10
1.38705
20
0.433563
11
1.39414
21
0.430624
0
LINE
8
BLACK
6
CONTINUOUS
10
1.39414
20
0.430624
11
1.40167
21
0.429126
0
LINE
8
BLACK
6
CONTINUOUS
10
1.40167
20
0.429126
11
1.40935
21
0.429126
0
LINE
8
BLACK
6
CONTINUOUS
10
1.40935
20
0.429126
11
1.41688
21
0.430624
0
LINE
8
BLACK
6
CONTINUOUS
10
1.41688
20
0.430624
11
1.42398
21
0.433563
0
LINE
8
BLACK
6
CONTINUOUS
10
1.42398
20
0.433563
11
1.43036
21
0.437829
0
LINE
8
BLACK
6
CONTINUOUS
10
1.43036
20
0.437829
11
1.43579
21
0.443259
0
LINE
8
BLACK
6
CONTINUOUS
10
1.43579
20
0.443259
11
1.44006
21
0.449644
0
LINE
8
BLACK
6
CONTINUOUS
10
1.44006
20
0.449644
11
1.443
21
0.456739
0
LINE
8
BLACK
6
CONTINUOUS
10
1.443
20
0.456739
11
1.4445
21
0.464271
0
LINE
8
BLACK
6
CONTINUOUS
10
1.4445
20
0.464271
11
1.4445
21
0.47195
0
LINE
8
BLACK
6
CONTINUOUS
10
1.4445
20
0.47195
11
1.443
21
0.479482
0
LINE
8
BLACK
6
CONTINUOUS
10
1.443
20
0.479482
11
1.44006
21
0.486576
0
LINE
8
BLACK
6
CONTINUOUS
10
1.44006
20
0.486576
11
1.43579
21
0.492961
0
LINE
8
BLACK
6
CONTINUOUS
10
1.43579
20
0.492961
11
1.43036
21
0.498392
0
LINE
8
BLACK
6
CONTINUOUS
10
1.43036
20
0.498392
11
1.42398
21
0.502658
0
LINE
8
BLACK
6
CONTINUOUS
10
1.42398
20
0.502658
11
1.41688
21
0.505597
0
LINE
8
BLACK
6
CONTINUOUS
10
1.41688
20
0.505597
11
1.40935
21
0.507095
0
LINE
8
BLACK
6
CONTINUOUS
10
1.40935
20
0.507095
11
1.40167
21
0.507095
0
LINE
8
BLACK
6
CONTINUOUS
10
1.40167
20
0.507095
11
1.39414
21
0.505597
0
LINE
8
BLACK
6
CONTINUOUS
10
1.39414
20
0.505597
11
1.38705
21
0.502658
0
LINE
8
BLACK
6
CONTINUOUS
10
1.38705
20
0.502658
11
1.38066
21
0.498392
0
LINE
8
BLACK
6
CONTINUOUS
10
1.38066
20
0.498392
11
1.37523
21
0.492961
0
LINE
8
BLACK
6
CONTINUOUS
10
1.37523
20
0.492961
11
1.37096
21
0.486576
0
LINE
8
BLACK
6
CONTINUOUS
10
1.37096
20
0.486576
11
1.36803
21
0.479482
0
LINE
8
BLACK
6
CONTINUOUS
10
1.36803
20
0.479482
11
1.36653
21
0.47195
0
LINE
8
BLACK
6
CONTINUOUS
10
1.36653
20
0.47195
11
1.36653
21
0.464271
0
LINE
8
BLACK
6
CONTINUOUS
10
1.36653
20
0.464271
11
1.36803
21
0.456739
0
LINE
8
BLACK
6
CONTINUOUS
10
3.8039
20
0.479824
11
3.80693
21
0.487133
0
LINE
8
BLACK
6
CONTINUOUS
10
3.80693
20
0.487133
11
3.81133
21
0.493711
0
LINE
8
BLACK
6
CONTINUOUS
10
3.81133
20
0.493711
11
3.81692
21
0.499305
0
LINE
8
BLACK
6
CONTINUOUS
10
3.81692
20
0.499305
11
3.8235
21
0.5037
0
LINE
8
BLACK
6
CONTINUOUS
10
3.8235
20
0.5037
11
3.83081
21
0.506727
0
LINE
8
BLACK
6
CONTINUOUS
10
3.83081
20
0.506727
11
3.83856
21
0.50827
0
LINE
8
BLACK
6
CONTINUOUS
10
3.83856
20
0.50827
11
3.84648
21
0.50827
0
LINE
8
BLACK
6
CONTINUOUS
10
3.84648
20
0.50827
11
3.85423
21
0.506727
0
LINE
8
BLACK
6
CONTINUOUS
10
3.85423
20
0.506727
11
3.86154
21
0.5037
0
LINE
8
BLACK
6
CONTINUOUS
10
3.86154
20
0.5037
11
3.86812
21
0.499305
0
LINE
8
BLACK
6
CONTINUOUS
10
3.86812
20
0.499305
11
3.87371
21
0.493711
0
LINE
8
BLACK
6
CONTINUOUS
10
3.87371
20
0.493711
11
3.87811
21
0.487133
0
LINE
8
BLACK
6
CONTINUOUS
10
3.87811
20
0.487133
11
3.88114
21
0.479824
0
LINE
8
BLACK
6
CONTINUOUS
10
3.88114
20
0.479824
11
3.88268
21
0.472066
0
LINE
8
BLACK
6
CONTINUOUS
10
3.88268
20
0.472066
11
3.88268
21
0.464155
0
LINE
8
BLACK
6
CONTINUOUS
10
3.88268
20
0.464155
11
3.88114
21
0.456396
0
LINE
8
BLACK
6
CONTINUOUS
10
3.88114
20
0.456396
11
3.87811
21
0.449087
0
LINE
8
BLACK
6
CONTINUOUS
10
3.87811
20
0.449087
11
3.87371
21
0.44251
0
LINE
8
BLACK
6
CONTINUOUS
10
3.87371
20
0.44251
11
3.86812
21
0.436916
0
LINE
8
BLACK
6
CONTINUOUS
10
3.86812
20
0.436916
11
3.86154
21
0.432521
0
LINE
8
BLACK
6
CONTINUOUS
10
3.86154
20
0.432521
11
3.85423
21
0.429494
0
LINE
8
BLACK
6
CONTINUOUS
10
3.85423
20
0.429494
11
3.84648
21
0.42795
0
LINE
8
BLACK
6
CONTINUOUS
10
3.84648
20
0.42795
11
3.83856
21
0.42795
0
LINE
8
BLACK
6
CONTINUOUS
10
3.83856
20
0.42795
11
3.83081
21
0.429494
0
LINE
8
BLACK
6
CONTINUOUS
10
3.83081
20
0.429494
11
3.8235
21
0.432521
0
LINE
8
BLACK
6
CONTINUOUS
10
3.8235
20
0.432521
11
3.81692
21
0.436916
0
LINE
8
BLACK
6
CONTINUOUS
10
3.81692
20
0.436916
11
3.81133
21
0.44251
0
LINE
8
BLACK
6
CONTINUOUS
10
3.81133
20
0.44251
11
3.80693
21
0.449087
0
LINE
8
BLACK
6
CONTINUOUS
10
3.80693
20
0.449087
11
3.8039
21
0.456396
0
LINE
8
BLACK
6
CONTINUOUS
10
3.8039
20
0.456396
11
3.80236
21
0.464155
0
LINE
8
BLACK
6
CONTINUOUS
10
3.80236
20
0.464155
11
3.80236
21
0.472066
0
LINE
8
BLACK
6
CONTINUOUS
10
3.80236
20
0.472066
11
3.8039
21
0.479824
0
LINE
8
BLACK
6
CONTINUOUS
10
3.80503
20
0.456739
11
3.80797
21
0.449644
0
LINE
8
BLACK
6
CONTINUOUS
10
3.80797
20
0.449644
11
3.81224
21
0.443259
0
LINE
8
BLACK
6
CONTINUOUS
10
3.81224
20
0.443259
11
3.81767
21
0.437829
0
LINE
8
BLACK
6
CONTINUOUS
10
3.81767
20
0.437829
11
3.82405
21
0.433563
0
LINE
8
BLACK
6
CONTINUOUS
10
3.82405
20
0.433563
11
3.83115
21
0.430624
0
LINE
8
BLACK
6
CONTINUOUS
10
3.83115
20
0.430624
11
3.83868
21
0.429126
0
LINE
8
BLACK
6
CONTINUOUS
10
3.83868
20
0.429126
11
3.84636
21
0.429126
0
LINE
8
BLACK
6
CONTINUOUS
10
3.84636
20
0.429126
11
3.85389
21
0.430624
0
LINE
8
BLACK
6
CONTINUOUS
10
3.85389
20
0.430624
11
3.86099
21
0.433563
0
LINE
8
BLACK
6
CONTINUOUS
10
3.86099
20
0.433563
11
3.86737
21
0.437829
0
LINE
8
BLACK
6
CONTINUOUS
10
3.86737
20
0.437829
11
3.8728
21
0.443259
0
LINE
8
BLACK
6
CONTINUOUS
10
3.8728
20
0.443259
11
3.87707
21
0.449644
0
LINE
8
BLACK
6
CONTINUOUS
10
3.87707
20
0.449644
11
3.88001
21
0.456739
0
LINE
8
BLACK
6
CONTINUOUS
10
3.88001
20
0.456739
11
3.8815
21
0.464271
0
LINE
8
BLACK
6
CONTINUOUS
10
3.8815
20
0.464271
11
3.8815
21
0.47195
0
LINE
8
BLACK
6
CONTINUOUS
10
3.8815
20
0.47195
11
3.88001
21
0.479482
0
LINE
8
BLACK
6
CONTINUOUS
10
3.88001
20
0.479482
11
3.87707
21
0.486576
0
LINE
8
BLACK
6
CONTINUOUS
10
3.87707
20
0.486576
11
3.8728
21
0.492961
0
LINE
8
BLACK
6
CONTINUOUS
10
3.8728
20
0.492961
11
3.86737
21
0.498392
0
LINE
8
BLACK
6
CONTINUOUS
10
3.86737
20
0.498392
11
3.86099
21
0.502658
0
LINE
8
BLACK
6
CONTINUOUS
10
3.86099
20
0.502658
11
3.85389
21
0.505597
0
LINE
8
BLACK
6
CONTINUOUS
10
3.85389
20
0.505597
11
3.84636
21
0.507095
0
LINE
8
BLACK
6
CONTINUOUS
10
3.84636
20
0.507095
11
3.83868
21
0.507095
0
LINE
8
BLACK
6
CONTINUOUS
10
3.83868
20
0.507095
11
3.83115
21
0.505597
0
LINE
8
BLACK
6
CONTINUOUS
10
3.83115
20
0.505597
11
3.82405
21
0.502658
0
LINE
8
BLACK
6
CONTINUOUS
10
3.82405
20
0.502658
11
3.81767
21
0.498392
0
LINE
8
BLACK
6
CONTINUOUS
10
3.81767
20
0.498392
11
3.81224
21
0.492961
0
LINE
8
BLACK
6
CONTINUOUS
10
3.81224
20
0.492961
11
3.80797
21
0.486576
0
LINE
8
BLACK
6
CONTINUOUS
10
3.80797
20
0.486576
11
3.80503
21
0.479482
0
LINE
8
BLACK
6
CONTINUOUS
10
3.80503
20
0.479482
11
3.80354
21
0.47195
0
LINE
8
BLACK
6
CONTINUOUS
10
3.80354
20
0.47195
11
3.80354
21
0.464271
0
LINE
8
BLACK
6
CONTINUOUS
10
3.80354
20
0.464271
11
3.80503
21
0.456739
0
LINE
8
BLACK
6
CONTINUOUS
10
0.0558715
20
0.479824
11
0.0588989
21
0.487133
0
LINE
8
BLACK
6
CONTINUOUS
10
0.0588989
20
0.487133
11
0.0632939
21
0.493711
0
LINE
8
BLACK
6
CONTINUOUS
10
0.0632939
20
0.493711
11
0.0688877
21
0.499305
0
LINE
8
BLACK
6
CONTINUOUS
10
0.0688877
20
0.499305
11
0.0754653
21
0.5037
0
LINE
8
BLACK
6
CONTINUOUS
10
0.0754653
20
0.5037
11
0.0827739
21
0.506727
0
LINE
8
BLACK
6
CONTINUOUS
10
0.0827739
20
0.506727
11
0.0905328
21
0.50827
0
LINE
8
BLACK
6
CONTINUOUS
10
0.0905328
20
0.50827
11
0.0984436
21
0.50827
0
LINE
8
BLACK
6
CONTINUOUS
10
0.0984436
20
0.50827
11
0.106202
21
0.506727
0
LINE
8
BLACK
6
CONTINUOUS
10
0.106202
20
0.506727
11
0.113511
21
0.5037
0
LINE
8
BLACK
6
CONTINUOUS
10
0.113511
20
0.5037
11
0.120089
21
0.499305
0
LINE
8
BLACK
6
CONTINUOUS
10
0.120089
20
0.499305
11
0.125683
21
0.493711
0
LINE
8
BLACK
6
CONTINUOUS
10
0.125683
20
0.493711
11
0.130078
21
0.487133
0
LINE
8
BLACK
6
CONTINUOUS
10
0.130078
20
0.487133
11
0.133105
21
0.479824
0
LINE
8
BLACK
6
CONTINUOUS
10
0.133105
20
0.479824
11
0.134648
21
0.472066
0
LINE
8
BLACK
6
CONTINUOUS
10
0.134648
20
0.472066
11
0.134648
21
0.464155
0
LINE
8
BLACK
6
CONTINUOUS
10
0.134648
20
0.464155
11
0.133105
21
0.456396
0
LINE
8
BLACK
6
CONTINUOUS
10
0.133105
20
0.456396
11
0.130078
21
0.449087
0
LINE
8
BLACK
6
CONTINUOUS
10
0.130078
20
0.449087
11
0.125683
21
0.44251
0
LINE
8
BLACK
6
CONTINUOUS
10
0.125683
20
0.44251
11
0.120089
21
0.436916
0
LINE
8
BLACK
6
CONTINUOUS
10
0.120089
20
0.436916
11
0.113511
21
0.432521
0
LINE
8
BLACK
6
CONTINUOUS
10
0.113511
20
0.432521
11
0.106202
21
0.429494
0
LINE
8
BLACK
6
CONTINUOUS
10
0.106202
20
0.429494
11
0.0984436
21
0.42795
0
LINE
8
BLACK
6
CONTINUOUS
10
0.0984436
20
0.42795
11
0.0905328
21
0.42795
0
LINE
8
BLACK
6
CONTINUOUS
10
0.0905328
20
0.42795
11
0.0827739
21
0.429494
0
LINE
8
BLACK
6
CONTINUOUS
10
0.0827739
20
0.429494
11
0.0754653
21
0.432521
0
LINE
8
BLACK
6
CONTINUOUS
10
0.0754653
20
0.432521
11
0.0688877
21
0.436916
0
LINE
8
BLACK
6
CONTINUOUS
10
0.0688877
20
0.436916
11
0.0632939
21
0.44251
0
LINE
8
BLACK
6
CONTINUOUS
10
0.0632939
20
0.44251
11
0.0588989
21
0.449087
0
LINE
8
BLACK
6
CONTINUOUS
10
0.0588989
20
0.449087
11
0.0558715
21
0.456396
0
LINE
8
BLACK
6
CONTINUOUS
10
0.0558715
20
0.456396
11
0.0543282
21
0.464155
0
LINE
8
BLACK
6
CONTINUOUS
10
0.0543282
20
0.464155
11
0.0543282
21
0.472066
0
LINE
8
BLACK
6
CONTINUOUS
10
0.0543282
20
0.472066
11
0.0558715
21
0.479824
0
LINE
8
BLACK
6
CONTINUOUS
10
0.0570017
20
0.456739
11
0.0599405
21
0.449644
0
LINE
8
BLACK
6
CONTINUOUS
10
0.0599405
20
0.449644
11
0.0642069
21
0.443259
0
LINE
8
BLACK
6
CONTINUOUS
10
0.0642069
20
0.443259
11
0.069637
21
0.437829
0
LINE
8
BLACK
6
CONTINUOUS
10
0.069637
20
0.437829
11
0.076022
21
0.433563
0
LINE
8
BLACK
6
CONTINUOUS
10
0.076022
20
0.433563
11
0.0831168
21
0.430624
0
LINE
8
BLACK
6
CONTINUOUS
10
0.0831168
20
0.430624
11
0.0906485
21
0.429126
0
LINE
8
BLACK
6
CONTINUOUS
10
0.0906485
20
0.429126
11
0.0983278
21
0.429126
0
LINE
8
BLACK
6
CONTINUOUS
10
0.0983278
20
0.429126
11
0.10586
21
0.430624
0
LINE
8
BLACK
6
CONTINUOUS
10
0.10586
20
0.430624
11
0.112954
21
0.433563
0
LINE
8
BLACK
6
CONTINUOUS
10
0.112954
20
0.433563
11
0.119339
21
0.437829
0
LINE
8
BLACK
6
CONTINUOUS
10
0.119339
20
0.437829
11
0.124769
21
0.443259
0
LINE
8
BLACK
6
CONTINUOUS
10
0.124769
20
0.443259
11
0.129036
21
0.449644
0
LINE
8
BLACK
6
CONTINUOUS
10
0.129036
20
0.449644
11
0.131975
21
0.456739
0
LINE
8
BLACK
6
CONTINUOUS
10
0.131975
20
0.456739
11
0.133473
21
0.464271
0
LINE
8
BLACK
6
CONTINUOUS
10
0.133473
20
0.464271
11
0.133473
21
0.47195
0
LINE
8
BLACK
6
CONTINUOUS
10
0.133473
20
0.47195
11
0.131975
21
0.479482
0
LINE
8
BLACK
6
CONTINUOUS
10
0.131975
20
0.479482
11
0.129036
21
0.486576
0
LINE
8
BLACK
6
CONTINUOUS
10
0.129036
20
0.486576
11
0.124769
21
0.492961
0
LINE
8
BLACK
6
CONTINUOUS
10
0.124769
20
0.492961
11
0.119339
21
0.498392
0
LINE
8
BLACK
6
CONTINUOUS
10
0.119339
20
0.498392
11
0.112954
21
0.502658
0
LINE
8
BLACK
6
CONTINUOUS
10
0.112954
20
0.502658
11
0.10586
21
0.505597
0
LINE
8
BLACK
6
CONTINUOUS
10
0.10586
20
0.505597
11
0.0983278
21
0.507095
0
LINE
8
BLACK
6
CONTINUOUS
10
0.0983278
20
0.507095
11
0.0906485
21
0.507095
0
LINE
8
BLACK
6
CONTINUOUS
10
0.0906485
20
0.507095
11
0.0831168
21
0.505597
0
LINE
8
BLACK
6
CONTINUOUS
10
0.0831168
20
0.505597
11
0.076022
21
0.502658
0
LINE
8
BLACK
6
CONTINUOUS
10
0.076022
20
0.502658
11
0.069637
21
0.498392
0
LINE
8
BLACK
6
CONTINUOUS
10
0.069637
20
0.498392
11
0.0642069
21
0.492961
0
LINE
8
BLACK
6
CONTINUOUS
10
0.0642069
20
0.492961
11
0.0599405
21
0.486576
0
LINE
8
BLACK
6
CONTINUOUS
10
0.0599405
20
0.486576
11
0.0570017
21
0.479482
0
LINE
8
BLACK
6
CONTINUOUS
10
0.0570017
20
0.479482
11
0.0555036
21
0.47195
0
LINE
8
BLACK
6
CONTINUOUS
10
0.0555036
20
0.47195
11
0.0555036
21
0.464271
0
LINE
8
BLACK
6
CONTINUOUS
10
0.0555036
20
0.464271
11
0.0570017
21
0.456739
  0
ENDSEC
  0
EOF
