M48
; DRILL file {KiCad (5.1.4)-1} date 2019/10/27 4:35:52
; FORMAT={-:-/ absolute / metric / decimal}
; #@! TF.CreationDate,2019-10-27T04:35:52+09:00
; #@! TF.GenerationSoftware,Kicad,Pcbnew,(5.1.4)-1
; #@! TF.FileFunction,NonPlated,1,2,NPTH
FMAT,2
METRIC
T1C1.000
T2C1.700
T3C1.900
T4C2.200
T5C4.000
%
G90
G05
T1
X3.78Y-4.8
X22.83Y4.725
X60.93Y-19.087
X71.37Y-19.087
X79.98Y9.487
X90.42Y9.487
X41.88Y-9.562
X52.32Y-9.562
X60.93Y-0.037
X71.37Y-0.037
X41.88Y9.487
X52.32Y9.487
X79.98Y-9.562
X90.42Y-9.562
X22.83Y-14.325
X33.27Y-14.325
X14.22Y-4.8
X3.78Y-23.85
X14.22Y-23.85
X33.27Y4.725
T2
X80.12Y5.287
X90.28Y5.287
X42.02Y-13.762
X52.18Y-13.762
X61.07Y-4.237
X71.23Y-4.237
X42.02Y5.287
X52.18Y5.287
X80.12Y-13.762
X90.28Y-13.762
X22.97Y-18.525
X33.13Y-18.525
X3.92Y-9.0
X14.08Y-9.0
X3.92Y-28.05
X14.08Y-28.05
X22.97Y0.525
X33.13Y0.525
X61.07Y-23.287
X71.23Y-23.287
T3
X79.7Y5.287
X90.7Y5.287
X41.6Y-13.762
X52.6Y-13.762
X60.65Y-4.237
X71.65Y-4.237
X41.6Y5.287
X52.6Y5.287
X79.7Y-13.762
X90.7Y-13.762
X22.55Y-18.525
X33.55Y-18.525
X3.5Y-9.0
X14.5Y-9.0
X3.5Y-28.05
X14.5Y-28.05
X22.55Y0.525
X33.55Y0.525
X60.65Y-23.287
X71.65Y-23.287
T4
X97.6Y-63.3
X2.4Y11.89
X79.55Y-63.3
X2.4Y-37.65
X77.6Y-32.9
X66.0Y11.89
X97.6Y11.89
X35.7Y11.89
X97.6Y-25.7
X39.45Y-23.36
T5
X28.05Y-18.525
X9.0Y-9.0
X28.05Y0.525
X66.15Y-23.287
X85.2Y5.287
X47.1Y-13.762
X66.15Y-4.237
X47.1Y5.287
X85.2Y-13.762
X9.0Y-28.05
T0
M30
