G04 #@! TF.GenerationSoftware,KiCad,Pcbnew,(5.1.4)-1*
G04 #@! TF.CreationDate,2019-10-27T04:35:50+09:00*
G04 #@! TF.ProjectId,pps8,70707338-2e6b-4696-9361-645f70636258,rev?*
G04 #@! TF.SameCoordinates,Original*
G04 #@! TF.FileFunction,Profile,NP*
%FSLAX46Y46*%
G04 Gerber Fmt 4.6, Leading zero omitted, Abs format (unit mm)*
G04 Created by KiCad (PCBNEW (5.1.4)-1) date 2019-10-27 04:35:50*
%MOMM*%
%LPD*%
G04 APERTURE LIST*
%ADD10C,0.150000*%
G04 APERTURE END LIST*
D10*
X86950000Y-6762500D02*
X86950000Y-11262500D01*
X83450000Y-6762500D02*
X86950000Y-6762500D01*
X86950000Y-11262500D02*
X83450000Y-11262500D01*
X83450000Y-11262500D02*
X83450000Y-6762500D01*
X86950000Y12287500D02*
X86950000Y7787500D01*
X83450000Y12287500D02*
X86950000Y12287500D01*
X86950000Y7787500D02*
X83450000Y7787500D01*
X83450000Y7787500D02*
X83450000Y12287500D01*
X75150000Y-35300000D02*
G75*
G02X77150000Y-37300000I0J-2000000D01*
G01*
X98000000Y14290000D02*
G75*
G02X100000000Y12290000I0J-2000000D01*
G01*
X100000000Y-63700000D02*
G75*
G02X98000000Y-65700000I-2000000J0D01*
G01*
X79150000Y-65700000D02*
G75*
G02X77150000Y-63700000I0J2000000D01*
G01*
X0Y12290000D02*
G75*
G02X2000000Y14290000I2000000J0D01*
G01*
X2000000Y-40050000D02*
G75*
G02X0Y-38050000I0J2000000D01*
G01*
X19050000Y-38050000D02*
G75*
G02X17050000Y-40050000I-2000000J0D01*
G01*
X58100000Y-35300000D02*
G75*
G02X56100000Y-33300000I0J2000000D01*
G01*
X54100000Y-25760000D02*
G75*
G02X56100000Y-27760000I0J-2000000D01*
G01*
X38100000Y-28530000D02*
G75*
G02X36100000Y-30530000I-2000000J0D01*
G01*
X38100000Y-27760000D02*
G75*
G02X40100000Y-25760000I2000000J0D01*
G01*
X19050000Y-32530000D02*
G75*
G02X21050000Y-30530000I2000000J0D01*
G01*
X38100000Y-27760000D02*
X38100000Y-28530000D01*
X56100000Y-27760000D02*
X56100000Y-33300000D01*
X19050000Y-32530000D02*
X19050000Y-38050000D01*
X75150000Y-35300000D02*
X58100000Y-35300000D01*
X54100000Y-25760000D02*
X40100000Y-25760000D01*
X36100000Y-30530000D02*
X21050000Y-30530000D01*
X77150000Y-63700000D02*
X77150000Y-37300000D01*
X98000000Y-65700000D02*
X79150000Y-65700000D01*
X45350000Y-11262500D02*
X45350000Y-6762500D01*
X48850000Y-11262500D02*
X45350000Y-11262500D01*
X48850000Y-6762500D02*
X48850000Y-11262500D01*
X45350000Y-6762500D02*
X48850000Y-6762500D01*
X64400000Y-20787500D02*
X64400000Y-16287500D01*
X67900000Y-20787500D02*
X64400000Y-20787500D01*
X67900000Y-16287500D02*
X67900000Y-20787500D01*
X64400000Y-16287500D02*
X67900000Y-16287500D01*
X64400000Y-1737500D02*
X64400000Y2762500D01*
X67900000Y-1737500D02*
X64400000Y-1737500D01*
X67900000Y2762500D02*
X67900000Y-1737500D01*
X64400000Y2762500D02*
X67900000Y2762500D01*
X45350000Y7787500D02*
X45350000Y12287500D01*
X48850000Y7787500D02*
X45350000Y7787500D01*
X48850000Y12287500D02*
X48850000Y7787500D01*
X45350000Y12287500D02*
X48850000Y12287500D01*
X26300000Y3025000D02*
X26300000Y7525000D01*
X29800000Y3025000D02*
X26300000Y3025000D01*
X29800000Y7525000D02*
X29800000Y3025000D01*
X26300000Y7525000D02*
X29800000Y7525000D01*
X26300000Y-16025000D02*
X26300000Y-11525000D01*
X29800000Y-16025000D02*
X26300000Y-16025000D01*
X29800000Y-11525000D02*
X29800000Y-16025000D01*
X26300000Y-11525000D02*
X29800000Y-11525000D01*
X7250000Y-25550000D02*
X7250000Y-21050000D01*
X10750000Y-25550000D02*
X7250000Y-25550000D01*
X10750000Y-21050000D02*
X10750000Y-25550000D01*
X7250000Y-21050000D02*
X10750000Y-21050000D01*
X7250000Y-6500000D02*
X7250000Y-2000000D01*
X10750000Y-6500000D02*
X7250000Y-6500000D01*
X10750000Y-2000000D02*
X10750000Y-6500000D01*
X7250000Y-2000000D02*
X10750000Y-2000000D01*
X0Y12290000D02*
X0Y-38050000D01*
X2000000Y14290000D02*
X98000000Y14290000D01*
X17050000Y-40050000D02*
X2000000Y-40050000D01*
X100000000Y12290000D02*
X100000000Y-63700000D01*
M02*
