G04 #@! TF.GenerationSoftware,KiCad,Pcbnew,(5.1.4)-1*
G04 #@! TF.CreationDate,2019-11-23T12:37:49+09:00*
G04 #@! TF.ProjectId,pps8,70707338-2e6b-4696-9361-645f70636258,rev?*
G04 #@! TF.SameCoordinates,Original*
G04 #@! TF.FileFunction,Legend,Bot*
G04 #@! TF.FilePolarity,Positive*
%FSLAX46Y46*%
G04 Gerber Fmt 4.6, Leading zero omitted, Abs format (unit mm)*
G04 Created by KiCad (PCBNEW (5.1.4)-1) date 2019-11-23 12:37:49*
%MOMM*%
%LPD*%
G04 APERTURE LIST*
%ADD10C,0.300000*%
%ADD11C,0.150000*%
%ADD12C,0.120000*%
%ADD13C,0.125000*%
G04 APERTURE END LIST*
D10*
X7620000Y-5850000D02*
X5570000Y-5850000D01*
X7620000Y-4400000D02*
X7620000Y-5850000D01*
X5570000Y-4400000D02*
X7620000Y-4400000D01*
X5570000Y-5850000D02*
X5570000Y-4400000D01*
X5570000Y-24900000D02*
X5570000Y-23450000D01*
X5570000Y-23450000D02*
X7620000Y-23450000D01*
X7620000Y-23450000D02*
X7620000Y-24900000D01*
X7620000Y-24900000D02*
X5570000Y-24900000D01*
D11*
X13200000Y-18750000D02*
X13200000Y-17250000D01*
X7800000Y-18750000D02*
X13200000Y-18750000D01*
X7800000Y-17250000D02*
X7800000Y-18750000D01*
X13200000Y-17250000D02*
X7800000Y-17250000D01*
X10000000Y-17500000D02*
X10000000Y-18500000D01*
X11000000Y-18500000D02*
X10100000Y-18000000D01*
X11000000Y-17500000D02*
X11000000Y-18500000D01*
X10100000Y-18000000D02*
X11000000Y-17500000D01*
X10100000Y-37000000D02*
X11000000Y-36500000D01*
X11000000Y-36500000D02*
X11000000Y-37500000D01*
X11000000Y-37500000D02*
X10100000Y-37000000D01*
X10000000Y-36500000D02*
X10000000Y-37500000D01*
X13200000Y-36250000D02*
X7800000Y-36250000D01*
X7800000Y-36250000D02*
X7800000Y-37750000D01*
X7800000Y-37750000D02*
X13200000Y-37750000D01*
X13200000Y-37750000D02*
X13200000Y-36250000D01*
D10*
X24620000Y3675000D02*
X24620000Y5125000D01*
X24620000Y5125000D02*
X26670000Y5125000D01*
X26670000Y5125000D02*
X26670000Y3675000D01*
X26670000Y3675000D02*
X24620000Y3675000D01*
X26670000Y-15375000D02*
X24620000Y-15375000D01*
X26670000Y-13925000D02*
X26670000Y-15375000D01*
X24620000Y-13925000D02*
X26670000Y-13925000D01*
X24620000Y-15375000D02*
X24620000Y-13925000D01*
D11*
X27650000Y-8475000D02*
X28550000Y-7975000D01*
X28550000Y-7975000D02*
X28550000Y-8975000D01*
X28550000Y-8975000D02*
X27650000Y-8475000D01*
X27550000Y-7975000D02*
X27550000Y-8975000D01*
X30750000Y-7725000D02*
X25350000Y-7725000D01*
X25350000Y-7725000D02*
X25350000Y-9225000D01*
X25350000Y-9225000D02*
X30750000Y-9225000D01*
X30750000Y-9225000D02*
X30750000Y-7725000D01*
X31200000Y-28350000D02*
X31200000Y-26850000D01*
X25800000Y-28350000D02*
X31200000Y-28350000D01*
X25800000Y-26850000D02*
X25800000Y-28350000D01*
X31200000Y-26850000D02*
X25800000Y-26850000D01*
X28000000Y-27100000D02*
X28000000Y-28100000D01*
X29000000Y-28100000D02*
X28100000Y-27600000D01*
X29000000Y-27100000D02*
X29000000Y-28100000D01*
X28100000Y-27600000D02*
X29000000Y-27100000D01*
D10*
X45720000Y8437500D02*
X43670000Y8437500D01*
X45720000Y9887500D02*
X45720000Y8437500D01*
X43670000Y9887500D02*
X45720000Y9887500D01*
X43670000Y8437500D02*
X43670000Y9887500D01*
X43670000Y-10612500D02*
X43670000Y-9162500D01*
X43670000Y-9162500D02*
X45720000Y-9162500D01*
X45720000Y-9162500D02*
X45720000Y-10612500D01*
X45720000Y-10612500D02*
X43670000Y-10612500D01*
D11*
X49800000Y-4462500D02*
X49800000Y-2962500D01*
X44400000Y-4462500D02*
X49800000Y-4462500D01*
X44400000Y-2962500D02*
X44400000Y-4462500D01*
X49800000Y-2962500D02*
X44400000Y-2962500D01*
X46600000Y-3212500D02*
X46600000Y-4212500D01*
X47600000Y-4212500D02*
X46700000Y-3712500D01*
X47600000Y-3212500D02*
X47600000Y-4212500D01*
X46700000Y-3712500D02*
X47600000Y-3212500D01*
X47100000Y-22800000D02*
X48000000Y-22300000D01*
X48000000Y-22300000D02*
X48000000Y-23300000D01*
X48000000Y-23300000D02*
X47100000Y-22800000D01*
X47000000Y-22300000D02*
X47000000Y-23300000D01*
X50200000Y-22050000D02*
X44800000Y-22050000D01*
X44800000Y-22050000D02*
X44800000Y-23550000D01*
X44800000Y-23550000D02*
X50200000Y-23550000D01*
X50200000Y-23550000D02*
X50200000Y-22050000D01*
D10*
X64770000Y-1087500D02*
X62720000Y-1087500D01*
X64770000Y362500D02*
X64770000Y-1087500D01*
X62720000Y362500D02*
X64770000Y362500D01*
X62720000Y-1087500D02*
X62720000Y362500D01*
X62720000Y-20137500D02*
X62720000Y-18687500D01*
X62720000Y-18687500D02*
X64770000Y-18687500D01*
X64770000Y-18687500D02*
X64770000Y-20137500D01*
X64770000Y-20137500D02*
X62720000Y-20137500D01*
D11*
X65750000Y-13237500D02*
X66650000Y-12737500D01*
X66650000Y-12737500D02*
X66650000Y-13737500D01*
X66650000Y-13737500D02*
X65750000Y-13237500D01*
X65650000Y-12737500D02*
X65650000Y-13737500D01*
X68850000Y-12487500D02*
X63450000Y-12487500D01*
X63450000Y-12487500D02*
X63450000Y-13987500D01*
X63450000Y-13987500D02*
X68850000Y-13987500D01*
X68850000Y-13987500D02*
X68850000Y-12487500D01*
X69300000Y-33350000D02*
X69300000Y-31850000D01*
X63900000Y-33350000D02*
X69300000Y-33350000D01*
X63900000Y-31850000D02*
X63900000Y-33350000D01*
X69300000Y-31850000D02*
X63900000Y-31850000D01*
X66100000Y-32100000D02*
X66100000Y-33100000D01*
X67100000Y-33100000D02*
X66200000Y-32600000D01*
X67100000Y-32100000D02*
X67100000Y-33100000D01*
X66200000Y-32600000D02*
X67100000Y-32100000D01*
X99850000Y-1500000D02*
X99600000Y-1500000D01*
X99850000Y-7500000D02*
X99850000Y-1500000D01*
X99850000Y-7500000D02*
X99600000Y-7500000D01*
X96350000Y-7500000D02*
X96600000Y-7500000D01*
X96350000Y-1500000D02*
X96600000Y-1500000D01*
X96350000Y-7500000D02*
X96350000Y-1500000D01*
X85350000Y19130000D02*
X85050000Y19130000D01*
X85450000Y19280000D02*
X84950000Y19280000D01*
X85550000Y19430000D02*
X84850000Y19430000D01*
X85200000Y18930000D02*
X85700000Y19580000D01*
X84700000Y19580000D02*
X85200000Y18930000D01*
X85700000Y19580000D02*
X84700000Y19580000D01*
X81450000Y19930000D02*
X88950000Y19930000D01*
X81450000Y18630000D02*
X81450000Y19930000D01*
X88950000Y18630000D02*
X81450000Y18630000D01*
X88950000Y19930000D02*
X88950000Y18630000D01*
X94100000Y17030000D02*
X94100000Y16030000D01*
X76300000Y17030000D02*
X76300000Y16030000D01*
X94100000Y17030000D02*
X93100000Y17030000D01*
X76300000Y17030000D02*
X77250000Y17030000D01*
X94100000Y-14970000D02*
X94100000Y-16020000D01*
X76300000Y-15020000D02*
X76300000Y-16020000D01*
X94100000Y-16020000D02*
X93100000Y-16020000D01*
X76300000Y-16020000D02*
X77310000Y-16020000D01*
X88400000Y-4462500D02*
X88400000Y-2962500D01*
X83000000Y-4462500D02*
X88400000Y-4462500D01*
X83000000Y-2962500D02*
X83000000Y-4462500D01*
X88400000Y-2962500D02*
X83000000Y-2962500D01*
X85200000Y-3212500D02*
X85200000Y-4212500D01*
X86200000Y-4212500D02*
X85300000Y-3712500D01*
X86200000Y-3212500D02*
X86200000Y-4212500D01*
X85300000Y-3712500D02*
X86200000Y-3212500D01*
X85300000Y-22800000D02*
X86200000Y-22300000D01*
X86200000Y-22300000D02*
X86200000Y-23300000D01*
X86200000Y-23300000D02*
X85300000Y-22800000D01*
X85200000Y-22300000D02*
X85200000Y-23300000D01*
X88400000Y-22050000D02*
X83000000Y-22050000D01*
X83000000Y-22050000D02*
X83000000Y-23550000D01*
X83000000Y-23550000D02*
X88400000Y-23550000D01*
X88400000Y-23550000D02*
X88400000Y-22050000D01*
D10*
X81770000Y8437500D02*
X81770000Y9887500D01*
X81770000Y9887500D02*
X83820000Y9887500D01*
X83820000Y9887500D02*
X83820000Y8437500D01*
X83820000Y8437500D02*
X81770000Y8437500D01*
X83820000Y-10612500D02*
X81770000Y-10612500D01*
X83820000Y-9162500D02*
X83820000Y-10612500D01*
X81770000Y-9162500D02*
X83820000Y-9162500D01*
X81770000Y-10612500D02*
X81770000Y-9162500D01*
D11*
X98552380Y-3047619D02*
X98076190Y-2714285D01*
X98552380Y-2476190D02*
X97552380Y-2476190D01*
X97552380Y-2857142D01*
X97600000Y-2952380D01*
X97647619Y-3000000D01*
X97742857Y-3047619D01*
X97885714Y-3047619D01*
X97980952Y-3000000D01*
X98028571Y-2952380D01*
X98076190Y-2857142D01*
X98076190Y-2476190D01*
X98028571Y-3476190D02*
X98028571Y-3809523D01*
X98552380Y-3952380D02*
X98552380Y-3476190D01*
X97552380Y-3476190D01*
X97552380Y-3952380D01*
X98504761Y-4333333D02*
X98552380Y-4476190D01*
X98552380Y-4714285D01*
X98504761Y-4809523D01*
X98457142Y-4857142D01*
X98361904Y-4904761D01*
X98266666Y-4904761D01*
X98171428Y-4857142D01*
X98123809Y-4809523D01*
X98076190Y-4714285D01*
X98028571Y-4523809D01*
X97980952Y-4428571D01*
X97933333Y-4380952D01*
X97838095Y-4333333D01*
X97742857Y-4333333D01*
X97647619Y-4380952D01*
X97600000Y-4428571D01*
X97552380Y-4523809D01*
X97552380Y-4761904D01*
X97600000Y-4904761D01*
X98028571Y-5333333D02*
X98028571Y-5666666D01*
X98552380Y-5809523D02*
X98552380Y-5333333D01*
X97552380Y-5333333D01*
X97552380Y-5809523D01*
X97552380Y-6095238D02*
X97552380Y-6666666D01*
X98552380Y-6380952D02*
X97552380Y-6380952D01*
D12*
X87696428Y17340714D02*
X87696428Y18090714D01*
X87446428Y17555000D01*
X87196428Y18090714D01*
X87196428Y17340714D01*
X86839285Y17340714D02*
X86839285Y17840714D01*
X86839285Y18090714D02*
X86875000Y18055000D01*
X86839285Y18019285D01*
X86803571Y18055000D01*
X86839285Y18090714D01*
X86839285Y18019285D01*
X86160714Y17376428D02*
X86232142Y17340714D01*
X86375000Y17340714D01*
X86446428Y17376428D01*
X86482142Y17412142D01*
X86517857Y17483571D01*
X86517857Y17697857D01*
X86482142Y17769285D01*
X86446428Y17805000D01*
X86375000Y17840714D01*
X86232142Y17840714D01*
X86160714Y17805000D01*
X85839285Y17340714D02*
X85839285Y17840714D01*
X85839285Y17697857D02*
X85803571Y17769285D01*
X85767857Y17805000D01*
X85696428Y17840714D01*
X85625000Y17840714D01*
X85267857Y17340714D02*
X85339285Y17376428D01*
X85375000Y17412142D01*
X85410714Y17483571D01*
X85410714Y17697857D01*
X85375000Y17769285D01*
X85339285Y17805000D01*
X85267857Y17840714D01*
X85160714Y17840714D01*
X85089285Y17805000D01*
X85053571Y17769285D01*
X85017857Y17697857D01*
X85017857Y17483571D01*
X85053571Y17412142D01*
X85089285Y17376428D01*
X85160714Y17340714D01*
X85267857Y17340714D01*
X84696428Y18090714D02*
X84696428Y17483571D01*
X84660714Y17412142D01*
X84625000Y17376428D01*
X84553571Y17340714D01*
X84410714Y17340714D01*
X84339285Y17376428D01*
X84303571Y17412142D01*
X84267857Y17483571D01*
X84267857Y18090714D01*
X83946428Y17376428D02*
X83839285Y17340714D01*
X83660714Y17340714D01*
X83589285Y17376428D01*
X83553571Y17412142D01*
X83517857Y17483571D01*
X83517857Y17555000D01*
X83553571Y17626428D01*
X83589285Y17662142D01*
X83660714Y17697857D01*
X83803571Y17733571D01*
X83875000Y17769285D01*
X83910714Y17805000D01*
X83946428Y17876428D01*
X83946428Y17947857D01*
X83910714Y18019285D01*
X83875000Y18055000D01*
X83803571Y18090714D01*
X83625000Y18090714D01*
X83517857Y18055000D01*
X82946428Y17733571D02*
X82839285Y17697857D01*
X82803571Y17662142D01*
X82767857Y17590714D01*
X82767857Y17483571D01*
X82803571Y17412142D01*
X82839285Y17376428D01*
X82910714Y17340714D01*
X83196428Y17340714D01*
X83196428Y18090714D01*
X82946428Y18090714D01*
X82875000Y18055000D01*
X82839285Y18019285D01*
X82803571Y17947857D01*
X82803571Y17876428D01*
X82839285Y17805000D01*
X82875000Y17769285D01*
X82946428Y17733571D01*
X83196428Y17733571D01*
D13*
X75536190Y-12116428D02*
X75440476Y-12152142D01*
X75408571Y-12187857D01*
X75376666Y-12259285D01*
X75376666Y-12366428D01*
X75408571Y-12437857D01*
X75440476Y-12473571D01*
X75504285Y-12509285D01*
X75759523Y-12509285D01*
X75759523Y-11759285D01*
X75536190Y-11759285D01*
X75472380Y-11795000D01*
X75440476Y-11830714D01*
X75408571Y-11902142D01*
X75408571Y-11973571D01*
X75440476Y-12045000D01*
X75472380Y-12080714D01*
X75536190Y-12116428D01*
X75759523Y-12116428D01*
X74802380Y-12009285D02*
X74802380Y-12509285D01*
X74961904Y-11723571D02*
X75121428Y-12259285D01*
X74706666Y-12259285D01*
X73972857Y-11723571D02*
X74547142Y-12687857D01*
X73653809Y-12080714D02*
X73717619Y-12045000D01*
X73749523Y-12009285D01*
X73781428Y-11937857D01*
X73781428Y-11902142D01*
X73749523Y-11830714D01*
X73717619Y-11795000D01*
X73653809Y-11759285D01*
X73526190Y-11759285D01*
X73462380Y-11795000D01*
X73430476Y-11830714D01*
X73398571Y-11902142D01*
X73398571Y-11937857D01*
X73430476Y-12009285D01*
X73462380Y-12045000D01*
X73526190Y-12080714D01*
X73653809Y-12080714D01*
X73717619Y-12116428D01*
X73749523Y-12152142D01*
X73781428Y-12223571D01*
X73781428Y-12366428D01*
X73749523Y-12437857D01*
X73717619Y-12473571D01*
X73653809Y-12509285D01*
X73526190Y-12509285D01*
X73462380Y-12473571D01*
X73430476Y-12437857D01*
X73398571Y-12366428D01*
X73398571Y-12223571D01*
X73430476Y-12152142D01*
X73462380Y-12116428D01*
X73526190Y-12080714D01*
X75963571Y10290714D02*
X75963571Y11040714D01*
X75804047Y11040714D01*
X75708333Y11005000D01*
X75644523Y10933571D01*
X75612619Y10862142D01*
X75580714Y10719285D01*
X75580714Y10612142D01*
X75612619Y10469285D01*
X75644523Y10397857D01*
X75708333Y10326428D01*
X75804047Y10290714D01*
X75963571Y10290714D01*
X75325476Y10969285D02*
X75293571Y11005000D01*
X75229761Y11040714D01*
X75070238Y11040714D01*
X75006428Y11005000D01*
X74974523Y10969285D01*
X74942619Y10897857D01*
X74942619Y10826428D01*
X74974523Y10719285D01*
X75357380Y10290714D01*
X74942619Y10290714D01*
X74176904Y11076428D02*
X74751190Y10112142D01*
X73570714Y10290714D02*
X73794047Y10647857D01*
X73953571Y10290714D02*
X73953571Y11040714D01*
X73698333Y11040714D01*
X73634523Y11005000D01*
X73602619Y10969285D01*
X73570714Y10897857D01*
X73570714Y10790714D01*
X73602619Y10719285D01*
X73634523Y10683571D01*
X73698333Y10647857D01*
X73953571Y10647857D01*
X73347380Y11040714D02*
X72900714Y10290714D01*
X72900714Y11040714D02*
X73347380Y10290714D01*
X72294523Y10290714D02*
X72677380Y10290714D01*
X72485952Y10290714D02*
X72485952Y11040714D01*
X72549761Y10933571D01*
X72613571Y10862142D01*
X72677380Y10826428D01*
X75536190Y-14616428D02*
X75440476Y-14652142D01*
X75408571Y-14687857D01*
X75376666Y-14759285D01*
X75376666Y-14866428D01*
X75408571Y-14937857D01*
X75440476Y-14973571D01*
X75504285Y-15009285D01*
X75759523Y-15009285D01*
X75759523Y-14259285D01*
X75536190Y-14259285D01*
X75472380Y-14295000D01*
X75440476Y-14330714D01*
X75408571Y-14402142D01*
X75408571Y-14473571D01*
X75440476Y-14545000D01*
X75472380Y-14580714D01*
X75536190Y-14616428D01*
X75759523Y-14616428D01*
X74770476Y-14259285D02*
X75089523Y-14259285D01*
X75121428Y-14616428D01*
X75089523Y-14580714D01*
X75025714Y-14545000D01*
X74866190Y-14545000D01*
X74802380Y-14580714D01*
X74770476Y-14616428D01*
X74738571Y-14687857D01*
X74738571Y-14866428D01*
X74770476Y-14937857D01*
X74802380Y-14973571D01*
X74866190Y-15009285D01*
X75025714Y-15009285D01*
X75089523Y-14973571D01*
X75121428Y-14937857D01*
X73972857Y-14223571D02*
X74547142Y-15187857D01*
X73717619Y-15009285D02*
X73590000Y-15009285D01*
X73526190Y-14973571D01*
X73494285Y-14937857D01*
X73430476Y-14830714D01*
X73398571Y-14687857D01*
X73398571Y-14402142D01*
X73430476Y-14330714D01*
X73462380Y-14295000D01*
X73526190Y-14259285D01*
X73653809Y-14259285D01*
X73717619Y-14295000D01*
X73749523Y-14330714D01*
X73781428Y-14402142D01*
X73781428Y-14580714D01*
X73749523Y-14652142D01*
X73717619Y-14687857D01*
X73653809Y-14723571D01*
X73526190Y-14723571D01*
X73462380Y-14687857D01*
X73430476Y-14652142D01*
X73398571Y-14580714D01*
X75376666Y-4787857D02*
X75408571Y-4823571D01*
X75504285Y-4859285D01*
X75568095Y-4859285D01*
X75663809Y-4823571D01*
X75727619Y-4752142D01*
X75759523Y-4680714D01*
X75791428Y-4537857D01*
X75791428Y-4430714D01*
X75759523Y-4287857D01*
X75727619Y-4216428D01*
X75663809Y-4145000D01*
X75568095Y-4109285D01*
X75504285Y-4109285D01*
X75408571Y-4145000D01*
X75376666Y-4180714D01*
X74802380Y-4109285D02*
X74930000Y-4109285D01*
X74993809Y-4145000D01*
X75025714Y-4180714D01*
X75089523Y-4287857D01*
X75121428Y-4430714D01*
X75121428Y-4716428D01*
X75089523Y-4787857D01*
X75057619Y-4823571D01*
X74993809Y-4859285D01*
X74866190Y-4859285D01*
X74802380Y-4823571D01*
X74770476Y-4787857D01*
X74738571Y-4716428D01*
X74738571Y-4537857D01*
X74770476Y-4466428D01*
X74802380Y-4430714D01*
X74866190Y-4395000D01*
X74993809Y-4395000D01*
X75057619Y-4430714D01*
X75089523Y-4466428D01*
X75121428Y-4537857D01*
X73972857Y-4073571D02*
X74547142Y-5037857D01*
X73430476Y-4109285D02*
X73749523Y-4109285D01*
X73781428Y-4466428D01*
X73749523Y-4430714D01*
X73685714Y-4395000D01*
X73526190Y-4395000D01*
X73462380Y-4430714D01*
X73430476Y-4466428D01*
X73398571Y-4537857D01*
X73398571Y-4716428D01*
X73430476Y-4787857D01*
X73462380Y-4823571D01*
X73526190Y-4859285D01*
X73685714Y-4859285D01*
X73749523Y-4823571D01*
X73781428Y-4787857D01*
X75917619Y126428D02*
X75821904Y90714D01*
X75662380Y90714D01*
X75598571Y126428D01*
X75566666Y162142D01*
X75534761Y233571D01*
X75534761Y305000D01*
X75566666Y376428D01*
X75598571Y412142D01*
X75662380Y447857D01*
X75790000Y483571D01*
X75853809Y519285D01*
X75885714Y555000D01*
X75917619Y626428D01*
X75917619Y697857D01*
X75885714Y769285D01*
X75853809Y805000D01*
X75790000Y840714D01*
X75630476Y840714D01*
X75534761Y805000D01*
X74864761Y162142D02*
X74896666Y126428D01*
X74992380Y90714D01*
X75056190Y90714D01*
X75151904Y126428D01*
X75215714Y197857D01*
X75247619Y269285D01*
X75279523Y412142D01*
X75279523Y519285D01*
X75247619Y662142D01*
X75215714Y733571D01*
X75151904Y805000D01*
X75056190Y840714D01*
X74992380Y840714D01*
X74896666Y805000D01*
X74864761Y769285D01*
X74258571Y90714D02*
X74577619Y90714D01*
X74577619Y840714D01*
X73556666Y876428D02*
X74130952Y-87857D01*
X73333333Y90714D02*
X73333333Y840714D01*
X73173809Y840714D01*
X73078095Y805000D01*
X73014285Y733571D01*
X72982380Y662142D01*
X72950476Y519285D01*
X72950476Y412142D01*
X72982380Y269285D01*
X73014285Y197857D01*
X73078095Y126428D01*
X73173809Y90714D01*
X73333333Y90714D01*
X72535714Y840714D02*
X72471904Y840714D01*
X72408095Y805000D01*
X72376190Y769285D01*
X72344285Y697857D01*
X72312380Y555000D01*
X72312380Y376428D01*
X72344285Y233571D01*
X72376190Y162142D01*
X72408095Y126428D01*
X72471904Y90714D01*
X72535714Y90714D01*
X72599523Y126428D01*
X72631428Y162142D01*
X72663333Y233571D01*
X72695238Y376428D01*
X72695238Y555000D01*
X72663333Y697857D01*
X72631428Y769285D01*
X72599523Y805000D01*
X72535714Y840714D01*
X71546666Y876428D02*
X72120952Y-87857D01*
X71387142Y840714D02*
X70972380Y840714D01*
X71195714Y555000D01*
X71100000Y555000D01*
X71036190Y519285D01*
X71004285Y483571D01*
X70972380Y412142D01*
X70972380Y233571D01*
X71004285Y162142D01*
X71036190Y126428D01*
X71100000Y90714D01*
X71291428Y90714D01*
X71355238Y126428D01*
X71387142Y162142D01*
X75933571Y2626428D02*
X75837857Y2590714D01*
X75678333Y2590714D01*
X75614523Y2626428D01*
X75582619Y2662142D01*
X75550714Y2733571D01*
X75550714Y2805000D01*
X75582619Y2876428D01*
X75614523Y2912142D01*
X75678333Y2947857D01*
X75805952Y2983571D01*
X75869761Y3019285D01*
X75901666Y3055000D01*
X75933571Y3126428D01*
X75933571Y3197857D01*
X75901666Y3269285D01*
X75869761Y3305000D01*
X75805952Y3340714D01*
X75646428Y3340714D01*
X75550714Y3305000D01*
X75263571Y2590714D02*
X75263571Y3340714D01*
X75104047Y3340714D01*
X75008333Y3305000D01*
X74944523Y3233571D01*
X74912619Y3162142D01*
X74880714Y3019285D01*
X74880714Y2912142D01*
X74912619Y2769285D01*
X74944523Y2697857D01*
X75008333Y2626428D01*
X75104047Y2590714D01*
X75263571Y2590714D01*
X74625476Y2805000D02*
X74306428Y2805000D01*
X74689285Y2590714D02*
X74465952Y3340714D01*
X74242619Y2590714D01*
X73540714Y3376428D02*
X74115000Y2412142D01*
X73317380Y2590714D02*
X73317380Y3340714D01*
X73157857Y3340714D01*
X73062142Y3305000D01*
X72998333Y3233571D01*
X72966428Y3162142D01*
X72934523Y3019285D01*
X72934523Y2912142D01*
X72966428Y2769285D01*
X72998333Y2697857D01*
X73062142Y2626428D01*
X73157857Y2590714D01*
X73317380Y2590714D01*
X72296428Y2590714D02*
X72679285Y2590714D01*
X72487857Y2590714D02*
X72487857Y3340714D01*
X72551666Y3233571D01*
X72615476Y3162142D01*
X72679285Y3126428D01*
X71530714Y3376428D02*
X72105000Y2412142D01*
X71339285Y3269285D02*
X71307380Y3305000D01*
X71243571Y3340714D01*
X71084047Y3340714D01*
X71020238Y3305000D01*
X70988333Y3269285D01*
X70956428Y3197857D01*
X70956428Y3126428D01*
X70988333Y3019285D01*
X71371190Y2590714D01*
X70956428Y2590714D01*
X75759523Y-2309285D02*
X75759523Y-1559285D01*
X75600000Y-1559285D01*
X75504285Y-1595000D01*
X75440476Y-1666428D01*
X75408571Y-1737857D01*
X75376666Y-1880714D01*
X75376666Y-1987857D01*
X75408571Y-2130714D01*
X75440476Y-2202142D01*
X75504285Y-2273571D01*
X75600000Y-2309285D01*
X75759523Y-2309285D01*
X74802380Y-1809285D02*
X74802380Y-2309285D01*
X74961904Y-1523571D02*
X75121428Y-2059285D01*
X74706666Y-2059285D01*
X73972857Y-1523571D02*
X74547142Y-2487857D01*
X73462380Y-1809285D02*
X73462380Y-2309285D01*
X73621904Y-1523571D02*
X73781428Y-2059285D01*
X73366666Y-2059285D01*
X75883809Y12840714D02*
X75883809Y13590714D01*
X75724285Y13590714D01*
X75628571Y13555000D01*
X75564761Y13483571D01*
X75532857Y13412142D01*
X75500952Y13269285D01*
X75500952Y13162142D01*
X75532857Y13019285D01*
X75564761Y12947857D01*
X75628571Y12876428D01*
X75724285Y12840714D01*
X75883809Y12840714D01*
X75277619Y13590714D02*
X74862857Y13590714D01*
X75086190Y13305000D01*
X74990476Y13305000D01*
X74926666Y13269285D01*
X74894761Y13233571D01*
X74862857Y13162142D01*
X74862857Y12983571D01*
X74894761Y12912142D01*
X74926666Y12876428D01*
X74990476Y12840714D01*
X75181904Y12840714D01*
X75245714Y12876428D01*
X75277619Y12912142D01*
X74097142Y13626428D02*
X74671428Y12662142D01*
X73969523Y13590714D02*
X73586666Y13590714D01*
X73778095Y12840714D02*
X73778095Y13590714D01*
X73427142Y13590714D02*
X72980476Y12840714D01*
X72980476Y13590714D02*
X73427142Y12840714D01*
X72597619Y13590714D02*
X72533809Y13590714D01*
X72470000Y13555000D01*
X72438095Y13519285D01*
X72406190Y13447857D01*
X72374285Y13305000D01*
X72374285Y13126428D01*
X72406190Y12983571D01*
X72438095Y12912142D01*
X72470000Y12876428D01*
X72533809Y12840714D01*
X72597619Y12840714D01*
X72661428Y12876428D01*
X72693333Y12912142D01*
X72725238Y12983571D01*
X72757142Y13126428D01*
X72757142Y13305000D01*
X72725238Y13447857D01*
X72693333Y13519285D01*
X72661428Y13555000D01*
X72597619Y13590714D01*
X75605476Y5955000D02*
X75669285Y5990714D01*
X75765000Y5990714D01*
X75860714Y5955000D01*
X75924523Y5883571D01*
X75956428Y5812142D01*
X75988333Y5669285D01*
X75988333Y5562142D01*
X75956428Y5419285D01*
X75924523Y5347857D01*
X75860714Y5276428D01*
X75765000Y5240714D01*
X75701190Y5240714D01*
X75605476Y5276428D01*
X75573571Y5312142D01*
X75573571Y5562142D01*
X75701190Y5562142D01*
X75286428Y5240714D02*
X75286428Y5990714D01*
X74903571Y5240714D01*
X74903571Y5990714D01*
X74584523Y5240714D02*
X74584523Y5990714D01*
X74425000Y5990714D01*
X74329285Y5955000D01*
X74265476Y5883571D01*
X74233571Y5812142D01*
X74201666Y5669285D01*
X74201666Y5562142D01*
X74233571Y5419285D01*
X74265476Y5347857D01*
X74329285Y5276428D01*
X74425000Y5240714D01*
X74584523Y5240714D01*
X75605476Y8405000D02*
X75669285Y8440714D01*
X75765000Y8440714D01*
X75860714Y8405000D01*
X75924523Y8333571D01*
X75956428Y8262142D01*
X75988333Y8119285D01*
X75988333Y8012142D01*
X75956428Y7869285D01*
X75924523Y7797857D01*
X75860714Y7726428D01*
X75765000Y7690714D01*
X75701190Y7690714D01*
X75605476Y7726428D01*
X75573571Y7762142D01*
X75573571Y8012142D01*
X75701190Y8012142D01*
X75286428Y7690714D02*
X75286428Y8440714D01*
X74903571Y7690714D01*
X74903571Y8440714D01*
X74584523Y7690714D02*
X74584523Y8440714D01*
X74425000Y8440714D01*
X74329285Y8405000D01*
X74265476Y8333571D01*
X74233571Y8262142D01*
X74201666Y8119285D01*
X74201666Y8012142D01*
X74233571Y7869285D01*
X74265476Y7797857D01*
X74329285Y7726428D01*
X74425000Y7690714D01*
X74584523Y7690714D01*
X75759523Y-7409285D02*
X75759523Y-6659285D01*
X75600000Y-6659285D01*
X75504285Y-6695000D01*
X75440476Y-6766428D01*
X75408571Y-6837857D01*
X75376666Y-6980714D01*
X75376666Y-7087857D01*
X75408571Y-7230714D01*
X75440476Y-7302142D01*
X75504285Y-7373571D01*
X75600000Y-7409285D01*
X75759523Y-7409285D01*
X75153333Y-6659285D02*
X74706666Y-6659285D01*
X74993809Y-7409285D01*
X73972857Y-6623571D02*
X74547142Y-7587857D01*
X73462380Y-6659285D02*
X73590000Y-6659285D01*
X73653809Y-6695000D01*
X73685714Y-6730714D01*
X73749523Y-6837857D01*
X73781428Y-6980714D01*
X73781428Y-7266428D01*
X73749523Y-7337857D01*
X73717619Y-7373571D01*
X73653809Y-7409285D01*
X73526190Y-7409285D01*
X73462380Y-7373571D01*
X73430476Y-7337857D01*
X73398571Y-7266428D01*
X73398571Y-7087857D01*
X73430476Y-7016428D01*
X73462380Y-6980714D01*
X73526190Y-6945000D01*
X73653809Y-6945000D01*
X73717619Y-6980714D01*
X73749523Y-7016428D01*
X73781428Y-7087857D01*
X75727619Y-9566428D02*
X75504285Y-9566428D01*
X75408571Y-9959285D02*
X75727619Y-9959285D01*
X75727619Y-9209285D01*
X75408571Y-9209285D01*
X74834285Y-9209285D02*
X74961904Y-9209285D01*
X75025714Y-9245000D01*
X75057619Y-9280714D01*
X75121428Y-9387857D01*
X75153333Y-9530714D01*
X75153333Y-9816428D01*
X75121428Y-9887857D01*
X75089523Y-9923571D01*
X75025714Y-9959285D01*
X74898095Y-9959285D01*
X74834285Y-9923571D01*
X74802380Y-9887857D01*
X74770476Y-9816428D01*
X74770476Y-9637857D01*
X74802380Y-9566428D01*
X74834285Y-9530714D01*
X74898095Y-9495000D01*
X75025714Y-9495000D01*
X75089523Y-9530714D01*
X75121428Y-9566428D01*
X75153333Y-9637857D01*
X74004761Y-9173571D02*
X74579047Y-10137857D01*
X73845238Y-9209285D02*
X73398571Y-9209285D01*
X73685714Y-9959285D01*
X97177619Y-12559285D02*
X97560476Y-12559285D01*
X97369047Y-12559285D02*
X97369047Y-11809285D01*
X97432857Y-11916428D01*
X97496666Y-11987857D01*
X97560476Y-12023571D01*
X96603333Y-11809285D02*
X96730952Y-11809285D01*
X96794761Y-11845000D01*
X96826666Y-11880714D01*
X96890476Y-11987857D01*
X96922380Y-12130714D01*
X96922380Y-12416428D01*
X96890476Y-12487857D01*
X96858571Y-12523571D01*
X96794761Y-12559285D01*
X96667142Y-12559285D01*
X96603333Y-12523571D01*
X96571428Y-12487857D01*
X96539523Y-12416428D01*
X96539523Y-12237857D01*
X96571428Y-12166428D01*
X96603333Y-12130714D01*
X96667142Y-12095000D01*
X96794761Y-12095000D01*
X96858571Y-12130714D01*
X96890476Y-12166428D01*
X96922380Y-12237857D01*
X95773809Y-11773571D02*
X96348095Y-12737857D01*
X95327142Y-12166428D02*
X95231428Y-12202142D01*
X95199523Y-12237857D01*
X95167619Y-12309285D01*
X95167619Y-12416428D01*
X95199523Y-12487857D01*
X95231428Y-12523571D01*
X95295238Y-12559285D01*
X95550476Y-12559285D01*
X95550476Y-11809285D01*
X95327142Y-11809285D01*
X95263333Y-11845000D01*
X95231428Y-11880714D01*
X95199523Y-11952142D01*
X95199523Y-12023571D01*
X95231428Y-12095000D01*
X95263333Y-12130714D01*
X95327142Y-12166428D01*
X95550476Y-12166428D01*
X94912380Y-11880714D02*
X94880476Y-11845000D01*
X94816666Y-11809285D01*
X94657142Y-11809285D01*
X94593333Y-11845000D01*
X94561428Y-11880714D01*
X94529523Y-11952142D01*
X94529523Y-12023571D01*
X94561428Y-12130714D01*
X94944285Y-12559285D01*
X94529523Y-12559285D01*
X97177619Y-15059285D02*
X97560476Y-15059285D01*
X97369047Y-15059285D02*
X97369047Y-14309285D01*
X97432857Y-14416428D01*
X97496666Y-14487857D01*
X97560476Y-14523571D01*
X96762857Y-14309285D02*
X96699047Y-14309285D01*
X96635238Y-14345000D01*
X96603333Y-14380714D01*
X96571428Y-14452142D01*
X96539523Y-14595000D01*
X96539523Y-14773571D01*
X96571428Y-14916428D01*
X96603333Y-14987857D01*
X96635238Y-15023571D01*
X96699047Y-15059285D01*
X96762857Y-15059285D01*
X96826666Y-15023571D01*
X96858571Y-14987857D01*
X96890476Y-14916428D01*
X96922380Y-14773571D01*
X96922380Y-14595000D01*
X96890476Y-14452142D01*
X96858571Y-14380714D01*
X96826666Y-14345000D01*
X96762857Y-14309285D01*
X95773809Y-14273571D02*
X96348095Y-15237857D01*
X95327142Y-14666428D02*
X95231428Y-14702142D01*
X95199523Y-14737857D01*
X95167619Y-14809285D01*
X95167619Y-14916428D01*
X95199523Y-14987857D01*
X95231428Y-15023571D01*
X95295238Y-15059285D01*
X95550476Y-15059285D01*
X95550476Y-14309285D01*
X95327142Y-14309285D01*
X95263333Y-14345000D01*
X95231428Y-14380714D01*
X95199523Y-14452142D01*
X95199523Y-14523571D01*
X95231428Y-14595000D01*
X95263333Y-14630714D01*
X95327142Y-14666428D01*
X95550476Y-14666428D01*
X94593333Y-14309285D02*
X94720952Y-14309285D01*
X94784761Y-14345000D01*
X94816666Y-14380714D01*
X94880476Y-14487857D01*
X94912380Y-14630714D01*
X94912380Y-14916428D01*
X94880476Y-14987857D01*
X94848571Y-15023571D01*
X94784761Y-15059285D01*
X94657142Y-15059285D01*
X94593333Y-15023571D01*
X94561428Y-14987857D01*
X94529523Y-14916428D01*
X94529523Y-14737857D01*
X94561428Y-14666428D01*
X94593333Y-14630714D01*
X94657142Y-14595000D01*
X94784761Y-14595000D01*
X94848571Y-14630714D01*
X94880476Y-14666428D01*
X94912380Y-14737857D01*
X97177619Y-10009285D02*
X97560476Y-10009285D01*
X97369047Y-10009285D02*
X97369047Y-9259285D01*
X97432857Y-9366428D01*
X97496666Y-9437857D01*
X97560476Y-9473571D01*
X96603333Y-9509285D02*
X96603333Y-10009285D01*
X96762857Y-9223571D02*
X96922380Y-9759285D01*
X96507619Y-9759285D01*
X95773809Y-9223571D02*
X96348095Y-10187857D01*
X95327142Y-9616428D02*
X95231428Y-9652142D01*
X95199523Y-9687857D01*
X95167619Y-9759285D01*
X95167619Y-9866428D01*
X95199523Y-9937857D01*
X95231428Y-9973571D01*
X95295238Y-10009285D01*
X95550476Y-10009285D01*
X95550476Y-9259285D01*
X95327142Y-9259285D01*
X95263333Y-9295000D01*
X95231428Y-9330714D01*
X95199523Y-9402142D01*
X95199523Y-9473571D01*
X95231428Y-9545000D01*
X95263333Y-9580714D01*
X95327142Y-9616428D01*
X95550476Y-9616428D01*
X94944285Y-9259285D02*
X94529523Y-9259285D01*
X94752857Y-9545000D01*
X94657142Y-9545000D01*
X94593333Y-9580714D01*
X94561428Y-9616428D01*
X94529523Y-9687857D01*
X94529523Y-9866428D01*
X94561428Y-9937857D01*
X94593333Y-9973571D01*
X94657142Y-10009285D01*
X94848571Y-10009285D01*
X94912380Y-9973571D01*
X94944285Y-9937857D01*
X95172619Y-7459285D02*
X95555476Y-7459285D01*
X95364047Y-7459285D02*
X95364047Y-6709285D01*
X95427857Y-6816428D01*
X95491666Y-6887857D01*
X95555476Y-6923571D01*
X94566428Y-6709285D02*
X94885476Y-6709285D01*
X94917380Y-7066428D01*
X94885476Y-7030714D01*
X94821666Y-6995000D01*
X94662142Y-6995000D01*
X94598333Y-7030714D01*
X94566428Y-7066428D01*
X94534523Y-7137857D01*
X94534523Y-7316428D01*
X94566428Y-7387857D01*
X94598333Y-7423571D01*
X94662142Y-7459285D01*
X94821666Y-7459285D01*
X94885476Y-7423571D01*
X94917380Y-7387857D01*
X95523571Y-4695000D02*
X95204523Y-4695000D01*
X95587380Y-4909285D02*
X95364047Y-4159285D01*
X95140714Y-4909285D01*
X94789761Y-4159285D02*
X94725952Y-4159285D01*
X94662142Y-4195000D01*
X94630238Y-4230714D01*
X94598333Y-4302142D01*
X94566428Y-4445000D01*
X94566428Y-4623571D01*
X94598333Y-4766428D01*
X94630238Y-4837857D01*
X94662142Y-4873571D01*
X94725952Y-4909285D01*
X94789761Y-4909285D01*
X94853571Y-4873571D01*
X94885476Y-4837857D01*
X94917380Y-4766428D01*
X94949285Y-4623571D01*
X94949285Y-4445000D01*
X94917380Y-4302142D01*
X94885476Y-4230714D01*
X94853571Y-4195000D01*
X94789761Y-4159285D01*
X95523571Y-2145000D02*
X95204523Y-2145000D01*
X95587380Y-2359285D02*
X95364047Y-1609285D01*
X95140714Y-2359285D01*
X94566428Y-2359285D02*
X94949285Y-2359285D01*
X94757857Y-2359285D02*
X94757857Y-1609285D01*
X94821666Y-1716428D01*
X94885476Y-1787857D01*
X94949285Y-1823571D01*
X97480714Y355000D02*
X97161666Y355000D01*
X97544523Y140714D02*
X97321190Y890714D01*
X97097857Y140714D01*
X96906428Y819285D02*
X96874523Y855000D01*
X96810714Y890714D01*
X96651190Y890714D01*
X96587380Y855000D01*
X96555476Y819285D01*
X96523571Y747857D01*
X96523571Y676428D01*
X96555476Y569285D01*
X96938333Y140714D01*
X96523571Y140714D01*
X95757857Y926428D02*
X96332142Y-37857D01*
X95311190Y533571D02*
X95534523Y533571D01*
X95534523Y140714D02*
X95534523Y890714D01*
X95215476Y890714D01*
X94641190Y890714D02*
X94960238Y890714D01*
X94992142Y533571D01*
X94960238Y569285D01*
X94896428Y605000D01*
X94736904Y605000D01*
X94673095Y569285D01*
X94641190Y533571D01*
X94609285Y462142D01*
X94609285Y283571D01*
X94641190Y212142D01*
X94673095Y176428D01*
X94736904Y140714D01*
X94896428Y140714D01*
X94960238Y176428D01*
X94992142Y212142D01*
X97480714Y2855000D02*
X97161666Y2855000D01*
X97544523Y2640714D02*
X97321190Y3390714D01*
X97097857Y2640714D01*
X96938333Y3390714D02*
X96523571Y3390714D01*
X96746904Y3105000D01*
X96651190Y3105000D01*
X96587380Y3069285D01*
X96555476Y3033571D01*
X96523571Y2962142D01*
X96523571Y2783571D01*
X96555476Y2712142D01*
X96587380Y2676428D01*
X96651190Y2640714D01*
X96842619Y2640714D01*
X96906428Y2676428D01*
X96938333Y2712142D01*
X95757857Y3426428D02*
X96332142Y2462142D01*
X95311190Y3033571D02*
X95534523Y3033571D01*
X95534523Y2640714D02*
X95534523Y3390714D01*
X95215476Y3390714D01*
X94673095Y3140714D02*
X94673095Y2640714D01*
X94832619Y3426428D02*
X94992142Y2890714D01*
X94577380Y2890714D01*
X96288333Y6090714D02*
X96065000Y5340714D01*
X95841666Y6090714D01*
X95235476Y5412142D02*
X95267380Y5376428D01*
X95363095Y5340714D01*
X95426904Y5340714D01*
X95522619Y5376428D01*
X95586428Y5447857D01*
X95618333Y5519285D01*
X95650238Y5662142D01*
X95650238Y5769285D01*
X95618333Y5912142D01*
X95586428Y5983571D01*
X95522619Y6055000D01*
X95426904Y6090714D01*
X95363095Y6090714D01*
X95267380Y6055000D01*
X95235476Y6019285D01*
X94565476Y5412142D02*
X94597380Y5376428D01*
X94693095Y5340714D01*
X94756904Y5340714D01*
X94852619Y5376428D01*
X94916428Y5447857D01*
X94948333Y5519285D01*
X94980238Y5662142D01*
X94980238Y5769285D01*
X94948333Y5912142D01*
X94916428Y5983571D01*
X94852619Y6055000D01*
X94756904Y6090714D01*
X94693095Y6090714D01*
X94597380Y6055000D01*
X94565476Y6019285D01*
X95761904Y7790714D02*
X95985238Y8147857D01*
X96144761Y7790714D02*
X96144761Y8540714D01*
X95889523Y8540714D01*
X95825714Y8505000D01*
X95793809Y8469285D01*
X95761904Y8397857D01*
X95761904Y8290714D01*
X95793809Y8219285D01*
X95825714Y8183571D01*
X95889523Y8147857D01*
X96144761Y8147857D01*
X95506666Y7826428D02*
X95410952Y7790714D01*
X95251428Y7790714D01*
X95187619Y7826428D01*
X95155714Y7862142D01*
X95123809Y7933571D01*
X95123809Y8005000D01*
X95155714Y8076428D01*
X95187619Y8112142D01*
X95251428Y8147857D01*
X95379047Y8183571D01*
X95442857Y8219285D01*
X95474761Y8255000D01*
X95506666Y8326428D01*
X95506666Y8397857D01*
X95474761Y8469285D01*
X95442857Y8505000D01*
X95379047Y8540714D01*
X95219523Y8540714D01*
X95123809Y8505000D01*
X94932380Y8540714D02*
X94549523Y8540714D01*
X94740952Y7790714D02*
X94740952Y8540714D01*
X95905476Y11055000D02*
X95969285Y11090714D01*
X96065000Y11090714D01*
X96160714Y11055000D01*
X96224523Y10983571D01*
X96256428Y10912142D01*
X96288333Y10769285D01*
X96288333Y10662142D01*
X96256428Y10519285D01*
X96224523Y10447857D01*
X96160714Y10376428D01*
X96065000Y10340714D01*
X96001190Y10340714D01*
X95905476Y10376428D01*
X95873571Y10412142D01*
X95873571Y10662142D01*
X96001190Y10662142D01*
X95586428Y10340714D02*
X95586428Y11090714D01*
X95203571Y10340714D01*
X95203571Y11090714D01*
X94884523Y10340714D02*
X94884523Y11090714D01*
X94725000Y11090714D01*
X94629285Y11055000D01*
X94565476Y10983571D01*
X94533571Y10912142D01*
X94501666Y10769285D01*
X94501666Y10662142D01*
X94533571Y10519285D01*
X94565476Y10447857D01*
X94629285Y10376428D01*
X94725000Y10340714D01*
X94884523Y10340714D01*
X95857619Y12890714D02*
X96080952Y13247857D01*
X96240476Y12890714D02*
X96240476Y13640714D01*
X95985238Y13640714D01*
X95921428Y13605000D01*
X95889523Y13569285D01*
X95857619Y13497857D01*
X95857619Y13390714D01*
X95889523Y13319285D01*
X95921428Y13283571D01*
X95985238Y13247857D01*
X96240476Y13247857D01*
X95602380Y13105000D02*
X95283333Y13105000D01*
X95666190Y12890714D02*
X95442857Y13640714D01*
X95219523Y12890714D01*
X95060000Y13640714D02*
X94900476Y12890714D01*
X94772857Y13426428D01*
X94645238Y12890714D01*
X94485714Y13640714D01*
D11*
M02*
