M48
; DRILL file {KiCad (5.1.4)-1} date 2019/11/23 12:37:52
; FORMAT={-:-/ absolute / metric / decimal}
; #@! TF.CreationDate,2019-11-23T12:37:52+09:00
; #@! TF.GenerationSoftware,Kicad,Pcbnew,(5.1.4)-1
; #@! TF.FileFunction,Plated,1,2,PTH
FMAT,2
METRIC
T1C0.400
T2C0.800
T3C0.813
T4C1.000
T5C1.200
T6C1.300
T7C1.500
T8C2.000
%
G90
G05
T1
X5.17Y-22.056
X5.175Y-5.614
X6.014Y-6.241
X12.819Y-3.375
X12.942Y-5.125
X21.485Y-16.007
X24.236Y4.4
X24.364Y-13.775
X31.932Y-12.849
X33.751Y6.563
X42.749Y8.095
X43.276Y-9.887
X47.368Y-6.152
X52.414Y8.207
X52.418Y-10.847
X70.477Y-17.32
X70.792Y1.63
X71.681Y-17.175
X79.685Y-11.096
X81.252Y-8.876
X81.26Y9.577
X89.002Y-8.437
X89.012Y10.652
X91.595Y11.864
T2
X90.4Y-41.3
X98.02Y-41.3
X90.4Y-38.1
X98.02Y-38.1
X79.1Y-38.1
X86.72Y-38.1
X79.1Y-41.3
X86.72Y-41.3
T3
X43.29Y-3.712
X50.91Y-3.712
X24.24Y-8.475
X31.86Y-8.475
X43.69Y-22.8
X51.31Y-22.8
X62.34Y-13.237
X69.96Y-13.237
X6.69Y-18.0
X14.31Y-18.0
X77.589Y13.208
X77.589Y10.668
X77.589Y8.128
X77.589Y5.588
X77.589Y3.048
X77.589Y0.508
X77.589Y-2.032
X77.589Y-4.572
X77.589Y-7.112
X77.589Y-9.652
X77.589Y-12.192
X77.589Y-14.732
X92.809Y13.208
X92.809Y10.668
X92.809Y8.128
X92.809Y5.588
X92.809Y3.048
X92.809Y0.508
X92.809Y-2.032
X92.809Y-4.572
X92.809Y-7.112
X92.809Y-9.652
X92.809Y-12.192
X92.809Y-14.732
X6.69Y-37.0
X14.31Y-37.0
X24.69Y-27.6
X32.31Y-27.6
X62.79Y-32.6
X70.41Y-32.6
X81.89Y-3.712
X89.51Y-3.712
X81.89Y-22.8
X89.51Y-22.8
T4
X84.0Y-50.9
X84.0Y-53.4
X84.0Y-55.9
X98.5Y-49.4
X98.5Y-51.4
X98.5Y-53.4
X98.5Y-55.4
X98.5Y-57.4
T5
X42.0Y-17.662
X47.1Y-19.662
X52.2Y-17.662
X3.9Y-31.95
X9.0Y-33.95
X14.1Y-31.95
X61.05Y-27.188
X66.15Y-29.188
X71.25Y-27.188
X61.05Y-8.137
X66.15Y-10.137
X71.25Y-8.137
X22.95Y-22.425
X28.05Y-24.425
X33.15Y-22.425
X42.0Y1.387
X47.1Y-0.612
X52.2Y1.387
X22.95Y-3.375
X28.05Y-5.375
X33.15Y-3.375
X80.1Y-17.662
X85.2Y-19.662
X90.3Y-17.662
X80.1Y1.387
X85.2Y-0.612
X90.3Y1.387
X3.9Y-12.9
X9.0Y-14.9
X14.1Y-12.9
T6
X98.1Y-1.25
X98.1Y-7.75
T7
X43.29Y-16.302
X44.56Y-17.762
X44.56Y-18.262
X44.56Y-18.842
X49.64Y-17.762
X49.64Y-18.262
X49.64Y-18.842
X50.91Y-16.302
X5.19Y-30.59
X6.46Y-32.05
X6.46Y-32.55
X6.46Y-33.13
X11.54Y-32.05
X11.54Y-32.55
X11.54Y-33.13
X12.81Y-30.59
X62.34Y-25.828
X63.61Y-27.287
X63.61Y-27.787
X63.61Y-28.367
X68.69Y-27.287
X68.69Y-27.787
X68.69Y-28.367
X69.96Y-25.828
X62.34Y-6.777
X63.61Y-8.237
X63.61Y-8.737
X63.61Y-9.317
X68.69Y-8.237
X68.69Y-8.737
X68.69Y-9.317
X69.96Y-6.777
X24.24Y-21.065
X25.51Y-22.525
X25.51Y-23.025
X25.51Y-23.605
X30.59Y-22.525
X30.59Y-23.025
X30.59Y-23.605
X31.86Y-21.065
X43.29Y2.748
X44.56Y1.287
X44.56Y0.787
X44.56Y0.207
X49.64Y1.287
X49.64Y0.787
X49.64Y0.207
X50.91Y2.748
X24.24Y-2.015
X25.51Y-3.475
X25.51Y-3.975
X25.51Y-4.555
X30.59Y-3.475
X30.59Y-3.975
X30.59Y-4.555
X31.86Y-2.015
X81.39Y-16.302
X82.66Y-17.762
X82.66Y-18.262
X82.66Y-18.842
X87.74Y-17.762
X87.74Y-18.262
X87.74Y-18.842
X89.01Y-16.302
X81.39Y2.748
X82.66Y1.287
X82.66Y0.787
X82.66Y0.207
X87.74Y1.287
X87.74Y0.787
X87.74Y0.207
X89.01Y2.748
X5.19Y-11.54
X6.46Y-13.0
X6.46Y-13.5
X6.46Y-14.08
X11.54Y-13.0
X11.54Y-13.5
X11.54Y-14.08
X12.81Y-11.54
T8
G00X91.25Y-47.8
M15
G01X91.75Y-47.8
M16
G05
G00X91.25Y-59.0
M15
G01X91.75Y-59.0
M16
G05
T0
M30
